<svg width="982" height="982" viewBox="0 0 982 982" fill="none" xmlns="http://www.w3.org/2000/svg">
<rect width="982" height="982" fill="white"/>
<path d="M685.961 432.617H582.445C581.065 421.99 578.236 412.397 573.957 403.84C569.678 395.283 564.02 387.967 556.98 381.895C549.941 375.822 541.591 371.198 531.93 368.023C522.406 364.711 511.848 363.055 500.254 363.055C479.689 363.055 461.953 368.092 447.047 378.168C432.279 388.243 420.892 402.805 412.887 421.852C405.02 440.898 401.086 463.948 401.086 491C401.086 519.156 405.089 542.758 413.094 561.805C421.237 580.714 432.624 594.999 447.254 604.66C462.022 614.184 479.482 618.945 499.633 618.945C510.951 618.945 521.233 617.496 530.48 614.598C539.866 611.699 548.078 607.49 555.117 601.969C562.294 596.31 568.16 589.478 572.715 581.473C577.408 573.329 580.651 564.151 582.445 553.938L685.961 554.559C684.167 573.329 678.715 591.824 669.605 610.043C660.634 628.262 648.281 644.893 632.547 659.937C616.813 674.844 597.628 686.714 574.992 695.547C552.495 704.38 526.685 708.797 497.563 708.797C459.193 708.797 424.826 700.378 394.461 683.539C364.234 666.562 340.357 641.857 322.828 609.422C305.299 576.987 296.535 537.513 296.535 491C296.535 444.349 305.438 404.806 323.242 372.371C341.047 339.936 365.132 315.299 395.496 298.461C425.861 281.622 459.883 273.203 497.563 273.203C523.234 273.203 546.974 276.792 568.781 283.969C590.589 291.008 609.773 301.359 626.336 315.023C642.898 328.549 656.355 345.181 666.707 364.918C677.059 384.655 683.477 407.221 685.961 432.617Z" fill="black"/>
</svg>
