<svg xmlns="http://www.w3.org/2000/svg" viewBox="0 0 226 226" width="226"
     height="226" preserveAspectRatio="xMidYMid meet"
     style="width: 100%; height: 100%; transform: translate3d(0px, 0px, 0px); content-visibility: visible;">
    <defs>
        <clipPath id="__lottie_element_7">
            <rect width="226" height="226" x="0" y="0"></rect>
        </clipPath>
    </defs>
    <g clip-path="url(#__lottie_element_7)">
        <g transform="matrix(1,0,0,1,0,0)" opacity="1" style="display: block;">
            <g opacity="1" transform="matrix(1,0,0,1,0,0)">
                <path fill="rgb(0,0,0)" fill-opacity="1"
                      d=" M117.62100219726562,225.96099853515625 C117.62100219726562,225.96099853515625 108.87460327148438,225.96099853515625 108.87460327148438,225.96099853515625 C108.87460327148438,225.96099853515625 108.87460327148438,217.214599609375 108.87460327148438,217.214599609375 C108.87460327148438,217.214599609375 117.62100219726562,217.214599609375 117.62100219726562,217.214599609375 C117.62100219726562,217.214599609375 117.62100219726562,225.96099853515625 117.62100219726562,225.96099853515625z"></path>
            </g>
        </g>
        <g transform="matrix(1,0,0,1,0,0)" opacity="1" style="display: block;">
            <g opacity="1" transform="matrix(1,0,0,1,0,0)">
                <path fill="rgb(0,0,0)" fill-opacity="1"
                      d=" M134.58799743652344,225.96099853515625 C134.58799743652344,225.96099853515625 125.84159851074219,225.96099853515625 125.84159851074219,225.96099853515625 C125.84159851074219,225.96099853515625 125.84159851074219,217.214599609375 125.84159851074219,217.214599609375 C125.84159851074219,217.214599609375 134.58799743652344,217.214599609375 134.58799743652344,217.214599609375 C134.58799743652344,217.214599609375 134.58799743652344,225.96099853515625 134.58799743652344,225.96099853515625z"></path>
            </g>
        </g>
        <g transform="matrix(1,0,0,1,0,0)" opacity="1" style="display: block;">
            <g opacity="1" transform="matrix(1,0,0,1,0,0)">
                <path fill="rgb(0,0,0)" fill-opacity="1"
                      d=" M100.8010025024414,226 C100.8010025024414,226 92.05460357666016,226 92.05460357666016,226 C92.05460357666016,226 92.05460357666016,217.25360107421875 92.05460357666016,217.25360107421875 C92.05460357666016,217.25360107421875 100.8010025024414,217.25360107421875 100.8010025024414,217.25360107421875 C100.8010025024414,217.25360107421875 100.8010025024414,226 100.8010025024414,226z"></path>
            </g>
        </g>
        <g transform="matrix(1,0,0,1,0,0)" opacity="1" style="display: block;">
            <g opacity="1" transform="matrix(1,0,0,1,0,0)">
                <path fill="rgb(0,0,0)" fill-opacity="1"
                      d=" M151.35000610351562,209.2550048828125 C151.35000610351562,209.2550048828125 142.60360717773438,209.2550048828125 142.60360717773438,209.2550048828125 C142.60360717773438,209.2550048828125 142.60360717773438,200.50860595703125 142.60360717773438,200.50860595703125 C142.60360717773438,200.50860595703125 151.35000610351562,200.50860595703125 151.35000610351562,200.50860595703125 C151.35000610351562,200.50860595703125 151.35000610351562,209.2550048828125 151.35000610351562,209.2550048828125z"></path>
            </g>
        </g>
        <g transform="matrix(1,0,0,1,0,0)" opacity="1" style="display: block;">
            <g opacity="1" transform="matrix(1,0,0,1,0,0)">
                <path fill="rgb(0,0,0)" fill-opacity="1"
                      d=" M84.06839752197266,209.2469940185547 C84.06839752197266,209.2469940185547 75.3219985961914,209.2469940185547 75.3219985961914,209.2469940185547 C75.3219985961914,209.2469940185547 75.3219985961914,200.50059509277344 75.3219985961914,200.50059509277344 C75.3219985961914,200.50059509277344 84.06839752197266,200.50059509277344 84.06839752197266,200.50059509277344 C84.06839752197266,200.50059509277344 84.06839752197266,209.2469940185547 84.06839752197266,209.2469940185547z"></path>
            </g>
        </g>
        <g transform="matrix(1,0,0,1,0,0)" opacity="1" style="display: block;">
            <g opacity="1" transform="matrix(1,0,0,1,0,0)">
                <path fill="rgb(0,0,0)" fill-opacity="1"
                      d=" M151.35000610351562,192.5489959716797 C151.35000610351562,192.5489959716797 142.60360717773438,192.5489959716797 142.60360717773438,192.5489959716797 C142.60360717773438,192.5489959716797 142.60360717773438,183.80259704589844 142.60360717773438,183.80259704589844 C142.60360717773438,183.80259704589844 151.35000610351562,183.80259704589844 151.35000610351562,183.80259704589844 C151.35000610351562,183.80259704589844 151.35000610351562,192.5489959716797 151.35000610351562,192.5489959716797z"></path>
            </g>
        </g>
        <g transform="matrix(1,0,0,1,0,0)" opacity="1" style="display: block;">
            <g opacity="1" transform="matrix(1,0,0,1,0,0)">
                <path fill="rgb(0,0,0)" fill-opacity="1"
                      d=" M84.03910064697266,192.58200073242188 C84.03910064697266,192.58200073242188 75.2927017211914,192.58200073242188 75.2927017211914,192.58200073242188 C75.2927017211914,192.58200073242188 75.2927017211914,183.83560180664062 75.2927017211914,183.83560180664062 C75.2927017211914,183.83560180664062 84.03910064697266,183.83560180664062 84.03910064697266,183.83560180664062 C84.03910064697266,183.83560180664062 84.03910064697266,192.58200073242188 84.03910064697266,192.58200073242188z"></path>
            </g>
        </g>
        <g transform="matrix(1,0,0,1,0,0)" opacity="1" style="display: block;">
            <g opacity="1" transform="matrix(1,0,0,1,0,0)">
                <path fill="rgb(0,0,0)" fill-opacity="1"
                      d=" M108.875,183.83599853515625 C108.875,183.83599853515625 117.62139892578125,183.83599853515625 117.62139892578125,183.83599853515625 C117.62139892578125,183.83599853515625 117.62139892578125,192.5823974609375 117.62139892578125,192.5823974609375 C117.62139892578125,192.5823974609375 108.875,192.5823974609375 108.875,192.5823974609375 C108.875,192.5823974609375 108.875,183.83599853515625 108.875,183.83599853515625z"></path>
            </g>
        </g>
        <g transform="matrix(1,0,0,1,0,0)" opacity="1" style="display: block;">
            <g opacity="1" transform="matrix(1,0,0,1,0,0)">
                <path fill="rgb(0,0,0)" fill-opacity="1"
                      d=" M125.84200286865234,183.83599853515625 C125.84200286865234,183.83599853515625 134.58839416503906,183.83599853515625 134.58839416503906,183.83599853515625 C134.58839416503906,183.83599853515625 134.58839416503906,192.5823974609375 134.58839416503906,192.5823974609375 C134.58839416503906,192.5823974609375 125.84200286865234,192.5823974609375 125.84200286865234,192.5823974609375 C125.84200286865234,192.5823974609375 125.84200286865234,183.83599853515625 125.84200286865234,183.83599853515625z"></path>
            </g>
        </g>
        <g transform="matrix(1,0,0,1,0,0)" opacity="1" style="display: block;">
            <g opacity="1" transform="matrix(1,0,0,1,0,0)">
                <path fill="rgb(0,0,0)" fill-opacity="1"
                      d=" M92.05470275878906,183.83599853515625 C92.05470275878906,183.83599853515625 100.80110168457031,183.83599853515625 100.80110168457031,183.83599853515625 C100.80110168457031,183.83599853515625 100.80110168457031,192.5823974609375 100.80110168457031,192.5823974609375 C100.80110168457031,192.5823974609375 92.05470275878906,192.5823974609375 92.05470275878906,192.5823974609375 C92.05470275878906,192.5823974609375 92.05470275878906,183.83599853515625 92.05470275878906,183.83599853515625z"></path>
            </g>
        </g>
        <g transform="matrix(1,0,0,1,0,0)" opacity="1" style="display: block;">
            <g opacity="1" transform="matrix(1,0,0,1,0,0)">
                <path fill="rgb(0,0,0)" fill-opacity="1"
                      d=" M84.00980377197266,175.86700439453125 C84.00980377197266,175.86700439453125 75.26339721679688,175.86700439453125 75.26339721679688,175.86700439453125 C75.26339721679688,175.86700439453125 75.26339721679688,167.12060546875 75.26339721679688,167.12060546875 C75.26339721679688,167.12060546875 84.00980377197266,167.12060546875 84.00980377197266,167.12060546875 C84.00980377197266,167.12060546875 84.00980377197266,175.86700439453125 84.00980377197266,175.86700439453125z"></path>
            </g>
        </g>
        <g transform="matrix(1,0,0,1,0,0)" opacity="1" style="display: block;">
            <g opacity="1" transform="matrix(1,0,0,1,0,0)">
                <path fill="rgb(0,0,0)" fill-opacity="1"
                      d=" M151.35000610351562,175.843994140625 C151.35000610351562,175.843994140625 142.60360717773438,175.843994140625 142.60360717773438,175.843994140625 C142.60360717773438,175.843994140625 142.60360717773438,167.09759521484375 142.60360717773438,167.09759521484375 C142.60360717773438,167.09759521484375 151.35000610351562,167.09759521484375 151.35000610351562,167.09759521484375 C151.35000610351562,167.09759521484375 151.35000610351562,175.843994140625 151.35000610351562,175.843994140625z"></path>
            </g>
        </g>
        <g transform="matrix(1,0,0,1,0,0)" opacity="1" style="display: block;">
            <g opacity="1" transform="matrix(1,0,0,1,0,0)">
                <path fill="rgb(0,0,0)" fill-opacity="1"
                      d=" M108.875,167.06500244140625 C108.875,167.06500244140625 117.62139892578125,167.06500244140625 117.62139892578125,167.06500244140625 C117.62139892578125,167.06500244140625 117.62139892578125,175.8114013671875 117.62139892578125,175.8114013671875 C117.62139892578125,175.8114013671875 108.875,175.8114013671875 108.875,175.8114013671875 C108.875,175.8114013671875 108.875,167.06500244140625 108.875,167.06500244140625z"></path>
            </g>
        </g>
        <g transform="matrix(1,0,0,1,0,0)" opacity="1" style="display: block;">
            <g opacity="1" transform="matrix(1,0,0,1,0,0)">
                <path fill="rgb(0,0,0)" fill-opacity="1"
                      d=" M125.84200286865234,167.06500244140625 C125.84200286865234,167.06500244140625 134.58839416503906,167.06500244140625 134.58839416503906,167.06500244140625 C134.58839416503906,167.06500244140625 134.58839416503906,175.8114013671875 134.58839416503906,175.8114013671875 C134.58839416503906,175.8114013671875 125.84200286865234,175.8114013671875 125.84200286865234,175.8114013671875 C125.84200286865234,175.8114013671875 125.84200286865234,167.06500244140625 125.84200286865234,167.06500244140625z"></path>
            </g>
        </g>
        <g transform="matrix(1,0,0,1,0,0)" opacity="1" style="display: block;">
            <g opacity="1" transform="matrix(1,0,0,1,0,0)">
                <path fill="rgb(0,0,0)" fill-opacity="1"
                      d=" M92.05470275878906,167.06500244140625 C92.05470275878906,167.06500244140625 100.80110168457031,167.06500244140625 100.80110168457031,167.06500244140625 C100.80110168457031,167.06500244140625 100.80110168457031,175.8114013671875 100.80110168457031,175.8114013671875 C100.80110168457031,175.8114013671875 92.05470275878906,175.8114013671875 92.05470275878906,175.8114013671875 C92.05470275878906,175.8114013671875 92.05470275878906,167.06500244140625 92.05470275878906,167.06500244140625z"></path>
            </g>
        </g>
        <g transform="matrix(1,0,0,1,0,0)" opacity="1" style="display: block;">
            <g opacity="1" transform="matrix(1,0,0,1,0,0)">
                <path fill="rgb(0,0,0)" fill-opacity="1"
                      d=" M84.03910064697266,159.1529998779297 C84.03910064697266,159.1529998779297 75.2927017211914,159.1529998779297 75.2927017211914,159.1529998779297 C75.2927017211914,159.1529998779297 75.2927017211914,150.40660095214844 75.2927017211914,150.40660095214844 C75.2927017211914,150.40660095214844 84.03910064697266,150.40660095214844 84.03910064697266,150.40660095214844 C84.03910064697266,150.40660095214844 84.03910064697266,159.1529998779297 84.03910064697266,159.1529998779297z"></path>
            </g>
        </g>
        <g transform="matrix(1,0,0,1,0,0)" opacity="1" style="display: block;">
            <g opacity="1" transform="matrix(1,0,0,1,0,0)">
                <path fill="rgb(0,0,0)" fill-opacity="1"
                      d=" M151.35000610351562,159.13800048828125 C151.35000610351562,159.13800048828125 142.60360717773438,159.13800048828125 142.60360717773438,159.13800048828125 C142.60360717773438,159.13800048828125 142.60360717773438,150.3916015625 142.60360717773438,150.3916015625 C142.60360717773438,150.3916015625 151.35000610351562,150.3916015625 151.35000610351562,150.3916015625 C151.35000610351562,150.3916015625 151.35000610351562,159.13800048828125 151.35000610351562,159.13800048828125z"></path>
            </g>
        </g>
        <g transform="matrix(1,0,0,1,0,0)" opacity="1" style="display: block;">
            <g opacity="1" transform="matrix(1,0,0,1,0,0)">
                <path fill="rgb(0,0,0)" fill-opacity="1"
                      d=" M67.27729797363281,159.1529998779297 C67.27729797363281,159.1529998779297 58.53089904785156,159.1529998779297 58.53089904785156,159.1529998779297 C58.53089904785156,159.1529998779297 58.53089904785156,150.40660095214844 58.53089904785156,150.40660095214844 C58.53089904785156,150.40660095214844 67.27729797363281,150.40660095214844 67.27729797363281,150.40660095214844 C67.27729797363281,150.40660095214844 67.27729797363281,159.1529998779297 67.27729797363281,159.1529998779297z"></path>
            </g>
        </g>
        <g transform="matrix(1,0,0,1,0,0)" opacity="1" style="display: block;">
            <g opacity="1" transform="matrix(1,0,0,1,0,0)">
                <path fill="rgb(0,0,0)" fill-opacity="1"
                      d=" M168.11099243164062,159.1300048828125 C168.11099243164062,159.1300048828125 159.36459350585938,159.1300048828125 159.36459350585938,159.1300048828125 C159.36459350585938,159.1300048828125 159.36459350585938,150.38360595703125 159.36459350585938,150.38360595703125 C159.36459350585938,150.38360595703125 168.11099243164062,150.38360595703125 168.11099243164062,150.38360595703125 C168.11099243164062,150.38360595703125 168.11099243164062,159.1300048828125 168.11099243164062,159.1300048828125z"></path>
            </g>
        </g>
        <g transform="matrix(1,0,0,1,0,0)" opacity="1" style="display: block;">
            <g opacity="1" transform="matrix(1,0,0,1,0,0)">
                <path fill="rgb(0,0,0)" fill-opacity="1"
                      d=" M108.875,150.36700439453125 C108.875,150.36700439453125 117.62139892578125,150.36700439453125 117.62139892578125,150.36700439453125 C117.62139892578125,150.36700439453125 117.62139892578125,159.1134033203125 117.62139892578125,159.1134033203125 C117.62139892578125,159.1134033203125 108.875,159.1134033203125 108.875,159.1134033203125 C108.875,159.1134033203125 108.875,150.36700439453125 108.875,150.36700439453125z"></path>
            </g>
        </g>
        <g transform="matrix(1,0,0,1,0,0)" opacity="1" style="display: block;">
            <g opacity="1" transform="matrix(1,0,0,1,0,0)">
                <path fill="rgb(0,0,0)" fill-opacity="1"
                      d=" M92.05470275878906,150.36700439453125 C92.05470275878906,150.36700439453125 100.80110168457031,150.36700439453125 100.80110168457031,150.36700439453125 C100.80110168457031,150.36700439453125 100.80110168457031,159.1134033203125 100.80110168457031,159.1134033203125 C100.80110168457031,159.1134033203125 92.05470275878906,159.1134033203125 92.05470275878906,159.1134033203125 C92.05470275878906,159.1134033203125 92.05470275878906,150.36700439453125 92.05470275878906,150.36700439453125z"></path>
            </g>
        </g>
        <g transform="matrix(1,0,0,1,0,0)" opacity="1" style="display: block;">
            <g opacity="1" transform="matrix(1,0,0,1,0,0)">
                <path fill="rgb(0,0,0)" fill-opacity="1"
                      d=" M125.84200286865234,150.36700439453125 C125.84200286865234,150.36700439453125 134.58839416503906,150.36700439453125 134.58839416503906,150.36700439453125 C134.58839416503906,150.36700439453125 134.58839416503906,159.1134033203125 134.58839416503906,159.1134033203125 C134.58839416503906,159.1134033203125 125.84200286865234,159.1134033203125 125.84200286865234,159.1134033203125 C125.84200286865234,159.1134033203125 125.84200286865234,150.36700439453125 125.84200286865234,150.36700439453125z"></path>
            </g>
        </g>
        <g transform="matrix(1,0,0,1,0,0)" opacity="1" style="display: block;">
            <g opacity="1" transform="matrix(1,0,0,1,0,0)">
                <path fill="rgb(0,0,0)" fill-opacity="1"
                      d=" M184.843994140625,142.43899536132812 C184.843994140625,142.43899536132812 176.09759521484375,142.43899536132812 176.09759521484375,142.43899536132812 C176.09759521484375,142.43899536132812 176.09759521484375,133.69259643554688 176.09759521484375,133.69259643554688 C176.09759521484375,133.69259643554688 184.843994140625,133.69259643554688 184.843994140625,133.69259643554688 C184.843994140625,133.69259643554688 184.843994140625,142.43899536132812 184.843994140625,142.43899536132812z"></path>
            </g>
        </g>
        <g transform="matrix(1,0,0,1,0,0)" opacity="1" style="display: block;">
            <g opacity="1" transform="matrix(1,0,0,1,0,0)">
                <path fill="rgb(0,0,0)" fill-opacity="1"
                      d=" M84.00980377197266,142.43899536132812 C84.00980377197266,142.43899536132812 75.26339721679688,142.43899536132812 75.26339721679688,142.43899536132812 C75.26339721679688,142.43899536132812 75.26339721679688,133.69259643554688 75.26339721679688,133.69259643554688 C75.26339721679688,133.69259643554688 84.00980377197266,133.69259643554688 84.00980377197266,133.69259643554688 C84.00980377197266,133.69259643554688 84.00980377197266,142.43899536132812 84.00980377197266,142.43899536132812z"></path>
            </g>
        </g>
        <g transform="matrix(1,0,0,1,0,0)" opacity="1" style="display: block;">
            <g opacity="1" transform="matrix(1,0,0,1,0,0)">
                <path fill="rgb(0,0,0)" fill-opacity="1"
                      d=" M67.24800109863281,142.43899536132812 C67.24800109863281,142.43899536132812 58.5015983581543,142.43899536132812 58.5015983581543,142.43899536132812 C58.5015983581543,142.43899536132812 58.5015983581543,133.69259643554688 58.5015983581543,133.69259643554688 C58.5015983581543,133.69259643554688 67.24800109863281,133.69259643554688 67.24800109863281,133.69259643554688 C67.24800109863281,133.69259643554688 67.24800109863281,142.43899536132812 67.24800109863281,142.43899536132812z"></path>
            </g>
        </g>
        <g transform="matrix(1,0,0,1,0,0)" opacity="1" style="display: block;">
            <g opacity="1" transform="matrix(1,0,0,1,0,0)">
                <path fill="rgb(0,0,0)" fill-opacity="1"
                      d=" M50.48630142211914,142.43899536132812 C50.48630142211914,142.43899536132812 41.739898681640625,142.43899536132812 41.739898681640625,142.43899536132812 C41.739898681640625,142.43899536132812 41.739898681640625,133.69259643554688 41.739898681640625,133.69259643554688 C41.739898681640625,133.69259643554688 50.48630142211914,133.69259643554688 50.48630142211914,133.69259643554688 C50.48630142211914,133.69259643554688 50.48630142211914,142.43899536132812 50.48630142211914,142.43899536132812z"></path>
            </g>
        </g>
        <g transform="matrix(1,0,0,1,0,0)" opacity="1" style="display: block;">
            <g opacity="1" transform="matrix(1,0,0,1,0,0)">
                <path fill="rgb(0,0,0)" fill-opacity="1"
                      d=" M151.35000610351562,142.4320068359375 C151.35000610351562,142.4320068359375 142.60360717773438,142.4320068359375 142.60360717773438,142.4320068359375 C142.60360717773438,142.4320068359375 142.60360717773438,133.6855926513672 142.60360717773438,133.6855926513672 C142.60360717773438,133.6855926513672 151.35000610351562,133.6855926513672 151.35000610351562,133.6855926513672 C151.35000610351562,133.6855926513672 151.35000610351562,142.4320068359375 151.35000610351562,142.4320068359375z"></path>
            </g>
        </g>
        <g transform="matrix(1,0,0,1,0,0)" opacity="1" style="display: block;">
            <g opacity="1" transform="matrix(1,0,0,1,0,0)">
                <path fill="rgb(0,0,0)" fill-opacity="1"
                      d=" M168.08200073242188,142.43899536132812 C168.08200073242188,142.43899536132812 159.33560180664062,142.43899536132812 159.33560180664062,142.43899536132812 C159.33560180664062,142.43899536132812 159.33560180664062,133.69259643554688 159.33560180664062,133.69259643554688 C159.33560180664062,133.69259643554688 168.08200073242188,133.69259643554688 168.08200073242188,133.69259643554688 C168.08200073242188,133.69259643554688 168.08200073242188,142.43899536132812 168.08200073242188,142.43899536132812z"></path>
            </g>
        </g>
        <g transform="matrix(1,0,0,1,0,0)" opacity="1" style="display: block;">
            <g opacity="1" transform="matrix(1,0,0,1,0,0)">
                <path fill="rgb(0,0,0)" fill-opacity="1"
                      d=" M92.05470275878906,133.6699981689453 C92.05470275878906,133.6699981689453 100.80110168457031,133.6699981689453 100.80110168457031,133.6699981689453 C100.80110168457031,133.6699981689453 100.80110168457031,142.41639709472656 100.80110168457031,142.41639709472656 C100.80110168457031,142.41639709472656 92.05470275878906,142.41639709472656 92.05470275878906,142.41639709472656 C92.05470275878906,142.41639709472656 92.05470275878906,133.6699981689453 92.05470275878906,133.6699981689453z"></path>
            </g>
        </g>
        <g transform="matrix(1,0,0,1,0,0)" opacity="1" style="display: block;">
            <g opacity="1" transform="matrix(1,0,0,1,0,0)">
                <path fill="rgb(0,0,0)" fill-opacity="1"
                      d=" M125.84200286865234,133.6699981689453 C125.84200286865234,133.6699981689453 134.58839416503906,133.6699981689453 134.58839416503906,133.6699981689453 C134.58839416503906,133.6699981689453 134.58839416503906,142.41639709472656 134.58839416503906,142.41639709472656 C134.58839416503906,142.41639709472656 125.84200286865234,142.41639709472656 125.84200286865234,142.41639709472656 C125.84200286865234,142.41639709472656 125.84200286865234,133.6699981689453 125.84200286865234,133.6699981689453z"></path>
            </g>
        </g>
        <g transform="matrix(1,0,0,1,0,0)" opacity="1" style="display: block;">
            <g opacity="1" transform="matrix(1,0,0,1,0,0)">
                <path fill="rgb(0,0,0)" fill-opacity="1"
                      d=" M50.51559829711914,125.72699737548828 C50.51559829711914,125.72699737548828 41.76919937133789,125.72699737548828 41.76919937133789,125.72699737548828 C41.76919937133789,125.72699737548828 41.76919937133789,116.98059844970703 41.76919937133789,116.98059844970703 C41.76919937133789,116.98059844970703 50.51559829711914,116.98059844970703 50.51559829711914,116.98059844970703 C50.51559829711914,116.98059844970703 50.51559829711914,125.72699737548828 50.51559829711914,125.72699737548828z"></path>
            </g>
        </g>
        <g transform="matrix(1,0,0,1,0,0)" opacity="1" style="display: block;">
            <g opacity="1" transform="matrix(1,0,0,1,0,0)">
                <path fill="rgb(0,0,0)" fill-opacity="1"
                      d=" M201.63499450683594,125.72699737548828 C201.63499450683594,125.72699737548828 192.8885955810547,125.72699737548828 192.8885955810547,125.72699737548828 C192.8885955810547,125.72699737548828 192.8885955810547,116.98059844970703 192.8885955810547,116.98059844970703 C192.8885955810547,116.98059844970703 201.63499450683594,116.98059844970703 201.63499450683594,116.98059844970703 C201.63499450683594,116.98059844970703 201.63499450683594,125.72699737548828 201.63499450683594,125.72699737548828z"></path>
            </g>
        </g>
        <g transform="matrix(1,0,0,1,0,0)" opacity="1" style="display: block;">
            <g opacity="1" transform="matrix(1,0,0,1,0,0)">
                <path fill="rgb(0,0,0)" fill-opacity="1"
                      d=" M67.27729797363281,125.72699737548828 C67.27729797363281,125.72699737548828 58.53089904785156,125.72699737548828 58.53089904785156,125.72699737548828 C58.53089904785156,125.72699737548828 58.53089904785156,116.98059844970703 58.53089904785156,116.98059844970703 C58.53089904785156,116.98059844970703 67.27729797363281,116.98059844970703 67.27729797363281,116.98059844970703 C67.27729797363281,116.98059844970703 67.27729797363281,125.72699737548828 67.27729797363281,125.72699737548828z"></path>
            </g>
        </g>
        <g transform="matrix(1,0,0,1,0,0)" opacity="1" style="display: block;">
            <g opacity="1" transform="matrix(1,0,0,1,0,0)">
                <path fill="rgb(0,0,0)" fill-opacity="1"
                      d=" M33.75389862060547,125.72699737548828 C33.75389862060547,125.72699737548828 25.00749969482422,125.72699737548828 25.00749969482422,125.72699737548828 C25.00749969482422,125.72699737548828 25.00749969482422,116.98059844970703 25.00749969482422,116.98059844970703 C25.00749969482422,116.98059844970703 33.75389862060547,116.98059844970703 33.75389862060547,116.98059844970703 C33.75389862060547,116.98059844970703 33.75389862060547,125.72699737548828 33.75389862060547,125.72699737548828z"></path>
            </g>
        </g>
        <g transform="matrix(1,0,0,1,0,0)" opacity="1" style="display: block;">
            <g opacity="1" transform="matrix(1,0,0,1,0,0)">
                <path fill="rgb(0,0,0)" fill-opacity="1"
                      d=" M168.11099243164062,125.72699737548828 C168.11099243164062,125.72699737548828 159.36459350585938,125.72699737548828 159.36459350585938,125.72699737548828 C159.36459350585938,125.72699737548828 159.36459350585938,116.98059844970703 159.36459350585938,116.98059844970703 C159.36459350585938,116.98059844970703 168.11099243164062,116.98059844970703 168.11099243164062,116.98059844970703 C168.11099243164062,116.98059844970703 168.11099243164062,125.72699737548828 168.11099243164062,125.72699737548828z"></path>
            </g>
        </g>
        <g transform="matrix(1,0,0,1,0,0)" opacity="1" style="display: block;">
            <g opacity="1" transform="matrix(1,0,0,1,0,0)">
                <path fill="rgb(0,0,0)" fill-opacity="1"
                      d=" M184.8730010986328,125.72699737548828 C184.8730010986328,125.72699737548828 176.12660217285156,125.72699737548828 176.12660217285156,125.72699737548828 C176.12660217285156,125.72699737548828 176.12660217285156,116.98059844970703 176.12660217285156,116.98059844970703 C176.12660217285156,116.98059844970703 184.8730010986328,116.98059844970703 184.8730010986328,116.98059844970703 C184.8730010986328,116.98059844970703 184.8730010986328,125.72699737548828 184.8730010986328,125.72699737548828z"></path>
            </g>
        </g>
        <g transform="matrix(1,0,0,1,0,0)" opacity="1" style="display: block;">
            <g opacity="1" transform="matrix(1,0,0,1,0,0)">
                <path fill="rgb(0,0,0)" fill-opacity="1"
                      d=" M142.75,116.97200012207031 C142.75,116.97200012207031 151.49639892578125,116.97200012207031 151.49639892578125,116.97200012207031 C151.49639892578125,116.97200012207031 151.49639892578125,125.71839904785156 151.49639892578125,125.71839904785156 C151.49639892578125,125.71839904785156 142.75,125.71839904785156 142.75,125.71839904785156 C142.75,125.71839904785156 142.75,116.97200012207031 142.75,116.97200012207031z"></path>
            </g>
        </g>
        <g transform="matrix(1,0,0,1,0,0)" opacity="1" style="display: block;">
            <g opacity="1" transform="matrix(1,0,0,1,0,0)">
                <path fill="rgb(0,0,0)" fill-opacity="1"
                      d=" M92.05470275878906,116.97200012207031 C92.05470275878906,116.97200012207031 100.80110168457031,116.97200012207031 100.80110168457031,116.97200012207031 C100.80110168457031,116.97200012207031 100.80110168457031,125.71839904785156 100.80110168457031,125.71839904785156 C100.80110168457031,125.71839904785156 92.05470275878906,125.71839904785156 92.05470275878906,125.71839904785156 C92.05470275878906,125.71839904785156 92.05470275878906,116.97200012207031 92.05470275878906,116.97200012207031z"></path>
            </g>
        </g>
        <g transform="matrix(1,0,0,1,0,0)" opacity="1" style="display: block;">
            <g opacity="1" transform="matrix(1,0,0,1,0,0)">
                <path fill="rgb(0,0,0)" fill-opacity="1"
                      d=" M75.32230377197266,116.97200012207031 C75.32230377197266,116.97200012207031 84.0687026977539,116.97200012207031 84.0687026977539,116.97200012207031 C84.0687026977539,116.97200012207031 84.0687026977539,125.71839904785156 84.0687026977539,125.71839904785156 C84.0687026977539,125.71839904785156 75.32230377197266,125.71839904785156 75.32230377197266,125.71839904785156 C75.32230377197266,125.71839904785156 75.32230377197266,116.97200012207031 75.32230377197266,116.97200012207031z"></path>
            </g>
        </g>
        <g transform="matrix(1,0,0,1,0,0)" opacity="1" style="display: block;">
            <g opacity="1" transform="matrix(1,0,0,1,0,0)">
                <path fill="rgb(0,0,0)" fill-opacity="1"
                      d=" M125.84200286865234,116.97200012207031 C125.84200286865234,116.97200012207031 134.58839416503906,116.97200012207031 134.58839416503906,116.97200012207031 C134.58839416503906,116.97200012207031 134.58839416503906,125.71839904785156 134.58839416503906,125.71839904785156 C134.58839416503906,125.71839904785156 125.84200286865234,125.71839904785156 125.84200286865234,125.71839904785156 C125.84200286865234,125.71839904785156 125.84200286865234,116.97200012207031 125.84200286865234,116.97200012207031z"></path>
            </g>
        </g>
        <g transform="matrix(1,0,0,1,0,0)" opacity="1" style="display: block;">
            <g opacity="1" transform="matrix(1,0,0,1,0,0)">
                <path fill="rgb(0,0,0)" fill-opacity="1"
                      d=" M41.769500732421875,100.27300262451172 C41.769500732421875,100.27300262451172 50.515899658203125,100.27300262451172 50.515899658203125,100.27300262451172 C50.515899658203125,100.27300262451172 50.515899658203125,109.01940155029297 50.515899658203125,109.01940155029297 C50.515899658203125,109.01940155029297 41.769500732421875,109.01940155029297 41.769500732421875,109.01940155029297 C41.769500732421875,109.01940155029297 41.769500732421875,100.27300262451172 41.769500732421875,100.27300262451172z"></path>
            </g>
        </g>
        <g transform="matrix(1,0,0,1,0,0)" opacity="1" style="display: block;">
            <g opacity="1" transform="matrix(1,0,0,1,0,0)">
                <path fill="rgb(0,0,0)" fill-opacity="1"
                      d=" M142.60400390625,100.27300262451172 C142.60400390625,100.27300262451172 151.35040283203125,100.27300262451172 151.35040283203125,100.27300262451172 C151.35040283203125,100.27300262451172 151.35040283203125,109.01940155029297 151.35040283203125,109.01940155029297 C151.35040283203125,109.01940155029297 142.60400390625,109.01940155029297 142.60400390625,109.01940155029297 C142.60400390625,109.01940155029297 142.60400390625,100.27300262451172 142.60400390625,100.27300262451172z"></path>
            </g>
        </g>
        <g transform="matrix(1,0,0,1,0,0)" opacity="1" style="display: block;">
            <g opacity="1" transform="matrix(1,0,0,1,0,0)">
                <path fill="rgb(0,0,0)" fill-opacity="1"
                      d=" M159.36500549316406,100.27300262451172 C159.36500549316406,100.27300262451172 168.1114044189453,100.27300262451172 168.1114044189453,100.27300262451172 C168.1114044189453,100.27300262451172 168.1114044189453,109.01940155029297 168.1114044189453,109.01940155029297 C168.1114044189453,109.01940155029297 159.36500549316406,109.01940155029297 159.36500549316406,109.01940155029297 C159.36500549316406,109.01940155029297 159.36500549316406,100.27300262451172 159.36500549316406,100.27300262451172z"></path>
            </g>
        </g>
        <g transform="matrix(1,0,0,1,0,0)" opacity="1" style="display: block;">
            <g opacity="1" transform="matrix(1,0,0,1,0,0)">
                <path fill="rgb(0,0,0)" fill-opacity="1"
                      d=" M176.1269989013672,100.27300262451172 C176.1269989013672,100.27300262451172 184.87339782714844,100.27300262451172 184.87339782714844,100.27300262451172 C184.87339782714844,100.27300262451172 184.87339782714844,109.01940155029297 184.87339782714844,109.01940155029297 C184.87339782714844,109.01940155029297 176.1269989013672,109.01940155029297 176.1269989013672,109.01940155029297 C176.1269989013672,109.01940155029297 176.1269989013672,100.27300262451172 176.1269989013672,100.27300262451172z"></path>
            </g>
        </g>
        <g transform="matrix(1,0,0,1,0,0)" opacity="1" style="display: block;">
            <g opacity="1" transform="matrix(1,0,0,1,0,0)">
                <path fill="rgb(0,0,0)" fill-opacity="1"
                      d=" M75.29299926757812,100.27300262451172 C75.29299926757812,100.27300262451172 84.03939819335938,100.27300262451172 84.03939819335938,100.27300262451172 C84.03939819335938,100.27300262451172 84.03939819335938,109.01940155029297 84.03939819335938,109.01940155029297 C84.03939819335938,109.01940155029297 75.29299926757812,109.01940155029297 75.29299926757812,109.01940155029297 C75.29299926757812,109.01940155029297 75.29299926757812,100.27300262451172 75.29299926757812,100.27300262451172z"></path>
            </g>
        </g>
        <g transform="matrix(1,0,0,1,0,0)" opacity="1" style="display: block;">
            <g opacity="1" transform="matrix(1,0,0,1,0,0)">
                <path fill="rgb(0,0,0)" fill-opacity="1"
                      d=" M58.53120040893555,100.27300262451172 C58.53120040893555,100.27300262451172 67.27760314941406,100.27300262451172 67.27760314941406,100.27300262451172 C67.27760314941406,100.27300262451172 67.27760314941406,109.01940155029297 67.27760314941406,109.01940155029297 C67.27760314941406,109.01940155029297 58.53120040893555,109.01940155029297 58.53120040893555,109.01940155029297 C58.53120040893555,109.01940155029297 58.53120040893555,100.27300262451172 58.53120040893555,100.27300262451172z"></path>
            </g>
        </g>
        <g transform="matrix(1,0,0,1,0,0)" opacity="1" style="display: block;">
            <g opacity="1" transform="matrix(1,0,0,1,0,0)">
                <path fill="rgb(0,0,0)" fill-opacity="1"
                      d=" M192.88900756835938,100.27300262451172 C192.88900756835938,100.27300262451172 201.63540649414062,100.27300262451172 201.63540649414062,100.27300262451172 C201.63540649414062,100.27300262451172 201.63540649414062,109.01940155029297 201.63540649414062,109.01940155029297 C201.63540649414062,109.01940155029297 192.88900756835938,109.01940155029297 192.88900756835938,109.01940155029297 C192.88900756835938,109.01940155029297 192.88900756835938,100.27300262451172 192.88900756835938,100.27300262451172z"></path>
            </g>
        </g>
        <g transform="matrix(1,0,0,1,0,0)" opacity="1" style="display: block;">
            <g opacity="1" transform="matrix(1,0,0,1,0,0)">
                <path fill="rgb(0,0,0)" fill-opacity="1"
                      d=" M108.84600067138672,100.27300262451172 C108.84600067138672,100.27300262451172 117.59239959716797,100.27300262451172 117.59239959716797,100.27300262451172 C117.59239959716797,100.27300262451172 117.59239959716797,109.01940155029297 117.59239959716797,109.01940155029297 C117.59239959716797,109.01940155029297 108.84600067138672,109.01940155029297 108.84600067138672,109.01940155029297 C108.84600067138672,109.01940155029297 108.84600067138672,100.27300262451172 108.84600067138672,100.27300262451172z"></path>
            </g>
        </g>
        <g transform="matrix(1,0,0,1,0,0)" opacity="1" style="display: block;">
            <g opacity="1" transform="matrix(1,0,0,1,0,0)">
                <path fill="rgb(0,0,0)" fill-opacity="1"
                      d=" M25,100.27300262451172 C25,100.27300262451172 33.74639892578125,100.27300262451172 33.74639892578125,100.27300262451172 C33.74639892578125,100.27300262451172 33.74639892578125,109.01940155029297 33.74639892578125,109.01940155029297 C33.74639892578125,109.01940155029297 25,109.01940155029297 25,109.01940155029297 C25,109.01940155029297 25,100.27300262451172 25,100.27300262451172z"></path>
            </g>
        </g>
        <g transform="matrix(1,0,0,1,0,0)" opacity="1" style="display: block;">
            <g opacity="1" transform="matrix(1,0,0,1,0,0)">
                <path fill="rgb(0,0,0)" fill-opacity="1"
                      d=" M159.39500427246094,83.56050109863281 C159.39500427246094,83.56050109863281 168.1414031982422,83.56050109863281 168.1414031982422,83.56050109863281 C168.1414031982422,83.56050109863281 168.1414031982422,92.30690002441406 168.1414031982422,92.30690002441406 C168.1414031982422,92.30690002441406 159.39500427246094,92.30690002441406 159.39500427246094,92.30690002441406 C159.39500427246094,92.30690002441406 159.39500427246094,83.56050109863281 159.39500427246094,83.56050109863281z"></path>
            </g>
        </g>
        <g transform="matrix(1,0,0,1,0,0)" opacity="1" style="display: block;">
            <g opacity="1" transform="matrix(1,0,0,1,0,0)">
                <path fill="rgb(0,0,0)" fill-opacity="1"
                      d=" M92.08399963378906,83.56050109863281 C92.08399963378906,83.56050109863281 100.83039855957031,83.56050109863281 100.83039855957031,83.56050109863281 C100.83039855957031,83.56050109863281 100.83039855957031,92.30690002441406 100.83039855957031,92.30690002441406 C100.83039855957031,92.30690002441406 92.08399963378906,92.30690002441406 92.08399963378906,92.30690002441406 C92.08399963378906,92.30690002441406 92.08399963378906,83.56050109863281 92.08399963378906,83.56050109863281z"></path>
            </g>
        </g>
        <g transform="matrix(1,0,0,1,0,0)" opacity="1" style="display: block;">
            <g opacity="1" transform="matrix(1,0,0,1,0,0)">
                <path fill="rgb(0,0,0)" fill-opacity="1"
                      d=" M41.79880142211914,83.56050109863281 C41.79880142211914,83.56050109863281 50.54520034790039,83.56050109863281 50.54520034790039,83.56050109863281 C50.54520034790039,83.56050109863281 50.54520034790039,92.30690002441406 50.54520034790039,92.30690002441406 C50.54520034790039,92.30690002441406 41.79880142211914,92.30690002441406 41.79880142211914,92.30690002441406 C41.79880142211914,92.30690002441406 41.79880142211914,83.56050109863281 41.79880142211914,83.56050109863281z"></path>
            </g>
        </g>
        <g transform="matrix(1,0,0,1,0,0)" opacity="1" style="display: block;">
            <g opacity="1" transform="matrix(1,0,0,1,0,0)">
                <path fill="rgb(0,0,0)" fill-opacity="1"
                      d=" M125.81199645996094,83.56050109863281 C125.81199645996094,83.56050109863281 134.5583953857422,83.56050109863281 134.5583953857422,83.56050109863281 C134.5583953857422,83.56050109863281 134.5583953857422,92.30690002441406 134.5583953857422,92.30690002441406 C134.5583953857422,92.30690002441406 125.81199645996094,92.30690002441406 125.81199645996094,92.30690002441406 C125.81199645996094,92.30690002441406 125.81199645996094,83.56050109863281 125.81199645996094,83.56050109863281z"></path>
            </g>
        </g>
        <g transform="matrix(1,0,0,1,0,0)" opacity="1" style="display: block;">
            <g opacity="1" transform="matrix(1,0,0,1,0,0)">
                <path fill="rgb(0,0,0)" fill-opacity="1"
                      d=" M192.92599487304688,83.56050109863281 C192.92599487304688,83.56050109863281 201.67239379882812,83.56050109863281 201.67239379882812,83.56050109863281 C201.67239379882812,83.56050109863281 201.67239379882812,92.30690002441406 201.67239379882812,92.30690002441406 C201.67239379882812,92.30690002441406 192.92599487304688,92.30690002441406 192.92599487304688,92.30690002441406 C192.92599487304688,92.30690002441406 192.92599487304688,83.56050109863281 192.92599487304688,83.56050109863281z"></path>
            </g>
        </g>
        <g transform="matrix(1,0,0,1,0,0)" opacity="1" style="display: block;">
            <g opacity="1" transform="matrix(1,0,0,1,0,0)">
                <path fill="rgb(0,0,0)" fill-opacity="1"
                      d=" M176.156005859375,83.56050109863281 C176.156005859375,83.56050109863281 184.90240478515625,83.56050109863281 184.90240478515625,83.56050109863281 C184.90240478515625,83.56050109863281 184.90240478515625,92.30690002441406 184.90240478515625,92.30690002441406 C184.90240478515625,92.30690002441406 176.156005859375,92.30690002441406 176.156005859375,92.30690002441406 C176.156005859375,92.30690002441406 176.156005859375,83.56050109863281 176.156005859375,83.56050109863281z"></path>
            </g>
        </g>
        <g transform="matrix(1,0,0,1,0,0)" opacity="1" style="display: block;">
            <g opacity="1" transform="matrix(1,0,0,1,0,0)">
                <path fill="rgb(0,0,0)" fill-opacity="1"
                      d=" M58.56050109863281,83.56050109863281 C58.56050109863281,83.56050109863281 67.30690002441406,83.56050109863281 67.30690002441406,83.56050109863281 C67.30690002441406,83.56050109863281 67.30690002441406,92.30690002441406 67.30690002441406,92.30690002441406 C67.30690002441406,92.30690002441406 58.56050109863281,92.30690002441406 58.56050109863281,92.30690002441406 C58.56050109863281,92.30690002441406 58.56050109863281,83.56050109863281 58.56050109863281,83.56050109863281z"></path>
            </g>
        </g>
        <g transform="matrix(1,0,0,1,0,0)" opacity="1" style="display: block;">
            <g opacity="1" transform="matrix(1,0,0,1,0,0)">
                <path fill="rgb(0,0,0)" fill-opacity="1"
                      d=" M108.84600067138672,83.56050109863281 C108.84600067138672,83.56050109863281 117.59239959716797,83.56050109863281 117.59239959716797,83.56050109863281 C117.59239959716797,83.56050109863281 117.59239959716797,92.30690002441406 117.59239959716797,92.30690002441406 C117.59239959716797,92.30690002441406 108.84600067138672,92.30690002441406 108.84600067138672,92.30690002441406 C108.84600067138672,92.30690002441406 108.84600067138672,83.56050109863281 108.84600067138672,83.56050109863281z"></path>
            </g>
        </g>
        <g transform="matrix(1,0,0,1,0,0)" opacity="1" style="display: block;">
            <g opacity="1" transform="matrix(1,0,0,1,0,0)">
                <path fill="rgb(0,0,0)" fill-opacity="1"
                      d=" M25.037099838256836,83.56050109863281 C25.037099838256836,83.56050109863281 33.78350067138672,83.56050109863281 33.78350067138672,83.56050109863281 C33.78350067138672,83.56050109863281 33.78350067138672,92.30690002441406 33.78350067138672,92.30690002441406 C33.78350067138672,92.30690002441406 25.037099838256836,92.30690002441406 25.037099838256836,92.30690002441406 C25.037099838256836,92.30690002441406 25.037099838256836,83.56050109863281 25.037099838256836,83.56050109863281z"></path>
            </g>
        </g>
        <g transform="matrix(1,0,0,1,0,0)" opacity="1" style="display: block;">
            <g opacity="1" transform="matrix(1,0,0,1,0,0)">
                <path fill="rgb(0,0,0)" fill-opacity="1"
                      d=" M125.81199645996094,66.8467025756836 C125.81199645996094,66.8467025756836 134.5583953857422,66.8467025756836 134.5583953857422,66.8467025756836 C134.5583953857422,66.8467025756836 134.5583953857422,75.59310150146484 134.5583953857422,75.59310150146484 C134.5583953857422,75.59310150146484 125.81199645996094,75.59310150146484 125.81199645996094,75.59310150146484 C125.81199645996094,75.59310150146484 125.81199645996094,66.8467025756836 125.81199645996094,66.8467025756836z"></path>
            </g>
        </g>
        <g transform="matrix(1,0,0,1,0,0)" opacity="1" style="display: block;">
            <g opacity="1" transform="matrix(1,0,0,1,0,0)">
                <path fill="rgb(0,0,0)" fill-opacity="1"
                      d=" M176.156005859375,66.8427963256836 C176.156005859375,66.8427963256836 184.90240478515625,66.8427963256836 184.90240478515625,66.8427963256836 C184.90240478515625,66.8427963256836 184.90240478515625,75.58920288085938 184.90240478515625,75.58920288085938 C184.90240478515625,75.58920288085938 176.156005859375,75.58920288085938 176.156005859375,75.58920288085938 C176.156005859375,75.58920288085938 176.156005859375,66.8427963256836 176.156005859375,66.8427963256836z"></path>
            </g>
        </g>
        <g transform="matrix(1,0,0,1,0,0)" opacity="1" style="display: block;">
            <g opacity="1" transform="matrix(1,0,0,1,0,0)">
                <path fill="rgb(0,0,0)" fill-opacity="1"
                      d=" M92.05470275878906,66.8467025756836 C92.05470275878906,66.8467025756836 100.80110168457031,66.8467025756836 100.80110168457031,66.8467025756836 C100.80110168457031,66.8467025756836 100.80110168457031,75.59310150146484 100.80110168457031,75.59310150146484 C100.80110168457031,75.59310150146484 92.05470275878906,75.59310150146484 92.05470275878906,75.59310150146484 C92.05470275878906,75.59310150146484 92.05470275878906,66.8467025756836 92.05470275878906,66.8467025756836z"></path>
            </g>
        </g>
        <g transform="matrix(1,0,0,1,0,0)" opacity="1" style="display: block;">
            <g opacity="1" transform="matrix(1,0,0,1,0,0)">
                <path fill="rgb(0,0,0)" fill-opacity="1"
                      d=" M192.88900756835938,66.8467025756836 C192.88900756835938,66.8467025756836 201.63540649414062,66.8467025756836 201.63540649414062,66.8467025756836 C201.63540649414062,66.8467025756836 201.63540649414062,75.59310150146484 201.63540649414062,75.59310150146484 C201.63540649414062,75.59310150146484 192.88900756835938,75.59310150146484 192.88900756835938,75.59310150146484 C192.88900756835938,75.59310150146484 192.88900756835938,66.8467025756836 192.88900756835938,66.8467025756836z"></path>
            </g>
        </g>
        <g transform="matrix(1,0,0,1,0,0)" opacity="1" style="display: block;">
            <g opacity="1" transform="matrix(1,0,0,1,0,0)">
                <path fill="rgb(0,0,0)" fill-opacity="1"
                      d=" M25.037099838256836,66.8427963256836 C25.037099838256836,66.8427963256836 33.78350067138672,66.8427963256836 33.78350067138672,66.8427963256836 C33.78350067138672,66.8427963256836 33.78350067138672,75.58920288085938 33.78350067138672,75.58920288085938 C33.78350067138672,75.58920288085938 25.037099838256836,75.58920288085938 25.037099838256836,75.58920288085938 C25.037099838256836,75.58920288085938 25.037099838256836,66.8427963256836 25.037099838256836,66.8427963256836z"></path>
            </g>
        </g>
        <g transform="matrix(1,0,0,1,0,0)" opacity="1" style="display: block;">
            <g opacity="1" transform="matrix(1,0,0,1,0,0)">
                <path fill="rgb(0,0,0)" fill-opacity="1"
                      d=" M58.53120040893555,66.8467025756836 C58.53120040893555,66.8467025756836 67.27760314941406,66.8467025756836 67.27760314941406,66.8467025756836 C67.27760314941406,66.8467025756836 67.27760314941406,75.59310150146484 67.27760314941406,75.59310150146484 C67.27760314941406,75.59310150146484 58.53120040893555,75.59310150146484 58.53120040893555,75.59310150146484 C58.53120040893555,75.59310150146484 58.53120040893555,66.8467025756836 58.53120040893555,66.8467025756836z"></path>
            </g>
        </g>
        <g transform="matrix(1,0,0,1,0,0)" opacity="1" style="display: block;">
            <g opacity="1" transform="matrix(1,0,0,1,0,0)">
                <path fill="rgb(0,0,0)" fill-opacity="1"
                      d=" M159.39500427246094,66.8427963256836 C159.39500427246094,66.8427963256836 168.1414031982422,66.8427963256836 168.1414031982422,66.8427963256836 C168.1414031982422,66.8427963256836 168.1414031982422,75.58920288085938 168.1414031982422,75.58920288085938 C168.1414031982422,75.58920288085938 159.39500427246094,75.58920288085938 159.39500427246094,75.58920288085938 C159.39500427246094,75.58920288085938 159.39500427246094,66.8427963256836 159.39500427246094,66.8427963256836z"></path>
            </g>
        </g>
        <g transform="matrix(1,0,0,1,0,0)" opacity="1" style="display: block;">
            <g opacity="1" transform="matrix(1,0,0,1,0,0)">
                <path fill="rgb(0,0,0)" fill-opacity="1"
                      d=" M75.29299926757812,66.8467025756836 C75.29299926757812,66.8467025756836 84.03939819335938,66.8467025756836 84.03939819335938,66.8467025756836 C84.03939819335938,66.8467025756836 84.03939819335938,75.59310150146484 84.03939819335938,75.59310150146484 C84.03939819335938,75.59310150146484 75.29299926757812,75.59310150146484 75.29299926757812,75.59310150146484 C75.29299926757812,75.59310150146484 75.29299926757812,66.8467025756836 75.29299926757812,66.8467025756836z"></path>
            </g>
        </g>
        <g transform="matrix(1,0,0,1,0,0)" opacity="1" style="display: block;">
            <g opacity="1" transform="matrix(1,0,0,1,0,0)">
                <path fill="rgb(0,0,0)" fill-opacity="1"
                      d=" M108.84600067138672,66.8467025756836 C108.84600067138672,66.8467025756836 117.59239959716797,66.8467025756836 117.59239959716797,66.8467025756836 C117.59239959716797,66.8467025756836 117.59239959716797,75.59310150146484 117.59239959716797,75.59310150146484 C117.59239959716797,75.59310150146484 108.84600067138672,75.59310150146484 108.84600067138672,75.59310150146484 C108.84600067138672,75.59310150146484 108.84600067138672,66.8467025756836 108.84600067138672,66.8467025756836z"></path>
            </g>
        </g>
        <g transform="matrix(1,0,0,1,0,0)" opacity="1" style="display: block;">
            <g opacity="1" transform="matrix(1,0,0,1,0,0)">
                <path fill="rgb(0,0,0)" fill-opacity="1"
                      d=" M41.79880142211914,66.8427963256836 C41.79880142211914,66.8427963256836 50.54520034790039,66.8427963256836 50.54520034790039,66.8427963256836 C50.54520034790039,66.8427963256836 50.54520034790039,75.58920288085938 50.54520034790039,75.58920288085938 C50.54520034790039,75.58920288085938 41.79880142211914,75.58920288085938 41.79880142211914,75.58920288085938 C41.79880142211914,75.58920288085938 41.79880142211914,66.8427963256836 41.79880142211914,66.8427963256836z"></path>
            </g>
        </g>
        <g transform="matrix(1,0,0,1,0,0)" opacity="1" style="display: block;">
            <g opacity="1" transform="matrix(1,0,0,1,0,0)">
                <path fill="rgb(0,0,0)" fill-opacity="1"
                      d=" M142.60400390625,66.8467025756836 C142.60400390625,66.8467025756836 151.35040283203125,66.8467025756836 151.35040283203125,66.8467025756836 C151.35040283203125,66.8467025756836 151.35040283203125,75.59310150146484 151.35040283203125,75.59310150146484 C151.35040283203125,75.59310150146484 142.60400390625,75.59310150146484 142.60400390625,75.59310150146484 C142.60400390625,75.59310150146484 142.60400390625,66.8467025756836 142.60400390625,66.8467025756836z"></path>
            </g>
        </g>
        <g transform="matrix(1,0,0,1,0,0)" opacity="1" style="display: block;">
            <g opacity="1" transform="matrix(1,0,0,1,0,0)">
                <path fill="rgb(0,0,0)" fill-opacity="1"
                      d=" M176.156005859375,50.125 C176.156005859375,50.125 184.90240478515625,50.125 184.90240478515625,50.125 C184.90240478515625,50.125 184.90240478515625,58.87139892578125 184.90240478515625,58.87139892578125 C184.90240478515625,58.87139892578125 176.156005859375,58.87139892578125 176.156005859375,58.87139892578125 C176.156005859375,58.87139892578125 176.156005859375,50.125 176.156005859375,50.125z"></path>
            </g>
        </g>
        <g transform="matrix(1,0,0,1,0,0)" opacity="1" style="display: block;">
            <g opacity="1" transform="matrix(1,0,0,1,0,0)">
                <path fill="rgb(0,0,0)" fill-opacity="1"
                      d=" M41.79880142211914,50.125 C41.79880142211914,50.125 50.54520034790039,50.125 50.54520034790039,50.125 C50.54520034790039,50.125 50.54520034790039,58.87139892578125 50.54520034790039,58.87139892578125 C50.54520034790039,58.87139892578125 41.79880142211914,58.87139892578125 41.79880142211914,58.87139892578125 C41.79880142211914,58.87139892578125 41.79880142211914,50.125 41.79880142211914,50.125z"></path>
            </g>
        </g>
        <g transform="matrix(1,0,0,1,0,0)" opacity="1" style="display: block;">
            <g opacity="1" transform="matrix(1,0,0,1,0,0)">
                <path fill="rgb(0,0,0)" fill-opacity="1"
                      d=" M192.88900756835938,50.125 C192.88900756835938,50.125 201.63540649414062,50.125 201.63540649414062,50.125 C201.63540649414062,50.125 201.63540649414062,58.87139892578125 201.63540649414062,58.87139892578125 C201.63540649414062,58.87139892578125 192.88900756835938,58.87139892578125 192.88900756835938,58.87139892578125 C192.88900756835938,58.87139892578125 192.88900756835938,50.125 192.88900756835938,50.125z"></path>
            </g>
        </g>
        <g transform="matrix(1,0,0,1,0,0)" opacity="1" style="display: block;">
            <g opacity="1" transform="matrix(1,0,0,1,0,0)">
                <path fill="rgb(0,0,0)" fill-opacity="1"
                      d=" M58.53120040893555,50.125 C58.53120040893555,50.125 67.27760314941406,50.125 67.27760314941406,50.125 C67.27760314941406,50.125 67.27760314941406,58.87139892578125 67.27760314941406,58.87139892578125 C67.27760314941406,58.87139892578125 58.53120040893555,58.87139892578125 58.53120040893555,58.87139892578125 C58.53120040893555,58.87139892578125 58.53120040893555,50.125 58.53120040893555,50.125z"></path>
            </g>
        </g>
        <g transform="matrix(1,0,0,1,0,0)" opacity="1" style="display: block;">
            <g opacity="1" transform="matrix(1,0,0,1,0,0)">
                <path fill="rgb(0,0,0)" fill-opacity="1"
                      d=" M142.60400390625,50.1328010559082 C142.60400390625,50.1328010559082 151.35040283203125,50.1328010559082 151.35040283203125,50.1328010559082 C151.35040283203125,50.1328010559082 151.35040283203125,58.87919998168945 151.35040283203125,58.87919998168945 C151.35040283203125,58.87919998168945 142.60400390625,58.87919998168945 142.60400390625,58.87919998168945 C142.60400390625,58.87919998168945 142.60400390625,50.1328010559082 142.60400390625,50.1328010559082z"></path>
            </g>
        </g>
        <g transform="matrix(1,0,0,1,0,0)" opacity="1" style="display: block;">
            <g opacity="1" transform="matrix(1,0,0,1,0,0)">
                <path fill="rgb(0,0,0)" fill-opacity="1"
                      d=" M75.32230377197266,50.1328010559082 C75.32230377197266,50.1328010559082 84.0687026977539,50.1328010559082 84.0687026977539,50.1328010559082 C84.0687026977539,50.1328010559082 84.0687026977539,58.87919998168945 84.0687026977539,58.87919998168945 C84.0687026977539,58.87919998168945 75.32230377197266,58.87919998168945 75.32230377197266,58.87919998168945 C75.32230377197266,58.87919998168945 75.32230377197266,50.1328010559082 75.32230377197266,50.1328010559082z"></path>
            </g>
        </g>
        <g transform="matrix(1,0,0,1,0,0)" opacity="1" style="display: block;">
            <g opacity="1" transform="matrix(1,0,0,1,0,0)">
                <path fill="rgb(0,0,0)" fill-opacity="1"
                      d=" M108.84600067138672,50.1328010559082 C108.84600067138672,50.1328010559082 117.59239959716797,50.1328010559082 117.59239959716797,50.1328010559082 C117.59239959716797,50.1328010559082 117.59239959716797,58.87919998168945 117.59239959716797,58.87919998168945 C117.59239959716797,58.87919998168945 108.84600067138672,58.87919998168945 108.84600067138672,58.87919998168945 C108.84600067138672,58.87919998168945 108.84600067138672,50.1328010559082 108.84600067138672,50.1328010559082z"></path>
            </g>
        </g>
        <g transform="matrix(1,0,0,1,0,0)" opacity="1" style="display: block;">
            <g opacity="1" transform="matrix(1,0,0,1,0,0)">
                <path fill="rgb(0,0,0)" fill-opacity="1"
                      d=" M125.81199645996094,50.1328010559082 C125.81199645996094,50.1328010559082 134.5583953857422,50.1328010559082 134.5583953857422,50.1328010559082 C134.5583953857422,50.1328010559082 134.5583953857422,58.87919998168945 134.5583953857422,58.87919998168945 C134.5583953857422,58.87919998168945 125.81199645996094,58.87919998168945 125.81199645996094,58.87919998168945 C125.81199645996094,58.87919998168945 125.81199645996094,50.1328010559082 125.81199645996094,50.1328010559082z"></path>
            </g>
        </g>
        <g transform="matrix(1,0,0,1,0,0)" opacity="1" style="display: block;">
            <g opacity="1" transform="matrix(1,0,0,1,0,0)">
                <path fill="rgb(0,0,0)" fill-opacity="1"
                      d=" M92.08399963378906,50.1328010559082 C92.08399963378906,50.1328010559082 100.83039855957031,50.1328010559082 100.83039855957031,50.1328010559082 C100.83039855957031,50.1328010559082 100.83039855957031,58.87919998168945 100.83039855957031,58.87919998168945 C100.83039855957031,58.87919998168945 92.08399963378906,58.87919998168945 92.08399963378906,58.87919998168945 C92.08399963378906,58.87919998168945 92.08399963378906,50.1328010559082 92.08399963378906,50.1328010559082z"></path>
            </g>
        </g>
        <g transform="matrix(1,0,0,1,0,0)" opacity="1" style="display: block;">
            <g opacity="1" transform="matrix(1,0,0,1,0,0)">
                <path fill="rgb(0,0,0)" fill-opacity="1"
                      d=" M159.39500427246094,50.125 C159.39500427246094,50.125 168.1414031982422,50.125 168.1414031982422,50.125 C168.1414031982422,50.125 168.1414031982422,58.87139892578125 168.1414031982422,58.87139892578125 C168.1414031982422,58.87139892578125 159.39500427246094,58.87139892578125 159.39500427246094,58.87139892578125 C159.39500427246094,58.87139892578125 159.39500427246094,50.125 159.39500427246094,50.125z"></path>
            </g>
        </g>
        <g transform="matrix(1,0,0,1,0,0)" opacity="1" style="display: block;">
            <g opacity="1" transform="matrix(1,0,0,1,0,0)">
                <path fill="rgb(0,0,0)" fill-opacity="1"
                      d=" M25.037099838256836,50.125 C25.037099838256836,50.125 33.78350067138672,50.125 33.78350067138672,50.125 C33.78350067138672,50.125 33.78350067138672,58.87139892578125 33.78350067138672,58.87139892578125 C33.78350067138672,58.87139892578125 25.037099838256836,58.87139892578125 25.037099838256836,58.87139892578125 C25.037099838256836,58.87139892578125 25.037099838256836,50.125 25.037099838256836,50.125z"></path>
            </g>
        </g>
        <g transform="matrix(1,0,0,1,0,0)" opacity="1" style="display: block;">
            <g opacity="1" transform="matrix(1,0,0,1,0,0)">
                <path fill="rgb(0,0,0)" fill-opacity="1"
                      d=" M92.05470275878906,33.419898986816406 C92.05470275878906,33.419898986816406 100.80110168457031,33.419898986816406 100.80110168457031,33.419898986816406 C100.80110168457031,33.419898986816406 100.80110168457031,42.16630172729492 100.80110168457031,42.16630172729492 C100.80110168457031,42.16630172729492 92.05470275878906,42.16630172729492 92.05470275878906,42.16630172729492 C92.05470275878906,42.16630172729492 92.05470275878906,33.419898986816406 92.05470275878906,33.419898986816406z"></path>
            </g>
        </g>
        <g transform="matrix(1,0,0,1,0,0)" opacity="1" style="display: block;">
            <g opacity="1" transform="matrix(1,0,0,1,0,0)">
                <path fill="rgb(0,0,0)" fill-opacity="1"
                      d=" M142.60400390625,33.419898986816406 C142.60400390625,33.419898986816406 151.35040283203125,33.419898986816406 151.35040283203125,33.419898986816406 C151.35040283203125,33.419898986816406 151.35040283203125,42.16630172729492 151.35040283203125,42.16630172729492 C151.35040283203125,42.16630172729492 142.60400390625,42.16630172729492 142.60400390625,42.16630172729492 C142.60400390625,42.16630172729492 142.60400390625,33.419898986816406 142.60400390625,33.419898986816406z"></path>
            </g>
        </g>
        <g transform="matrix(1,0,0,1,0,0)" opacity="1" style="display: block;">
            <g opacity="1" transform="matrix(1,0,0,1,0,0)">
                <path fill="rgb(0,0,0)" fill-opacity="1"
                      d=" M58.53120040893555,33.404300689697266 C58.53120040893555,33.404300689697266 67.27760314941406,33.404300689697266 67.27760314941406,33.404300689697266 C67.27760314941406,33.404300689697266 67.27760314941406,42.150699615478516 67.27760314941406,42.150699615478516 C67.27760314941406,42.150699615478516 58.53120040893555,42.150699615478516 58.53120040893555,42.150699615478516 C58.53120040893555,42.150699615478516 58.53120040893555,33.404300689697266 58.53120040893555,33.404300689697266z"></path>
            </g>
        </g>
        <g transform="matrix(1,0,0,1,0,0)" opacity="1" style="display: block;">
            <g opacity="1" transform="matrix(1,0,0,1,0,0)">
                <path fill="rgb(0,0,0)" fill-opacity="1"
                      d=" M176.156005859375,33.408199310302734 C176.156005859375,33.408199310302734 184.90240478515625,33.408199310302734 184.90240478515625,33.408199310302734 C184.90240478515625,33.408199310302734 184.90240478515625,42.154598236083984 184.90240478515625,42.154598236083984 C184.90240478515625,42.154598236083984 176.156005859375,42.154598236083984 176.156005859375,42.154598236083984 C176.156005859375,42.154598236083984 176.156005859375,33.408199310302734 176.156005859375,33.408199310302734z"></path>
            </g>
        </g>
        <g transform="matrix(1,0,0,1,0,0)" opacity="1" style="display: block;">
            <g opacity="1" transform="matrix(1,0,0,1,0,0)">
                <path fill="rgb(0,0,0)" fill-opacity="1"
                      d=" M159.39500427246094,33.408199310302734 C159.39500427246094,33.408199310302734 168.1414031982422,33.408199310302734 168.1414031982422,33.408199310302734 C168.1414031982422,33.408199310302734 168.1414031982422,42.154598236083984 168.1414031982422,42.154598236083984 C168.1414031982422,42.154598236083984 159.39500427246094,42.154598236083984 159.39500427246094,42.154598236083984 C159.39500427246094,42.154598236083984 159.39500427246094,33.408199310302734 159.39500427246094,33.408199310302734z"></path>
            </g>
        </g>
        <g transform="matrix(1,0,0,1,0,0)" opacity="1" style="display: block;">
            <g opacity="1" transform="matrix(1,0,0,1,0,0)">
                <path fill="rgb(0,0,0)" fill-opacity="1"
                      d=" M108.84600067138672,33.419898986816406 C108.84600067138672,33.419898986816406 117.59239959716797,33.419898986816406 117.59239959716797,33.419898986816406 C117.59239959716797,33.419898986816406 117.59239959716797,42.16630172729492 117.59239959716797,42.16630172729492 C117.59239959716797,42.16630172729492 108.84600067138672,42.16630172729492 108.84600067138672,42.16630172729492 C108.84600067138672,42.16630172729492 108.84600067138672,33.419898986816406 108.84600067138672,33.419898986816406z"></path>
            </g>
        </g>
        <g transform="matrix(1,0,0,1,0,0)" opacity="1" style="display: block;">
            <g opacity="1" transform="matrix(1,0,0,1,0,0)">
                <path fill="rgb(0,0,0)" fill-opacity="1"
                      d=" M125.81199645996094,33.419898986816406 C125.81199645996094,33.419898986816406 134.5583953857422,33.419898986816406 134.5583953857422,33.419898986816406 C134.5583953857422,33.419898986816406 134.5583953857422,42.16630172729492 134.5583953857422,42.16630172729492 C134.5583953857422,42.16630172729492 125.81199645996094,42.16630172729492 125.81199645996094,42.16630172729492 C125.81199645996094,42.16630172729492 125.81199645996094,33.419898986816406 125.81199645996094,33.419898986816406z"></path>
            </g>
        </g>
        <g transform="matrix(1,0,0,1,0,0)" opacity="1" style="display: block;">
            <g opacity="1" transform="matrix(1,0,0,1,0,0)">
                <path fill="rgb(0,0,0)" fill-opacity="1"
                      d=" M75.29299926757812,33.419898986816406 C75.29299926757812,33.419898986816406 84.03939819335938,33.419898986816406 84.03939819335938,33.419898986816406 C84.03939819335938,33.419898986816406 84.03939819335938,42.16630172729492 84.03939819335938,42.16630172729492 C84.03939819335938,42.16630172729492 75.29299926757812,42.16630172729492 75.29299926757812,42.16630172729492 C75.29299926757812,42.16630172729492 75.29299926757812,33.419898986816406 75.29299926757812,33.419898986816406z"></path>
            </g>
        </g>
        <g transform="matrix(1,0,0,1,0,0)" opacity="1" style="display: block;">
            <g opacity="1" transform="matrix(1,0,0,1,0,0)">
                <path fill="rgb(0,0,0)" fill-opacity="1"
                      d=" M41.79880142211914,33.408199310302734 C41.79880142211914,33.408199310302734 50.54520034790039,33.408199310302734 50.54520034790039,33.408199310302734 C50.54520034790039,33.408199310302734 50.54520034790039,42.154598236083984 50.54520034790039,42.154598236083984 C50.54520034790039,42.154598236083984 41.79880142211914,42.154598236083984 41.79880142211914,42.154598236083984 C41.79880142211914,42.154598236083984 41.79880142211914,33.408199310302734 41.79880142211914,33.408199310302734z"></path>
            </g>
        </g>
        <g transform="matrix(1,0,0,1,0,0)" opacity="1" style="display: block;">
            <g opacity="1" transform="matrix(1,0,0,1,0,0)">
                <path fill="rgb(0,0,0)" fill-opacity="1"
                      d=" M92.05470275878906,16.698200225830078 C92.05470275878906,16.698200225830078 100.80110168457031,16.698200225830078 100.80110168457031,16.698200225830078 C100.80110168457031,16.698200225830078 100.80110168457031,25.444599151611328 100.80110168457031,25.444599151611328 C100.80110168457031,25.444599151611328 92.05470275878906,25.444599151611328 92.05470275878906,25.444599151611328 C92.05470275878906,25.444599151611328 92.05470275878906,16.698200225830078 92.05470275878906,16.698200225830078z"></path>
            </g>
        </g>
        <g transform="matrix(1,0,0,1,0,0)" opacity="1" style="display: block;">
            <g opacity="1" transform="matrix(1,0,0,1,0,0)">
                <path fill="rgb(0,0,0)" fill-opacity="1"
                      d=" M142.60400390625,16.706100463867188 C142.60400390625,16.706100463867188 151.35040283203125,16.706100463867188 151.35040283203125,16.706100463867188 C151.35040283203125,16.706100463867188 151.35040283203125,25.452499389648438 151.35040283203125,25.452499389648438 C151.35040283203125,25.452499389648438 142.60400390625,25.452499389648438 142.60400390625,25.452499389648438 C142.60400390625,25.452499389648438 142.60400390625,16.706100463867188 142.60400390625,16.706100463867188z"></path>
            </g>
        </g>
        <g transform="matrix(1,0,0,1,0,0)" opacity="1" style="display: block;">
            <g opacity="1" transform="matrix(1,0,0,1,0,0)">
                <path fill="rgb(0,0,0)" fill-opacity="1"
                      d=" M108.84600067138672,16.698200225830078 C108.84600067138672,16.698200225830078 117.59239959716797,16.698200225830078 117.59239959716797,16.698200225830078 C117.59239959716797,16.698200225830078 117.59239959716797,25.444599151611328 117.59239959716797,25.444599151611328 C117.59239959716797,25.444599151611328 108.84600067138672,25.444599151611328 108.84600067138672,25.444599151611328 C108.84600067138672,25.444599151611328 108.84600067138672,16.698200225830078 108.84600067138672,16.698200225830078z"></path>
            </g>
        </g>
        <g transform="matrix(1,0,0,1,0,0)" opacity="1" style="display: block;">
            <g opacity="1" transform="matrix(1,0,0,1,0,0)">
                <path fill="rgb(0,0,0)" fill-opacity="1"
                      d=" M75.29299926757812,16.713899612426758 C75.29299926757812,16.713899612426758 84.03939819335938,16.713899612426758 84.03939819335938,16.713899612426758 C84.03939819335938,16.713899612426758 84.03939819335938,25.46030044555664 84.03939819335938,25.46030044555664 C84.03939819335938,25.46030044555664 75.29299926757812,25.46030044555664 75.29299926757812,25.46030044555664 C75.29299926757812,25.46030044555664 75.29299926757812,16.713899612426758 75.29299926757812,16.713899612426758z"></path>
            </g>
        </g>
        <g transform="matrix(1,0,0,1,0,0)" opacity="1" style="display: block;">
            <g opacity="1" transform="matrix(1,0,0,1,0,0)">
                <path fill="rgb(0,0,0)" fill-opacity="1"
                      d=" M125.81199645996094,16.698200225830078 C125.81199645996094,16.698200225830078 134.5583953857422,16.698200225830078 134.5583953857422,16.698200225830078 C134.5583953857422,16.698200225830078 134.5583953857422,25.444599151611328 134.5583953857422,25.444599151611328 C134.5583953857422,25.444599151611328 125.81199645996094,25.444599151611328 125.81199645996094,25.444599151611328 C125.81199645996094,25.444599151611328 125.81199645996094,16.698200225830078 125.81199645996094,16.698200225830078z"></path>
            </g>
        </g>
        <g transform="matrix(1,0,0,1,0,0)" opacity="1" style="display: block;">
            <g opacity="1" transform="matrix(1,0,0,1,0,0)">
                <path fill="rgb(0,0,0)" fill-opacity="1"
                      d=" M58.53120040893555,16.682600021362305 C58.53120040893555,16.682600021362305 67.27760314941406,16.682600021362305 67.27760314941406,16.682600021362305 C67.27760314941406,16.682600021362305 67.27760314941406,25.429000854492188 67.27760314941406,25.429000854492188 C67.27760314941406,25.429000854492188 58.53120040893555,25.429000854492188 58.53120040893555,25.429000854492188 C58.53120040893555,25.429000854492188 58.53120040893555,16.682600021362305 58.53120040893555,16.682600021362305z"></path>
            </g>
        </g>
        <g transform="matrix(1,0,0,1,0,0)" opacity="1" style="display: block;">
            <g opacity="1" transform="matrix(1,0,0,1,0,0)">
                <path fill="rgb(0,0,0)" fill-opacity="1"
                      d=" M159.39500427246094,16.690399169921875 C159.39500427246094,16.690399169921875 168.1414031982422,16.690399169921875 168.1414031982422,16.690399169921875 C168.1414031982422,16.690399169921875 168.1414031982422,25.436800003051758 168.1414031982422,25.436800003051758 C168.1414031982422,25.436800003051758 159.39500427246094,25.436800003051758 159.39500427246094,25.436800003051758 C159.39500427246094,25.436800003051758 159.39500427246094,16.690399169921875 159.39500427246094,16.690399169921875z"></path>
            </g>
        </g>
        <g transform="matrix(1,0,0,1,0,0)" opacity="1" style="display: block;">
            <g opacity="1" transform="matrix(1,0,0,1,0,0)">
                <path fill="rgb(0,0,0)" fill-opacity="1"
                      d=" M75.32230377197266,0 C75.32230377197266,0 84.0687026977539,0 84.0687026977539,0 C84.0687026977539,0 84.0687026977539,8.746399879455566 84.0687026977539,8.746399879455566 C84.0687026977539,8.746399879455566 75.32230377197266,8.746399879455566 75.32230377197266,8.746399879455566 C75.32230377197266,8.746399879455566 75.32230377197266,0 75.32230377197266,0z"></path>
            </g>
        </g>
        <g transform="matrix(1,0,0,1,0,0)" opacity="1" style="display: block;">
            <g opacity="1" transform="matrix(1,0,0,1,0,0)">
                <path fill="rgb(0,0,0)" fill-opacity="1"
                      d=" M109.0510025024414,0 C109.0510025024414,0 117.79740142822266,0 117.79740142822266,0 C117.79740142822266,0 117.79740142822266,8.746399879455566 117.79740142822266,8.746399879455566 C117.79740142822266,8.746399879455566 109.0510025024414,8.746399879455566 109.0510025024414,8.746399879455566 C109.0510025024414,8.746399879455566 109.0510025024414,0 109.0510025024414,0z"></path>
            </g>
        </g>
        <g transform="matrix(1,0,0,1,0,0)" opacity="1" style="display: block;">
            <g opacity="1" transform="matrix(1,0,0,1,0,0)">
                <path fill="rgb(0,0,0)" fill-opacity="1"
                      d=" M142.75,0 C142.75,0 151.49639892578125,0 151.49639892578125,0 C151.49639892578125,0 151.49639892578125,8.746399879455566 151.49639892578125,8.746399879455566 C151.49639892578125,8.746399879455566 142.75,8.746399879455566 142.75,8.746399879455566 C142.75,8.746399879455566 142.75,0 142.75,0z"></path>
            </g>
        </g>
        <g transform="matrix(1,0,0,1,0,0)" opacity="1" style="display: block;">
            <g opacity="1" transform="matrix(1,0,0,1,0,0)">
                <path fill="rgb(0,0,0)" fill-opacity="1"
                      d=" M126.01799774169922,0 C126.01799774169922,0 134.764404296875,0 134.764404296875,0 C134.764404296875,0 134.764404296875,8.746399879455566 134.764404296875,8.746399879455566 C134.764404296875,8.746399879455566 126.01799774169922,8.746399879455566 126.01799774169922,8.746399879455566 C126.01799774169922,8.746399879455566 126.01799774169922,0 126.01799774169922,0z"></path>
            </g>
        </g>
        <g transform="matrix(1,0,0,1,0,0)" opacity="1" style="display: block;">
            <g opacity="1" transform="matrix(1,0,0,1,0,0)">
                <path fill="rgb(0,0,0)" fill-opacity="1"
                      d=" M92.05470275878906,0 C92.05470275878906,0 100.80110168457031,0 100.80110168457031,0 C100.80110168457031,0 100.80110168457031,8.746399879455566 100.80110168457031,8.746399879455566 C100.80110168457031,8.746399879455566 92.05470275878906,8.746399879455566 92.05470275878906,8.746399879455566 C92.05470275878906,8.746399879455566 92.05470275878906,0 92.05470275878906,0z"></path>
            </g>
        </g>
    </g>
</svg>
