<svg xmlns="http://www.w3.org/2000/svg" xmlns:xlink="http://www.w3.org/1999/xlink" viewBox="0 0 298 302" width="298" height="302" preserveAspectRatio="xMidYMid meet" style="width: 100%; height: 100%; content-visibility: visible;"><defs><clipPath id="__lottie_element_6129"><rect width="298" height="302" x="0" y="0"></rect></clipPath></defs><g clip-path="url(#__lottie_element_6129)"><g transform="matrix(1,0,0,1,0,0)" opacity="1" style="display: block;"><g opacity="1" transform="matrix(1,0,0,1,0,0)"><path fill-opacity="1" d=" M161.593994140625,252.75900268554688 C161.593994140625,252.75900268554688 152.83290100097656,252.75900268554688 152.83290100097656,252.75900268554688 C152.83290100097656,252.75900268554688 152.83290100097656,243.9980010986328 152.83290100097656,243.9980010986328 C152.83290100097656,243.9980010986328 161.593994140625,243.9980010986328 161.593994140625,243.9980010986328 C161.593994140625,243.9980010986328 161.593994140625,252.75900268554688 161.593994140625,252.75900268554688z"></path></g></g><g transform="matrix(1,0,0,1,0,0)" opacity="1" style="display: block;"><g opacity="1" transform="matrix(1,0,0,1,0,0)"><path fill-opacity="1" d=" M144.83200073242188,252.75900268554688 C144.83200073242188,252.75900268554688 136.0709991455078,252.75900268554688 136.0709991455078,252.75900268554688 C136.0709991455078,252.75900268554688 136.0709991455078,243.9980010986328 136.0709991455078,243.9980010986328 C136.0709991455078,243.9980010986328 144.83200073242188,243.9980010986328 144.83200073242188,243.9980010986328 C144.83200073242188,243.9980010986328 144.83200073242188,252.75900268554688 144.83200073242188,252.75900268554688z"></path></g></g><g transform="matrix(1,0,0,1,0,0)" opacity="1" style="display: block;"><g opacity="1" transform="matrix(1,0,0,1,0,0)"><path fill-opacity="1" d=" M161.593994140625,235.9980010986328 C161.593994140625,235.9980010986328 152.83290100097656,235.9980010986328 152.83290100097656,235.9980010986328 C152.83290100097656,235.9980010986328 152.83290100097656,227.23699951171875 152.83290100097656,227.23699951171875 C152.83290100097656,227.23699951171875 161.593994140625,227.23699951171875 161.593994140625,227.23699951171875 C161.593994140625,227.23699951171875 161.593994140625,235.9980010986328 161.593994140625,235.9980010986328z"></path></g></g><g transform="matrix(1,0,0,1,0,0)" opacity="1" style="display: block;"><g opacity="1" transform="matrix(1,0,0,1,0,0)"><path fill-opacity="1" d=" M144.83200073242188,235.9980010986328 C144.83200073242188,235.9980010986328 136.0709991455078,235.9980010986328 136.0709991455078,235.9980010986328 C136.0709991455078,235.9980010986328 136.0709991455078,227.23699951171875 136.0709991455078,227.23699951171875 C136.0709991455078,227.23699951171875 144.83200073242188,227.23699951171875 144.83200073242188,227.23699951171875 C144.83200073242188,227.23699951171875 144.83200073242188,235.9980010986328 144.83200073242188,235.9980010986328z"></path></g></g><g transform="matrix(1,0,0,1,0,0)" opacity="1" style="display: block;"><g opacity="1" transform="matrix(1,0,0,1,0,0)"><path fill-opacity="1" d=" M178.35499572753906,219.2209930419922 C178.35499572753906,219.2209930419922 169.593994140625,219.2209930419922 169.593994140625,219.2209930419922 C169.593994140625,219.2209930419922 169.593994140625,210.45989990234375 169.593994140625,210.45989990234375 C169.593994140625,210.45989990234375 178.35499572753906,210.45989990234375 178.35499572753906,210.45989990234375 C178.35499572753906,210.45989990234375 178.35499572753906,219.2209930419922 178.35499572753906,219.2209930419922z"></path></g></g><g transform="matrix(1,0,0,1,0,0)" opacity="1" style="display: block;"><g opacity="1" transform="matrix(1,0,0,1,0,0)"><path fill-opacity="1" d=" M161.593994140625,219.2209930419922 C161.593994140625,219.2209930419922 152.83290100097656,219.2209930419922 152.83290100097656,219.2209930419922 C152.83290100097656,219.2209930419922 152.83290100097656,210.45989990234375 152.83290100097656,210.45989990234375 C152.83290100097656,210.45989990234375 161.593994140625,210.45989990234375 161.593994140625,210.45989990234375 C161.593994140625,210.45989990234375 161.593994140625,219.2209930419922 161.593994140625,219.2209930419922z"></path></g></g><g transform="matrix(1,0,0,1,0,0)" opacity="1" style="display: block;"><g opacity="1" transform="matrix(1,0,0,1,0,0)"><path fill-opacity="1" d=" M144.83200073242188,219.2209930419922 C144.83200073242188,219.2209930419922 136.0709991455078,219.2209930419922 136.0709991455078,219.2209930419922 C136.0709991455078,219.2209930419922 136.0709991455078,210.45989990234375 136.0709991455078,210.45989990234375 C136.0709991455078,210.45989990234375 144.83200073242188,210.45989990234375 144.83200073242188,210.45989990234375 C144.83200073242188,210.45989990234375 144.83200073242188,219.2209930419922 144.83200073242188,219.2209930419922z"></path></g></g><g transform="matrix(1,0,0,1,0,0)" opacity="1" style="display: block;"><g opacity="1" transform="matrix(1,0,0,1,0,0)"><path fill-opacity="1" d=" M128.07000732421875,219.2209930419922 C128.07000732421875,219.2209930419922 119.30899810791016,219.2209930419922 119.30899810791016,219.2209930419922 C119.30899810791016,219.2209930419922 119.30899810791016,210.45989990234375 119.30899810791016,210.45989990234375 C119.30899810791016,210.45989990234375 128.07000732421875,210.45989990234375 128.07000732421875,210.45989990234375 C128.07000732421875,210.45989990234375 128.07000732421875,219.2209930419922 128.07000732421875,219.2209930419922z"></path></g></g><g transform="matrix(1,0,0,1,0,0)" opacity="1" style="display: block;"><g opacity="1" transform="matrix(1,0,0,1,0,0)"><path fill-opacity="1" d=" M178.3260040283203,202.4499969482422 C178.3260040283203,202.4499969482422 169.56500244140625,202.4499969482422 169.56500244140625,202.4499969482422 C169.56500244140625,202.4499969482422 169.56500244140625,193.68899536132812 169.56500244140625,193.68899536132812 C169.56500244140625,193.68899536132812 178.3260040283203,193.68899536132812 178.3260040283203,193.68899536132812 C178.3260040283203,193.68899536132812 178.3260040283203,202.4499969482422 178.3260040283203,202.4499969482422z"></path></g></g><g transform="matrix(1,0,0,1,0,0)" opacity="1" style="display: block;"><g opacity="1" transform="matrix(1,0,0,1,0,0)"><path fill-opacity="1" d=" M161.56399536132812,202.4499969482422 C161.56399536132812,202.4499969482422 152.80299377441406,202.4499969482422 152.80299377441406,202.4499969482422 C152.80299377441406,202.4499969482422 152.80299377441406,193.68899536132812 152.80299377441406,193.68899536132812 C152.80299377441406,193.68899536132812 161.56399536132812,193.68899536132812 161.56399536132812,193.68899536132812 C161.56399536132812,193.68899536132812 161.56399536132812,202.4499969482422 161.56399536132812,202.4499969482422z"></path></g></g><g transform="matrix(1,0,0,1,0,0)" opacity="1" style="display: block;"><g opacity="1" transform="matrix(1,0,0,1,0,0)"><path fill-opacity="1" d=" M144.80299377441406,202.4499969482422 C144.80299377441406,202.4499969482422 136.04190063476562,202.4499969482422 136.04190063476562,202.4499969482422 C136.04190063476562,202.4499969482422 136.04190063476562,193.68899536132812 136.04190063476562,193.68899536132812 C136.04190063476562,193.68899536132812 144.80299377441406,193.68899536132812 144.80299377441406,193.68899536132812 C144.80299377441406,193.68899536132812 144.80299377441406,202.4499969482422 144.80299377441406,202.4499969482422z"></path></g></g><g transform="matrix(1,0,0,1,0,0)" opacity="1" style="display: block;"><g opacity="1" transform="matrix(1,0,0,1,0,0)"><path fill-opacity="1" d=" M128.04100036621094,202.4499969482422 C128.04100036621094,202.4499969482422 119.27999877929688,202.4499969482422 119.27999877929688,202.4499969482422 C119.27999877929688,202.4499969482422 119.27999877929688,193.68899536132812 119.27999877929688,193.68899536132812 C119.27999877929688,193.68899536132812 128.04100036621094,193.68899536132812 128.04100036621094,193.68899536132812 C128.04100036621094,193.68899536132812 128.04100036621094,202.4499969482422 128.04100036621094,202.4499969482422z"></path></g></g><g transform="matrix(1,0,0,1,0,0)" opacity="1" style="display: block;"><g opacity="1" transform="matrix(1,0,0,1,0,0)"><path fill-opacity="1" d=" M195.11700439453125,185.67999267578125 C195.11700439453125,185.67999267578125 186.3560028076172,185.67999267578125 186.3560028076172,185.67999267578125 C186.3560028076172,185.67999267578125 186.3560028076172,176.9188995361328 186.3560028076172,176.9188995361328 C186.3560028076172,176.9188995361328 195.11700439453125,176.9188995361328 195.11700439453125,176.9188995361328 C195.11700439453125,176.9188995361328 195.11700439453125,185.67999267578125 195.11700439453125,185.67999267578125z"></path></g></g><g transform="matrix(1,0,0,1,0,0)" opacity="1" style="display: block;"><g opacity="1" transform="matrix(1,0,0,1,0,0)"><path fill-opacity="1" d=" M178.35499572753906,185.67999267578125 C178.35499572753906,185.67999267578125 169.593994140625,185.67999267578125 169.593994140625,185.67999267578125 C169.593994140625,185.67999267578125 169.593994140625,176.9188995361328 169.593994140625,176.9188995361328 C169.593994140625,176.9188995361328 178.35499572753906,176.9188995361328 178.35499572753906,176.9188995361328 C178.35499572753906,176.9188995361328 178.35499572753906,185.67999267578125 178.35499572753906,185.67999267578125z"></path></g></g><g transform="matrix(1,0,0,1,0,0)" opacity="1" style="display: block;"><g opacity="1" transform="matrix(1,0,0,1,0,0)"><path fill-opacity="1" d=" M161.593994140625,185.67999267578125 C161.593994140625,185.67999267578125 152.83290100097656,185.67999267578125 152.83290100097656,185.67999267578125 C152.83290100097656,185.67999267578125 152.83290100097656,176.9188995361328 152.83290100097656,176.9188995361328 C152.83290100097656,176.9188995361328 161.593994140625,176.9188995361328 161.593994140625,176.9188995361328 C161.593994140625,176.9188995361328 161.593994140625,185.67999267578125 161.593994140625,185.67999267578125z"></path></g></g><g transform="matrix(1,0,0,1,0,0)" opacity="1" style="display: block;"><g opacity="1" transform="matrix(1,0,0,1,0,0)"><path fill-opacity="1" d=" M144.83200073242188,185.67999267578125 C144.83200073242188,185.67999267578125 136.0709991455078,185.67999267578125 136.0709991455078,185.67999267578125 C136.0709991455078,185.67999267578125 136.0709991455078,176.9188995361328 136.0709991455078,176.9188995361328 C136.0709991455078,176.9188995361328 144.83200073242188,176.9188995361328 144.83200073242188,176.9188995361328 C144.83200073242188,176.9188995361328 144.83200073242188,185.67999267578125 144.83200073242188,185.67999267578125z"></path></g></g><g transform="matrix(1,0,0,1,0,0)" opacity="1" style="display: block;"><g opacity="1" transform="matrix(1,0,0,1,0,0)"><path fill-opacity="1" d=" M128.07000732421875,185.67999267578125 C128.07000732421875,185.67999267578125 119.30899810791016,185.67999267578125 119.30899810791016,185.67999267578125 C119.30899810791016,185.67999267578125 119.30899810791016,176.9188995361328 119.30899810791016,176.9188995361328 C119.30899810791016,176.9188995361328 128.07000732421875,176.9188995361328 128.07000732421875,176.9188995361328 C128.07000732421875,176.9188995361328 128.07000732421875,185.67999267578125 128.07000732421875,185.67999267578125z"></path></g></g><g transform="matrix(1,0,0,1,0,0)" opacity="1" style="display: block;"><g opacity="1" transform="matrix(1,0,0,1,0,0)"><path fill-opacity="1" d=" M111.30899810791016,185.67999267578125 C111.30899810791016,185.67999267578125 102.5479965209961,185.67999267578125 102.5479965209961,185.67999267578125 C102.5479965209961,185.67999267578125 102.5479965209961,176.9188995361328 102.5479965209961,176.9188995361328 C102.5479965209961,176.9188995361328 111.30899810791016,176.9188995361328 111.30899810791016,176.9188995361328 C111.30899810791016,176.9188995361328 111.30899810791016,185.67999267578125 111.30899810791016,185.67999267578125z"></path></g></g><g transform="matrix(1,0,0,1,0,0)" opacity="1" style="display: block;"><g opacity="1" transform="matrix(1,0,0,1,0,0)"><path fill-opacity="1" d=" M228.61099243164062,168.91000366210938 C228.61099243164062,168.91000366210938 219.8498992919922,168.91000366210938 219.8498992919922,168.91000366210938 C219.8498992919922,168.91000366210938 219.8498992919922,160.1490020751953 219.8498992919922,160.1490020751953 C219.8498992919922,160.1490020751953 228.61099243164062,160.1490020751953 228.61099243164062,160.1490020751953 C228.61099243164062,160.1490020751953 228.61099243164062,168.91000366210938 228.61099243164062,168.91000366210938z"></path></g></g><g transform="matrix(1,0,0,1,0,0)" opacity="1" style="display: block;"><g opacity="1" transform="matrix(1,0,0,1,0,0)"><path fill-opacity="1" d=" M211.85000610351562,168.91000366210938 C211.85000610351562,168.91000366210938 203.08900451660156,168.91000366210938 203.08900451660156,168.91000366210938 C203.08900451660156,168.91000366210938 203.08900451660156,160.1490020751953 203.08900451660156,160.1490020751953 C203.08900451660156,160.1490020751953 211.85000610351562,160.1490020751953 211.85000610351562,160.1490020751953 C211.85000610351562,160.1490020751953 211.85000610351562,168.91000366210938 211.85000610351562,168.91000366210938z"></path></g></g><g transform="matrix(1,0,0,1,0,0)" opacity="1" style="display: block;"><g opacity="1" transform="matrix(1,0,0,1,0,0)"><path fill-opacity="1" d=" M195.08799743652344,168.91000366210938 C195.08799743652344,168.91000366210938 186.32699584960938,168.91000366210938 186.32699584960938,168.91000366210938 C186.32699584960938,168.91000366210938 186.32699584960938,160.1490020751953 186.32699584960938,160.1490020751953 C186.32699584960938,160.1490020751953 195.08799743652344,160.1490020751953 195.08799743652344,160.1490020751953 C195.08799743652344,160.1490020751953 195.08799743652344,168.91000366210938 195.08799743652344,168.91000366210938z"></path></g></g><g transform="matrix(1,0,0,1,0,0)" opacity="1" style="display: block;"><g opacity="1" transform="matrix(1,0,0,1,0,0)"><path fill-opacity="1" d=" M178.3260040283203,168.91000366210938 C178.3260040283203,168.91000366210938 169.56500244140625,168.91000366210938 169.56500244140625,168.91000366210938 C169.56500244140625,168.91000366210938 169.56500244140625,160.1490020751953 169.56500244140625,160.1490020751953 C169.56500244140625,160.1490020751953 178.3260040283203,160.1490020751953 178.3260040283203,160.1490020751953 C178.3260040283203,160.1490020751953 178.3260040283203,168.91000366210938 178.3260040283203,168.91000366210938z"></path></g></g><g transform="matrix(1,0,0,1,0,0)" opacity="1" style="display: block;"><g opacity="1" transform="matrix(1,0,0,1,0,0)"><path fill-opacity="1" d=" M161.56399536132812,168.91000366210938 C161.56399536132812,168.91000366210938 152.80299377441406,168.91000366210938 152.80299377441406,168.91000366210938 C152.80299377441406,168.91000366210938 152.80299377441406,160.1490020751953 152.80299377441406,160.1490020751953 C152.80299377441406,160.1490020751953 161.56399536132812,160.1490020751953 161.56399536132812,160.1490020751953 C161.56399536132812,160.1490020751953 161.56399536132812,168.91000366210938 161.56399536132812,168.91000366210938z"></path></g></g><g transform="matrix(1,0,0,1,0,0)" opacity="1" style="display: block;"><g opacity="1" transform="matrix(1,0,0,1,0,0)"><path fill-opacity="1" d=" M144.80299377441406,168.91000366210938 C144.80299377441406,168.91000366210938 136.04190063476562,168.91000366210938 136.04190063476562,168.91000366210938 C136.04190063476562,168.91000366210938 136.04190063476562,160.1490020751953 136.04190063476562,160.1490020751953 C136.04190063476562,160.1490020751953 144.80299377441406,160.1490020751953 144.80299377441406,160.1490020751953 C144.80299377441406,160.1490020751953 144.80299377441406,168.91000366210938 144.80299377441406,168.91000366210938z"></path></g></g><g transform="matrix(1,0,0,1,0,0)" opacity="1" style="display: block;"><g opacity="1" transform="matrix(1,0,0,1,0,0)"><path fill-opacity="1" d=" M128.04100036621094,168.91000366210938 C128.04100036621094,168.91000366210938 119.27999877929688,168.91000366210938 119.27999877929688,168.91000366210938 C119.27999877929688,168.91000366210938 119.27999877929688,160.1490020751953 119.27999877929688,160.1490020751953 C119.27999877929688,160.1490020751953 128.04100036621094,160.1490020751953 128.04100036621094,160.1490020751953 C128.04100036621094,160.1490020751953 128.04100036621094,168.91000366210938 128.04100036621094,168.91000366210938z"></path></g></g><g transform="matrix(1,0,0,1,0,0)" opacity="1" style="display: block;"><g opacity="1" transform="matrix(1,0,0,1,0,0)"><path fill-opacity="1" d=" M111.27899932861328,168.91000366210938 C111.27899932861328,168.91000366210938 102.51799774169922,168.91000366210938 102.51799774169922,168.91000366210938 C102.51799774169922,168.91000366210938 102.51799774169922,160.1490020751953 102.51799774169922,160.1490020751953 C102.51799774169922,160.1490020751953 111.27899932861328,160.1490020751953 111.27899932861328,160.1490020751953 C111.27899932861328,160.1490020751953 111.27899932861328,168.91000366210938 111.27899932861328,168.91000366210938z"></path></g></g><g transform="matrix(1,0,0,1,0,0)" opacity="1" style="display: block;"><g opacity="1" transform="matrix(1,0,0,1,0,0)"><path fill-opacity="1" d=" M94.5176010131836,168.91000366210938 C94.5176010131836,168.91000366210938 85.75659942626953,168.91000366210938 85.75659942626953,168.91000366210938 C85.75659942626953,168.91000366210938 85.75659942626953,160.1490020751953 85.75659942626953,160.1490020751953 C85.75659942626953,160.1490020751953 94.5176010131836,160.1490020751953 94.5176010131836,160.1490020751953 C94.5176010131836,160.1490020751953 94.5176010131836,168.91000366210938 94.5176010131836,168.91000366210938z"></path></g></g><g transform="matrix(1,0,0,1,0,0)" opacity="1" style="display: block;"><g opacity="1" transform="matrix(1,0,0,1,0,0)"><path fill-opacity="1" d=" M77.75589752197266,168.91000366210938 C77.75589752197266,168.91000366210938 68.99490356445312,168.91000366210938 68.99490356445312,168.91000366210938 C68.99490356445312,168.91000366210938 68.99490356445312,160.1490020751953 68.99490356445312,160.1490020751953 C68.99490356445312,160.1490020751953 77.75589752197266,160.1490020751953 77.75589752197266,160.1490020751953 C77.75589752197266,160.1490020751953 77.75589752197266,168.91000366210938 77.75589752197266,168.91000366210938z"></path></g></g><g transform="matrix(1,0,0,1,0,0)" opacity="1" style="display: block;"><g opacity="1" transform="matrix(1,0,0,1,0,0)"><path fill-opacity="1" d=" M262.16400146484375,152.14100646972656 C262.16400146484375,152.14100646972656 253.4029998779297,152.14100646972656 253.4029998779297,152.14100646972656 C253.4029998779297,152.14100646972656 253.4029998779297,143.3800048828125 253.4029998779297,143.3800048828125 C253.4029998779297,143.3800048828125 262.16400146484375,143.3800048828125 262.16400146484375,143.3800048828125 C262.16400146484375,143.3800048828125 262.16400146484375,152.14100646972656 262.16400146484375,152.14100646972656z"></path></g></g><g transform="matrix(1,0,0,1,0,0)" opacity="1" style="display: block;"><g opacity="1" transform="matrix(1,0,0,1,0,0)"><path fill-opacity="1" d=" M245.40199279785156,152.14100646972656 C245.40199279785156,152.14100646972656 236.64089965820312,152.14100646972656 236.64089965820312,152.14100646972656 C236.64089965820312,152.14100646972656 236.64089965820312,143.3800048828125 236.64089965820312,143.3800048828125 C236.64089965820312,143.3800048828125 245.40199279785156,143.3800048828125 245.40199279785156,143.3800048828125 C245.40199279785156,143.3800048828125 245.40199279785156,152.14100646972656 245.40199279785156,152.14100646972656z"></path></g></g><g transform="matrix(1,0,0,1,0,0)" opacity="1" style="display: block;"><g opacity="1" transform="matrix(1,0,0,1,0,0)"><path fill-opacity="1" d=" M228.64100646972656,152.14100646972656 C228.64100646972656,152.14100646972656 219.8800048828125,152.14100646972656 219.8800048828125,152.14100646972656 C219.8800048828125,152.14100646972656 219.8800048828125,143.3800048828125 219.8800048828125,143.3800048828125 C219.8800048828125,143.3800048828125 228.64100646972656,143.3800048828125 228.64100646972656,143.3800048828125 C228.64100646972656,143.3800048828125 228.64100646972656,152.14100646972656 228.64100646972656,152.14100646972656z"></path></g></g><g transform="matrix(1,0,0,1,0,0)" opacity="1" style="display: block;"><g opacity="1" transform="matrix(1,0,0,1,0,0)"><path fill-opacity="1" d=" M211.87899780273438,152.14100646972656 C211.87899780273438,152.14100646972656 203.1179962158203,152.14100646972656 203.1179962158203,152.14100646972656 C203.1179962158203,152.14100646972656 203.1179962158203,143.3800048828125 203.1179962158203,143.3800048828125 C203.1179962158203,143.3800048828125 211.87899780273438,143.3800048828125 211.87899780273438,143.3800048828125 C211.87899780273438,143.3800048828125 211.87899780273438,152.14100646972656 211.87899780273438,152.14100646972656z"></path></g></g><g transform="matrix(1,0,0,1,0,0)" opacity="1" style="display: block;"><g opacity="1" transform="matrix(1,0,0,1,0,0)"><path fill-opacity="1" d=" M195.11700439453125,152.14100646972656 C195.11700439453125,152.14100646972656 186.3560028076172,152.14100646972656 186.3560028076172,152.14100646972656 C186.3560028076172,152.14100646972656 186.3560028076172,143.3800048828125 186.3560028076172,143.3800048828125 C186.3560028076172,143.3800048828125 195.11700439453125,143.3800048828125 195.11700439453125,143.3800048828125 C195.11700439453125,143.3800048828125 195.11700439453125,152.14100646972656 195.11700439453125,152.14100646972656z"></path></g></g><g transform="matrix(1,0,0,1,0,0)" opacity="1" style="display: block;"><g opacity="1" transform="matrix(1,0,0,1,0,0)"><path fill-opacity="1" d=" M178.35499572753906,152.14100646972656 C178.35499572753906,152.14100646972656 169.593994140625,152.14100646972656 169.593994140625,152.14100646972656 C169.593994140625,152.14100646972656 169.593994140625,143.3800048828125 169.593994140625,143.3800048828125 C169.593994140625,143.3800048828125 178.35499572753906,143.3800048828125 178.35499572753906,143.3800048828125 C178.35499572753906,143.3800048828125 178.35499572753906,152.14100646972656 178.35499572753906,152.14100646972656z"></path></g></g><g transform="matrix(1,0,0,1,0,0)" opacity="1" style="display: block;"><g opacity="1" transform="matrix(1,0,0,1,0,0)"><path fill-opacity="1" d=" M161.593994140625,152.14100646972656 C161.593994140625,152.14100646972656 152.83290100097656,152.14100646972656 152.83290100097656,152.14100646972656 C152.83290100097656,152.14100646972656 152.83290100097656,143.3800048828125 152.83290100097656,143.3800048828125 C152.83290100097656,143.3800048828125 161.593994140625,143.3800048828125 161.593994140625,143.3800048828125 C161.593994140625,143.3800048828125 161.593994140625,152.14100646972656 161.593994140625,152.14100646972656z"></path></g></g><g transform="matrix(1,0,0,1,0,0)" opacity="1" style="display: block;"><g opacity="1" transform="matrix(1,0,0,1,0,0)"><path fill-opacity="1" d=" M144.83200073242188,152.14100646972656 C144.83200073242188,152.14100646972656 136.0709991455078,152.14100646972656 136.0709991455078,152.14100646972656 C136.0709991455078,152.14100646972656 136.0709991455078,143.3800048828125 136.0709991455078,143.3800048828125 C136.0709991455078,143.3800048828125 144.83200073242188,143.3800048828125 144.83200073242188,143.3800048828125 C144.83200073242188,143.3800048828125 144.83200073242188,152.14100646972656 144.83200073242188,152.14100646972656z"></path></g></g><g transform="matrix(1,0,0,1,0,0)" opacity="1" style="display: block;"><g opacity="1" transform="matrix(1,0,0,1,0,0)"><path fill-opacity="1" d=" M128.07000732421875,152.14100646972656 C128.07000732421875,152.14100646972656 119.30899810791016,152.14100646972656 119.30899810791016,152.14100646972656 C119.30899810791016,152.14100646972656 119.30899810791016,143.3800048828125 119.30899810791016,143.3800048828125 C119.30899810791016,143.3800048828125 128.07000732421875,143.3800048828125 128.07000732421875,143.3800048828125 C128.07000732421875,143.3800048828125 128.07000732421875,152.14100646972656 128.07000732421875,152.14100646972656z"></path></g></g><g transform="matrix(1,0,0,1,0,0)" opacity="1" style="display: block;"><g opacity="1" transform="matrix(1,0,0,1,0,0)"><path fill-opacity="1" d=" M111.30899810791016,152.14100646972656 C111.30899810791016,152.14100646972656 102.5479965209961,152.14100646972656 102.5479965209961,152.14100646972656 C102.5479965209961,152.14100646972656 102.5479965209961,143.3800048828125 102.5479965209961,143.3800048828125 C102.5479965209961,143.3800048828125 111.30899810791016,143.3800048828125 111.30899810791016,143.3800048828125 C111.30899810791016,143.3800048828125 111.30899810791016,152.14100646972656 111.30899810791016,152.14100646972656z"></path></g></g><g transform="matrix(1,0,0,1,0,0)" opacity="1" style="display: block;"><g opacity="1" transform="matrix(1,0,0,1,0,0)"><path fill-opacity="1" d=" M94.5468978881836,152.14100646972656 C94.5468978881836,152.14100646972656 85.78589630126953,152.14100646972656 85.78589630126953,152.14100646972656 C85.78589630126953,152.14100646972656 85.78589630126953,143.3800048828125 85.78589630126953,143.3800048828125 C85.78589630126953,143.3800048828125 94.5468978881836,143.3800048828125 94.5468978881836,143.3800048828125 C94.5468978881836,143.3800048828125 94.5468978881836,152.14100646972656 94.5468978881836,152.14100646972656z"></path></g></g><g transform="matrix(1,0,0,1,0,0)" opacity="1" style="display: block;"><g opacity="1" transform="matrix(1,0,0,1,0,0)"><path fill-opacity="1" d=" M77.78520202636719,152.14100646972656 C77.78520202636719,152.14100646972656 69.02420043945312,152.14100646972656 69.02420043945312,152.14100646972656 C69.02420043945312,152.14100646972656 69.02420043945312,143.3800048828125 69.02420043945312,143.3800048828125 C69.02420043945312,143.3800048828125 77.78520202636719,143.3800048828125 77.78520202636719,143.3800048828125 C77.78520202636719,143.3800048828125 77.78520202636719,152.14100646972656 77.78520202636719,152.14100646972656z"></path></g></g><g transform="matrix(1,0,0,1,0,0)" opacity="1" style="display: block;"><g opacity="1" transform="matrix(1,0,0,1,0,0)"><path fill-opacity="1" d=" M61.023399353027344,152.14100646972656 C61.023399353027344,152.14100646972656 52.26240158081055,152.14100646972656 52.26240158081055,152.14100646972656 C52.26240158081055,152.14100646972656 52.26240158081055,143.3800048828125 52.26240158081055,143.3800048828125 C52.26240158081055,143.3800048828125 61.023399353027344,143.3800048828125 61.023399353027344,143.3800048828125 C61.023399353027344,143.3800048828125 61.023399353027344,152.14100646972656 61.023399353027344,152.14100646972656z"></path></g></g><g transform="matrix(1,0,0,1,0,0)" opacity="1" style="display: block;"><g opacity="1" transform="matrix(1,0,0,1,0,0)"><path fill-opacity="1" d=" M44.26169967651367,152.14100646972656 C44.26169967651367,152.14100646972656 35.500701904296875,152.14100646972656 35.500701904296875,152.14100646972656 C35.500701904296875,152.14100646972656 35.500701904296875,143.3800048828125 35.500701904296875,143.3800048828125 C35.500701904296875,143.3800048828125 44.26169967651367,143.3800048828125 44.26169967651367,143.3800048828125 C44.26169967651367,143.3800048828125 44.26169967651367,152.14100646972656 44.26169967651367,152.14100646972656z"></path></g></g><g transform="matrix(1,0,0,1,0,0)" opacity="1" style="display: block;"><g opacity="1" transform="matrix(1,0,0,1,0,0)"><path fill-opacity="1" d=" M253.40199279785156,126.61799621582031 C253.40199279785156,126.61799621582031 262.1629943847656,126.61799621582031 262.1629943847656,126.61799621582031 C262.1629943847656,126.61799621582031 262.1629943847656,135.37899780273438 262.1629943847656,135.37899780273438 C262.1629943847656,135.37899780273438 253.40199279785156,135.37899780273438 253.40199279785156,135.37899780273438 C253.40199279785156,135.37899780273438 253.40199279785156,126.61799621582031 253.40199279785156,126.61799621582031z"></path></g></g><g transform="matrix(1,0,0,1,0,0)" opacity="1" style="display: block;"><g opacity="1" transform="matrix(1,0,0,1,0,0)"><path fill-opacity="1" d=" M236.64100646972656,126.61799621582031 C236.64100646972656,126.61799621582031 245.40199279785156,126.61799621582031 245.40199279785156,126.61799621582031 C245.40199279785156,126.61799621582031 245.40199279785156,135.37899780273438 245.40199279785156,135.37899780273438 C245.40199279785156,135.37899780273438 236.64100646972656,135.37899780273438 236.64100646972656,135.37899780273438 C236.64100646972656,135.37899780273438 236.64100646972656,126.61799621582031 236.64100646972656,126.61799621582031z"></path></g></g><g transform="matrix(1,0,0,1,0,0)" opacity="1" style="display: block;"><g opacity="1" transform="matrix(1,0,0,1,0,0)"><path fill-opacity="1" d=" M219.87899780273438,126.61799621582031 C219.87899780273438,126.61799621582031 228.63999938964844,126.61799621582031 228.63999938964844,126.61799621582031 C228.63999938964844,126.61799621582031 228.63999938964844,135.37899780273438 228.63999938964844,135.37899780273438 C228.63999938964844,135.37899780273438 219.87899780273438,135.37899780273438 219.87899780273438,135.37899780273438 C219.87899780273438,135.37899780273438 219.87899780273438,126.61799621582031 219.87899780273438,126.61799621582031z"></path></g></g><g transform="matrix(1,0,0,1,0,0)" opacity="1" style="display: block;"><g opacity="1" transform="matrix(1,0,0,1,0,0)"><path fill-opacity="1" d=" M203.11700439453125,126.61799621582031 C203.11700439453125,126.61799621582031 211.8780059814453,126.61799621582031 211.8780059814453,126.61799621582031 C211.8780059814453,126.61799621582031 211.8780059814453,135.37899780273438 211.8780059814453,135.37899780273438 C211.8780059814453,135.37899780273438 203.11700439453125,135.37899780273438 203.11700439453125,135.37899780273438 C203.11700439453125,135.37899780273438 203.11700439453125,126.61799621582031 203.11700439453125,126.61799621582031z"></path></g></g><g transform="matrix(1,0,0,1,0,0)" opacity="1" style="display: block;"><g opacity="1" transform="matrix(1,0,0,1,0,0)"><path fill-opacity="1" d=" M186.35499572753906,126.61799621582031 C186.35499572753906,126.61799621582031 195.11599731445312,126.61799621582031 195.11599731445312,126.61799621582031 C195.11599731445312,126.61799621582031 195.11599731445312,135.37899780273438 195.11599731445312,135.37899780273438 C195.11599731445312,135.37899780273438 186.35499572753906,135.37899780273438 186.35499572753906,135.37899780273438 C186.35499572753906,135.37899780273438 186.35499572753906,126.61799621582031 186.35499572753906,126.61799621582031z"></path></g></g><g transform="matrix(1,0,0,1,0,0)" opacity="1" style="display: block;"><g opacity="1" transform="matrix(1,0,0,1,0,0)"><path fill-opacity="1" d=" M169.593994140625,126.61799621582031 C169.593994140625,126.61799621582031 178.35499572753906,126.61799621582031 178.35499572753906,126.61799621582031 C178.35499572753906,126.61799621582031 178.35499572753906,135.37899780273438 178.35499572753906,135.37899780273438 C178.35499572753906,135.37899780273438 169.593994140625,135.37899780273438 169.593994140625,135.37899780273438 C169.593994140625,135.37899780273438 169.593994140625,126.61799621582031 169.593994140625,126.61799621582031z"></path></g></g><g transform="matrix(1,0,0,1,0,0)" opacity="1" style="display: block;"><g opacity="1" transform="matrix(1,0,0,1,0,0)"><path fill-opacity="1" d=" M152.83200073242188,126.61799621582031 C152.83200073242188,126.61799621582031 161.59300231933594,126.61799621582031 161.59300231933594,126.61799621582031 C161.59300231933594,126.61799621582031 161.59300231933594,135.37899780273438 161.59300231933594,135.37899780273438 C161.59300231933594,135.37899780273438 152.83200073242188,135.37899780273438 152.83200073242188,135.37899780273438 C152.83200073242188,135.37899780273438 152.83200073242188,126.61799621582031 152.83200073242188,126.61799621582031z"></path></g></g><g transform="matrix(1,0,0,1,0,0)" opacity="1" style="display: block;"><g opacity="1" transform="matrix(1,0,0,1,0,0)"><path fill-opacity="1" d=" M136.07000732421875,126.61799621582031 C136.07000732421875,126.61799621582031 144.83099365234375,126.61799621582031 144.83099365234375,126.61799621582031 C144.83099365234375,126.61799621582031 144.83099365234375,135.37899780273438 144.83099365234375,135.37899780273438 C144.83099365234375,135.37899780273438 136.07000732421875,135.37899780273438 136.07000732421875,135.37899780273438 C136.07000732421875,135.37899780273438 136.07000732421875,126.61799621582031 136.07000732421875,126.61799621582031z"></path></g></g><g transform="matrix(1,0,0,1,0,0)" opacity="1" style="display: block;"><g opacity="1" transform="matrix(1,0,0,1,0,0)"><path fill-opacity="1" d=" M119.30899810791016,126.61799621582031 C119.30899810791016,126.61799621582031 128.07000732421875,126.61799621582031 128.07000732421875,126.61799621582031 C128.07000732421875,126.61799621582031 128.07000732421875,135.37899780273438 128.07000732421875,135.37899780273438 C128.07000732421875,135.37899780273438 119.30899810791016,135.37899780273438 119.30899810791016,135.37899780273438 C119.30899810791016,135.37899780273438 119.30899810791016,126.61799621582031 119.30899810791016,126.61799621582031z"></path></g></g><g transform="matrix(1,0,0,1,0,0)" opacity="1" style="display: block;"><g opacity="1" transform="matrix(1,0,0,1,0,0)"><path fill-opacity="1" d=" M102.5469970703125,126.61799621582031 C102.5469970703125,126.61799621582031 111.30799865722656,126.61799621582031 111.30799865722656,126.61799621582031 C111.30799865722656,126.61799621582031 111.30799865722656,135.37899780273438 111.30799865722656,135.37899780273438 C111.30799865722656,135.37899780273438 102.5469970703125,135.37899780273438 102.5469970703125,135.37899780273438 C102.5469970703125,135.37899780273438 102.5469970703125,126.61799621582031 102.5469970703125,126.61799621582031z"></path></g></g><g transform="matrix(1,0,0,1,0,0)" opacity="1" style="display: block;"><g opacity="1" transform="matrix(1,0,0,1,0,0)"><path fill-opacity="1" d=" M85.78520202636719,126.61799621582031 C85.78520202636719,126.61799621582031 94.54620361328125,126.61799621582031 94.54620361328125,126.61799621582031 C94.54620361328125,126.61799621582031 94.54620361328125,135.37899780273438 94.54620361328125,135.37899780273438 C94.54620361328125,135.37899780273438 85.78520202636719,135.37899780273438 85.78520202636719,135.37899780273438 C85.78520202636719,135.37899780273438 85.78520202636719,126.61799621582031 85.78520202636719,126.61799621582031z"></path></g></g><g transform="matrix(1,0,0,1,0,0)" opacity="1" style="display: block;"><g opacity="1" transform="matrix(1,0,0,1,0,0)"><path fill-opacity="1" d=" M69.02339935302734,126.61799621582031 C69.02339935302734,126.61799621582031 77.7844009399414,126.61799621582031 77.7844009399414,126.61799621582031 C77.7844009399414,126.61799621582031 77.7844009399414,135.37899780273438 77.7844009399414,135.37899780273438 C77.7844009399414,135.37899780273438 69.02339935302734,135.37899780273438 69.02339935302734,135.37899780273438 C69.02339935302734,135.37899780273438 69.02339935302734,126.61799621582031 69.02339935302734,126.61799621582031z"></path></g></g><g transform="matrix(1,0,0,1,0,0)" opacity="1" style="display: block;"><g opacity="1" transform="matrix(1,0,0,1,0,0)"><path fill-opacity="1" d=" M52.26169967651367,126.61799621582031 C52.26169967651367,126.61799621582031 61.022701263427734,126.61799621582031 61.022701263427734,126.61799621582031 C61.022701263427734,126.61799621582031 61.022701263427734,135.37899780273438 61.022701263427734,135.37899780273438 C61.022701263427734,135.37899780273438 52.26169967651367,135.37899780273438 52.26169967651367,135.37899780273438 C52.26169967651367,135.37899780273438 52.26169967651367,126.61799621582031 52.26169967651367,126.61799621582031z"></path></g></g><g transform="matrix(1,0,0,1,0,0)" opacity="1" style="display: block;"><g opacity="1" transform="matrix(1,0,0,1,0,0)"><path fill-opacity="1" d=" M35.5,126.61799621582031 C35.5,126.61799621582031 44.26100158691406,126.61799621582031 44.26100158691406,126.61799621582031 C44.26100158691406,126.61799621582031 44.26100158691406,135.37899780273438 44.26100158691406,135.37899780273438 C44.26100158691406,135.37899780273438 35.5,135.37899780273438 35.5,135.37899780273438 C35.5,135.37899780273438 35.5,126.61799621582031 35.5,126.61799621582031z"></path></g></g><g transform="matrix(1,0,0,1,0,0)" opacity="1" style="display: block;"><g opacity="1" transform="matrix(1,0,0,1,0,0)"><path fill-opacity="1" d=" M219.9080047607422,109.8489990234375 C219.9080047607422,109.8489990234375 228.66900634765625,109.8489990234375 228.66900634765625,109.8489990234375 C228.66900634765625,109.8489990234375 228.66900634765625,118.61000061035156 228.66900634765625,118.61000061035156 C228.66900634765625,118.61000061035156 219.9080047607422,118.61000061035156 219.9080047607422,118.61000061035156 C219.9080047607422,118.61000061035156 219.9080047607422,109.8489990234375 219.9080047607422,109.8489990234375z"></path></g></g><g transform="matrix(1,0,0,1,0,0)" opacity="1" style="display: block;"><g opacity="1" transform="matrix(1,0,0,1,0,0)"><path fill-opacity="1" d=" M203.14599609375,109.8489990234375 C203.14599609375,109.8489990234375 211.90699768066406,109.8489990234375 211.90699768066406,109.8489990234375 C211.90699768066406,109.8489990234375 211.90699768066406,118.61000061035156 211.90699768066406,118.61000061035156 C211.90699768066406,118.61000061035156 203.14599609375,118.61000061035156 203.14599609375,118.61000061035156 C203.14599609375,118.61000061035156 203.14599609375,109.8489990234375 203.14599609375,109.8489990234375z"></path></g></g><g transform="matrix(1,0,0,1,0,0)" opacity="1" style="display: block;"><g opacity="1" transform="matrix(1,0,0,1,0,0)"><path fill-opacity="1" d=" M186.38499450683594,109.8489990234375 C186.38499450683594,109.8489990234375 195.14599609375,109.8489990234375 195.14599609375,109.8489990234375 C195.14599609375,109.8489990234375 195.14599609375,118.61000061035156 195.14599609375,118.61000061035156 C195.14599609375,118.61000061035156 186.38499450683594,118.61000061035156 186.38499450683594,118.61000061035156 C186.38499450683594,118.61000061035156 186.38499450683594,109.8489990234375 186.38499450683594,109.8489990234375z"></path></g></g><g transform="matrix(1,0,0,1,0,0)" opacity="1" style="display: block;"><g opacity="1" transform="matrix(1,0,0,1,0,0)"><path fill-opacity="1" d=" M169.6230010986328,109.8489990234375 C169.6230010986328,109.8489990234375 178.38400268554688,109.8489990234375 178.38400268554688,109.8489990234375 C178.38400268554688,109.8489990234375 178.38400268554688,118.61000061035156 178.38400268554688,118.61000061035156 C178.38400268554688,118.61000061035156 169.6230010986328,118.61000061035156 169.6230010986328,118.61000061035156 C169.6230010986328,118.61000061035156 169.6230010986328,109.8489990234375 169.6230010986328,109.8489990234375z"></path></g></g><g transform="matrix(1,0,0,1,0,0)" opacity="1" style="display: block;"><g opacity="1" transform="matrix(1,0,0,1,0,0)"><path fill-opacity="1" d=" M152.86099243164062,109.8489990234375 C152.86099243164062,109.8489990234375 161.6219940185547,109.8489990234375 161.6219940185547,109.8489990234375 C161.6219940185547,109.8489990234375 161.6219940185547,118.61000061035156 161.6219940185547,118.61000061035156 C161.6219940185547,118.61000061035156 152.86099243164062,118.61000061035156 152.86099243164062,118.61000061035156 C152.86099243164062,118.61000061035156 152.86099243164062,109.8489990234375 152.86099243164062,109.8489990234375z"></path></g></g><g transform="matrix(1,0,0,1,0,0)" opacity="1" style="display: block;"><g opacity="1" transform="matrix(1,0,0,1,0,0)"><path fill-opacity="1" d=" M136.10000610351562,109.8489990234375 C136.10000610351562,109.8489990234375 144.86099243164062,109.8489990234375 144.86099243164062,109.8489990234375 C144.86099243164062,109.8489990234375 144.86099243164062,118.61000061035156 144.86099243164062,118.61000061035156 C144.86099243164062,118.61000061035156 136.10000610351562,118.61000061035156 136.10000610351562,118.61000061035156 C136.10000610351562,118.61000061035156 136.10000610351562,109.8489990234375 136.10000610351562,109.8489990234375z"></path></g></g><g transform="matrix(1,0,0,1,0,0)" opacity="1" style="display: block;"><g opacity="1" transform="matrix(1,0,0,1,0,0)"><path fill-opacity="1" d=" M119.33799743652344,109.8489990234375 C119.33799743652344,109.8489990234375 128.0989990234375,109.8489990234375 128.0989990234375,109.8489990234375 C128.0989990234375,109.8489990234375 128.0989990234375,118.61000061035156 128.0989990234375,118.61000061035156 C128.0989990234375,118.61000061035156 119.33799743652344,118.61000061035156 119.33799743652344,118.61000061035156 C119.33799743652344,118.61000061035156 119.33799743652344,109.8489990234375 119.33799743652344,109.8489990234375z"></path></g></g><g transform="matrix(1,0,0,1,0,0)" opacity="1" style="display: block;"><g opacity="1" transform="matrix(1,0,0,1,0,0)"><path fill-opacity="1" d=" M102.57599639892578,109.8489990234375 C102.57599639892578,109.8489990234375 111.33699798583984,109.8489990234375 111.33699798583984,109.8489990234375 C111.33699798583984,109.8489990234375 111.33699798583984,118.61000061035156 111.33699798583984,118.61000061035156 C111.33699798583984,118.61000061035156 102.57599639892578,118.61000061035156 102.57599639892578,118.61000061035156 C102.57599639892578,118.61000061035156 102.57599639892578,109.8489990234375 102.57599639892578,109.8489990234375z"></path></g></g><g transform="matrix(1,0,0,1,0,0)" opacity="1" style="display: block;"><g opacity="1" transform="matrix(1,0,0,1,0,0)"><path fill-opacity="1" d=" M85.81449890136719,109.8489990234375 C85.81449890136719,109.8489990234375 94.57550048828125,109.8489990234375 94.57550048828125,109.8489990234375 C94.57550048828125,109.8489990234375 94.57550048828125,118.61000061035156 94.57550048828125,118.61000061035156 C94.57550048828125,118.61000061035156 85.81449890136719,118.61000061035156 85.81449890136719,118.61000061035156 C85.81449890136719,118.61000061035156 85.81449890136719,109.8489990234375 85.81449890136719,109.8489990234375z"></path></g></g><g transform="matrix(1,0,0,1,0,0)" opacity="1" style="display: block;"><g opacity="1" transform="matrix(1,0,0,1,0,0)"><path fill-opacity="1" d=" M69.05269622802734,109.8489990234375 C69.05269622802734,109.8489990234375 77.8136978149414,109.8489990234375 77.8136978149414,109.8489990234375 C77.8136978149414,109.8489990234375 77.8136978149414,118.61000061035156 77.8136978149414,118.61000061035156 C77.8136978149414,118.61000061035156 69.05269622802734,118.61000061035156 69.05269622802734,118.61000061035156 C69.05269622802734,118.61000061035156 69.05269622802734,109.8489990234375 69.05269622802734,109.8489990234375z"></path></g></g><g transform="matrix(1,0,0,1,0,0)" opacity="1" style="display: block;"><g opacity="1" transform="matrix(1,0,0,1,0,0)"><path fill-opacity="1" d=" M186.35499572753906,93.0791015625 C186.35499572753906,93.0791015625 195.11599731445312,93.0791015625 195.11599731445312,93.0791015625 C195.11599731445312,93.0791015625 195.11599731445312,101.84010314941406 195.11599731445312,101.84010314941406 C195.11599731445312,101.84010314941406 186.35499572753906,101.84010314941406 186.35499572753906,101.84010314941406 C186.35499572753906,101.84010314941406 186.35499572753906,93.0791015625 186.35499572753906,93.0791015625z"></path></g></g><g transform="matrix(1,0,0,1,0,0)" opacity="1" style="display: block;"><g opacity="1" transform="matrix(1,0,0,1,0,0)"><path fill-opacity="1" d=" M169.593994140625,93.0791015625 C169.593994140625,93.0791015625 178.35499572753906,93.0791015625 178.35499572753906,93.0791015625 C178.35499572753906,93.0791015625 178.35499572753906,101.84010314941406 178.35499572753906,101.84010314941406 C178.35499572753906,101.84010314941406 169.593994140625,101.84010314941406 169.593994140625,101.84010314941406 C169.593994140625,101.84010314941406 169.593994140625,93.0791015625 169.593994140625,93.0791015625z"></path></g></g><g transform="matrix(1,0,0,1,0,0)" opacity="1" style="display: block;"><g opacity="1" transform="matrix(1,0,0,1,0,0)"><path fill-opacity="1" d=" M152.83200073242188,93.0791015625 C152.83200073242188,93.0791015625 161.59300231933594,93.0791015625 161.59300231933594,93.0791015625 C161.59300231933594,93.0791015625 161.59300231933594,101.84010314941406 161.59300231933594,101.84010314941406 C161.59300231933594,101.84010314941406 152.83200073242188,101.84010314941406 152.83200073242188,101.84010314941406 C152.83200073242188,101.84010314941406 152.83200073242188,93.0791015625 152.83200073242188,93.0791015625z"></path></g></g><g transform="matrix(1,0,0,1,0,0)" opacity="1" style="display: block;"><g opacity="1" transform="matrix(1,0,0,1,0,0)"><path fill-opacity="1" d=" M136.07000732421875,93.0791015625 C136.07000732421875,93.0791015625 144.83099365234375,93.0791015625 144.83099365234375,93.0791015625 C144.83099365234375,93.0791015625 144.83099365234375,101.84010314941406 144.83099365234375,101.84010314941406 C144.83099365234375,101.84010314941406 136.07000732421875,101.84010314941406 136.07000732421875,101.84010314941406 C136.07000732421875,101.84010314941406 136.07000732421875,93.0791015625 136.07000732421875,93.0791015625z"></path></g></g><g transform="matrix(1,0,0,1,0,0)" opacity="1" style="display: block;"><g opacity="1" transform="matrix(1,0,0,1,0,0)"><path fill-opacity="1" d=" M119.30899810791016,93.0791015625 C119.30899810791016,93.0791015625 128.07000732421875,93.0791015625 128.07000732421875,93.0791015625 C128.07000732421875,93.0791015625 128.07000732421875,101.84010314941406 128.07000732421875,101.84010314941406 C128.07000732421875,101.84010314941406 119.30899810791016,101.84010314941406 119.30899810791016,101.84010314941406 C119.30899810791016,101.84010314941406 119.30899810791016,93.0791015625 119.30899810791016,93.0791015625z"></path></g></g><g transform="matrix(1,0,0,1,0,0)" opacity="1" style="display: block;"><g opacity="1" transform="matrix(1,0,0,1,0,0)"><path fill-opacity="1" d=" M102.5469970703125,93.0791015625 C102.5469970703125,93.0791015625 111.30799865722656,93.0791015625 111.30799865722656,93.0791015625 C111.30799865722656,93.0791015625 111.30799865722656,101.84010314941406 111.30799865722656,101.84010314941406 C111.30799865722656,101.84010314941406 102.5469970703125,101.84010314941406 102.5469970703125,101.84010314941406 C102.5469970703125,101.84010314941406 102.5469970703125,93.0791015625 102.5469970703125,93.0791015625z"></path></g></g><g transform="matrix(1,0,0,1,0,0)" opacity="1" style="display: block;"><g opacity="1" transform="matrix(1,0,0,1,0,0)"><path fill-opacity="1" d=" M169.6230010986328,76.30860137939453 C169.6230010986328,76.30860137939453 178.38400268554688,76.30860137939453 178.38400268554688,76.30860137939453 C178.38400268554688,76.30860137939453 178.38400268554688,85.0696029663086 178.38400268554688,85.0696029663086 C178.38400268554688,85.0696029663086 169.6230010986328,85.0696029663086 169.6230010986328,85.0696029663086 C169.6230010986328,85.0696029663086 169.6230010986328,76.30860137939453 169.6230010986328,76.30860137939453z"></path></g></g><g transform="matrix(1,0,0,1,0,0)" opacity="1" style="display: block;"><g opacity="1" transform="matrix(1,0,0,1,0,0)"><path fill-opacity="1" d=" M152.86099243164062,76.30860137939453 C152.86099243164062,76.30860137939453 161.6219940185547,76.30860137939453 161.6219940185547,76.30860137939453 C161.6219940185547,76.30860137939453 161.6219940185547,85.0696029663086 161.6219940185547,85.0696029663086 C161.6219940185547,85.0696029663086 152.86099243164062,85.0696029663086 152.86099243164062,85.0696029663086 C152.86099243164062,85.0696029663086 152.86099243164062,76.30860137939453 152.86099243164062,76.30860137939453z"></path></g></g><g transform="matrix(1,0,0,1,0,0)" opacity="1" style="display: block;"><g opacity="1" transform="matrix(1,0,0,1,0,0)"><path fill-opacity="1" d=" M136.10000610351562,76.30860137939453 C136.10000610351562,76.30860137939453 144.86099243164062,76.30860137939453 144.86099243164062,76.30860137939453 C144.86099243164062,76.30860137939453 144.86099243164062,85.0696029663086 144.86099243164062,85.0696029663086 C144.86099243164062,85.0696029663086 136.10000610351562,85.0696029663086 136.10000610351562,85.0696029663086 C136.10000610351562,85.0696029663086 136.10000610351562,76.30860137939453 136.10000610351562,76.30860137939453z"></path></g></g><g transform="matrix(1,0,0,1,0,0)" opacity="1" style="display: block;"><g opacity="1" transform="matrix(1,0,0,1,0,0)"><path fill-opacity="1" d=" M119.33799743652344,76.30860137939453 C119.33799743652344,76.30860137939453 128.0989990234375,76.30860137939453 128.0989990234375,76.30860137939453 C128.0989990234375,76.30860137939453 128.0989990234375,85.0696029663086 128.0989990234375,85.0696029663086 C128.0989990234375,85.0696029663086 119.33799743652344,85.0696029663086 119.33799743652344,85.0696029663086 C119.33799743652344,85.0696029663086 119.33799743652344,76.30860137939453 119.33799743652344,76.30860137939453z"></path></g></g><g transform="matrix(1,0,0,1,0,0)" opacity="1" style="display: block;"><g opacity="1" transform="matrix(1,0,0,1,0,0)"><path fill-opacity="1" d=" M169.593994140625,59.53810119628906 C169.593994140625,59.53810119628906 178.35499572753906,59.53810119628906 178.35499572753906,59.53810119628906 C178.35499572753906,59.53810119628906 178.35499572753906,68.29910278320312 178.35499572753906,68.29910278320312 C178.35499572753906,68.29910278320312 169.593994140625,68.29910278320312 169.593994140625,68.29910278320312 C169.593994140625,68.29910278320312 169.593994140625,59.53810119628906 169.593994140625,59.53810119628906z"></path></g></g><g transform="matrix(1,0,0,1,0,0)" opacity="1" style="display: block;"><g opacity="1" transform="matrix(1,0,0,1,0,0)"><path fill-opacity="1" d=" M152.83200073242188,59.53810119628906 C152.83200073242188,59.53810119628906 161.59300231933594,59.53810119628906 161.59300231933594,59.53810119628906 C161.59300231933594,59.53810119628906 161.59300231933594,68.29910278320312 161.59300231933594,68.29910278320312 C161.59300231933594,68.29910278320312 152.83200073242188,68.29910278320312 152.83200073242188,68.29910278320312 C152.83200073242188,68.29910278320312 152.83200073242188,59.53810119628906 152.83200073242188,59.53810119628906z"></path></g></g><g transform="matrix(1,0,0,1,0,0)" opacity="1" style="display: block;"><g opacity="1" transform="matrix(1,0,0,1,0,0)"><path fill-opacity="1" d=" M136.07000732421875,59.53810119628906 C136.07000732421875,59.53810119628906 144.83099365234375,59.53810119628906 144.83099365234375,59.53810119628906 C144.83099365234375,59.53810119628906 144.83099365234375,68.29910278320312 144.83099365234375,68.29910278320312 C144.83099365234375,68.29910278320312 136.07000732421875,68.29910278320312 136.07000732421875,68.29910278320312 C136.07000732421875,68.29910278320312 136.07000732421875,59.53810119628906 136.07000732421875,59.53810119628906z"></path></g></g><g transform="matrix(1,0,0,1,0,0)" opacity="1" style="display: block;"><g opacity="1" transform="matrix(1,0,0,1,0,0)"><path fill-opacity="1" d=" M119.30899810791016,59.53810119628906 C119.30899810791016,59.53810119628906 128.07000732421875,59.53810119628906 128.07000732421875,59.53810119628906 C128.07000732421875,59.53810119628906 128.07000732421875,68.29910278320312 128.07000732421875,68.29910278320312 C128.07000732421875,68.29910278320312 119.30899810791016,68.29910278320312 119.30899810791016,68.29910278320312 C119.30899810791016,68.29910278320312 119.30899810791016,59.53810119628906 119.30899810791016,59.53810119628906z"></path></g></g><g transform="matrix(1,0,0,1,0,0)" opacity="1" style="display: block;"><g opacity="1" transform="matrix(1,0,0,1,0,0)"><path fill-opacity="1" d=" M152.83200073242188,42.76070022583008 C152.83200073242188,42.76070022583008 161.59300231933594,42.76070022583008 161.59300231933594,42.76070022583008 C161.59300231933594,42.76070022583008 161.59300231933594,51.52170181274414 161.59300231933594,51.52170181274414 C161.59300231933594,51.52170181274414 152.83200073242188,51.52170181274414 152.83200073242188,51.52170181274414 C152.83200073242188,51.52170181274414 152.83200073242188,42.76070022583008 152.83200073242188,42.76070022583008z"></path></g></g><g transform="matrix(1,0,0,1,0,0)" opacity="1" style="display: block;"><g opacity="1" transform="matrix(1,0,0,1,0,0)"><path fill-opacity="1" d=" M136.07000732421875,42.76070022583008 C136.07000732421875,42.76070022583008 144.83099365234375,42.76070022583008 144.83099365234375,42.76070022583008 C144.83099365234375,42.76070022583008 144.83099365234375,51.52170181274414 144.83099365234375,51.52170181274414 C144.83099365234375,51.52170181274414 136.07000732421875,51.52170181274414 136.07000732421875,51.52170181274414 C136.07000732421875,51.52170181274414 136.07000732421875,42.76070022583008 136.07000732421875,42.76070022583008z"></path></g></g><g transform="matrix(1,0,0,1,0,0)" opacity="1" style="display: block;"><g opacity="1" transform="matrix(1,0,0,1,0,0)"><path fill-opacity="1" d=" M152.83200073242188,26 C152.83200073242188,26 161.59300231933594,26 161.59300231933594,26 C161.59300231933594,26 161.59300231933594,34.76100158691406 161.59300231933594,34.76100158691406 C161.59300231933594,34.76100158691406 152.83200073242188,34.76100158691406 152.83200073242188,34.76100158691406 C152.83200073242188,34.76100158691406 152.83200073242188,26 152.83200073242188,26z"></path></g></g><g transform="matrix(1,0,0,1,0,0)" opacity="1" style="display: block;"><g opacity="1" transform="matrix(1,0,0,1,0,0)"><path fill-opacity="1" d=" M136.07000732421875,26 C136.07000732421875,26 144.83099365234375,26 144.83099365234375,26 C144.83099365234375,26 144.83099365234375,34.76100158691406 144.83099365234375,34.76100158691406 C144.83099365234375,34.76100158691406 136.07000732421875,34.76100158691406 136.07000732421875,34.76100158691406 C136.07000732421875,34.76100158691406 136.07000732421875,26 136.07000732421875,26z"></path></g></g></g></svg>