<svg xmlns="http://www.w3.org/2000/svg" viewBox="0 0 226 226" width="226"
     height="226" preserveAspectRatio="xMidYMid meet"
     style="width: 100%; height: 100%; transform: translate3d(0px, 0px, 0px); content-visibility: visible;">
    <defs>
        <clipPath id="__lottie_element_10240">
            <rect width="226" height="226" x="0" y="0"></rect>
        </clipPath>
    </defs>
    <g clip-path="url(#__lottie_element_10240)">
        <g transform="matrix(1,0,0,1,0,0)" opacity="1" style="display: block;">
            <g opacity="1" transform="matrix(1,0,0,1,0,0)">
                <path fill="rgb(0,0,0)" fill-opacity="1"
                      d=" M100.56400299072266,226 C100.56400299072266,226 91.81549835205078,226 91.81549835205078,226 C91.81549835205078,226 91.81549835205078,217.25149536132812 91.81549835205078,217.25149536132812 C91.81549835205078,217.25149536132812 100.56400299072266,217.25149536132812 100.56400299072266,217.25149536132812 C100.56400299072266,217.25149536132812 100.56400299072266,226 100.56400299072266,226z"></path>
            </g>
        </g>
        <g transform="matrix(1,0,0,1,0,0)" opacity="1" style="display: block;">
            <g opacity="1" transform="matrix(1,0,0,1,0,0)">
                <path fill="rgb(0,0,0)" fill-opacity="1"
                      d=" M100.56400299072266,209.29400634765625 C100.56400299072266,209.29400634765625 91.81549835205078,209.29400634765625 91.81549835205078,209.29400634765625 C91.81549835205078,209.29400634765625 91.81549835205078,200.54550170898438 91.81549835205078,200.54550170898438 C91.81549835205078,200.54550170898438 100.56400299072266,200.54550170898438 100.56400299072266,200.54550170898438 C100.56400299072266,200.54550170898438 100.56400299072266,209.29400634765625 100.56400299072266,209.29400634765625z"></path>
            </g>
        </g>
        <g transform="matrix(1,0,0,1,0,0)" opacity="1" style="display: block;">
            <g opacity="1" transform="matrix(1,0,0,1,0,0)">
                <path fill="rgb(0,0,0)" fill-opacity="1"
                      d=" M108.6969985961914,200.54600524902344 C108.6969985961914,200.54600524902344 117.44550323486328,200.54600524902344 117.44550323486328,200.54600524902344 C117.44550323486328,200.54600524902344 117.44550323486328,209.29449462890625 117.44550323486328,209.29449462890625 C117.44550323486328,209.29449462890625 108.6969985961914,209.29449462890625 108.6969985961914,209.29449462890625 C108.6969985961914,209.29449462890625 108.6969985961914,200.54600524902344 108.6969985961914,200.54600524902344z"></path>
            </g>
        </g>
        <g transform="matrix(1,0,0,1,0,0)" opacity="1" style="display: block;">
            <g opacity="1" transform="matrix(1,0,0,1,0,0)">
                <path fill="rgb(0,0,0)" fill-opacity="1"
                      d=" M100.56400299072266,192.58099365234375 C100.56400299072266,192.58099365234375 91.81549835205078,192.58099365234375 91.81549835205078,192.58099365234375 C91.81549835205078,192.58099365234375 91.81549835205078,183.83250427246094 91.81549835205078,183.83250427246094 C91.81549835205078,183.83250427246094 100.56400299072266,183.83250427246094 100.56400299072266,183.83250427246094 C100.56400299072266,183.83250427246094 100.56400299072266,192.58099365234375 100.56400299072266,192.58099365234375z"></path>
            </g>
        </g>
        <g transform="matrix(1,0,0,1,0,0)" opacity="1" style="display: block;">
            <g opacity="1" transform="matrix(1,0,0,1,0,0)">
                <path fill="rgb(0,0,0)" fill-opacity="1"
                      d=" M108.6969985961914,183.83299255371094 C108.6969985961914,183.83299255371094 117.44550323486328,183.83299255371094 117.44550323486328,183.83299255371094 C117.44550323486328,183.83299255371094 117.44550323486328,192.5814971923828 117.44550323486328,192.5814971923828 C117.44550323486328,192.5814971923828 108.6969985961914,192.5814971923828 108.6969985961914,192.5814971923828 C108.6969985961914,192.5814971923828 108.6969985961914,183.83299255371094 108.6969985961914,183.83299255371094z"></path>
            </g>
        </g>
        <g transform="matrix(1,0,0,1,0,0)" opacity="1" style="display: block;">
            <g opacity="1" transform="matrix(1,0,0,1,0,0)">
                <path fill="rgb(0,0,0)" fill-opacity="1"
                      d=" M125.5780029296875,183.83299255371094 C125.5780029296875,183.83299255371094 134.32650756835938,183.83299255371094 134.32650756835938,183.83299255371094 C134.32650756835938,183.83299255371094 134.32650756835938,192.5814971923828 134.32650756835938,192.5814971923828 C134.32650756835938,192.5814971923828 125.5780029296875,192.5814971923828 125.5780029296875,192.5814971923828 C125.5780029296875,192.5814971923828 125.5780029296875,183.83299255371094 125.5780029296875,183.83299255371094z"></path>
            </g>
        </g>
        <g transform="matrix(1,0,0,1,0,0)" opacity="1" style="display: block;">
            <g opacity="1" transform="matrix(1,0,0,1,0,0)">
                <path fill="rgb(0,0,0)" fill-opacity="1"
                      d=" M100.56400299072266,175.8679962158203 C100.56400299072266,175.8679962158203 91.81549835205078,175.8679962158203 91.81549835205078,175.8679962158203 C91.81549835205078,175.8679962158203 91.81549835205078,167.1195068359375 91.81549835205078,167.1195068359375 C91.81549835205078,167.1195068359375 100.56400299072266,167.1195068359375 100.56400299072266,167.1195068359375 C100.56400299072266,167.1195068359375 100.56400299072266,175.8679962158203 100.56400299072266,175.8679962158203z"></path>
            </g>
        </g>
        <g transform="matrix(1,0,0,1,0,0)" opacity="1" style="display: block;">
            <g opacity="1" transform="matrix(1,0,0,1,0,0)">
                <path fill="rgb(0,0,0)" fill-opacity="1"
                      d=" M142.33999633789062,167.1199951171875 C142.33999633789062,167.1199951171875 151.0885009765625,167.1199951171875 151.0885009765625,167.1199951171875 C151.0885009765625,167.1199951171875 151.0885009765625,175.86849975585938 151.0885009765625,175.86849975585938 C151.0885009765625,175.86849975585938 142.33999633789062,175.86849975585938 142.33999633789062,175.86849975585938 C142.33999633789062,175.86849975585938 142.33999633789062,167.1199951171875 142.33999633789062,167.1199951171875z"></path>
            </g>
        </g>
        <g transform="matrix(1,0,0,1,0,0)" opacity="1" style="display: block;">
            <g opacity="1" transform="matrix(1,0,0,1,0,0)">
                <path fill="rgb(0,0,0)" fill-opacity="1"
                      d=" M125.5780029296875,167.1199951171875 C125.5780029296875,167.1199951171875 134.32650756835938,167.1199951171875 134.32650756835938,167.1199951171875 C134.32650756835938,167.1199951171875 134.32650756835938,175.86849975585938 134.32650756835938,175.86849975585938 C134.32650756835938,175.86849975585938 125.5780029296875,175.86849975585938 125.5780029296875,175.86849975585938 C125.5780029296875,175.86849975585938 125.5780029296875,167.1199951171875 125.5780029296875,167.1199951171875z"></path>
            </g>
        </g>
        <g transform="matrix(1,0,0,1,0,0)" opacity="1" style="display: block;">
            <g opacity="1" transform="matrix(1,0,0,1,0,0)">
                <path fill="rgb(0,0,0)" fill-opacity="1"
                      d=" M108.6969985961914,167.1199951171875 C108.6969985961914,167.1199951171875 117.44550323486328,167.1199951171875 117.44550323486328,167.1199951171875 C117.44550323486328,167.1199951171875 117.44550323486328,175.86849975585938 117.44550323486328,175.86849975585938 C117.44550323486328,175.86849975585938 108.6969985961914,175.86849975585938 108.6969985961914,175.86849975585938 C108.6969985961914,175.86849975585938 108.6969985961914,167.1199951171875 108.6969985961914,167.1199951171875z"></path>
            </g>
        </g>
        <g transform="matrix(1,0,0,1,0,0)" opacity="1" style="display: block;">
            <g opacity="1" transform="matrix(1,0,0,1,0,0)">
                <path fill="rgb(0,0,0)" fill-opacity="1"
                      d=" M100.56400299072266,159.15499877929688 C100.56400299072266,159.15499877929688 91.81549835205078,159.15499877929688 91.81549835205078,159.15499877929688 C91.81549835205078,159.15499877929688 91.81549835205078,150.406494140625 91.81549835205078,150.406494140625 C91.81549835205078,150.406494140625 100.56400299072266,150.406494140625 100.56400299072266,150.406494140625 C100.56400299072266,150.406494140625 100.56400299072266,159.15499877929688 100.56400299072266,159.15499877929688z"></path>
            </g>
        </g>
        <g transform="matrix(1,0,0,1,0,0)" opacity="1" style="display: block;">
            <g opacity="1" transform="matrix(1,0,0,1,0,0)">
                <path fill="rgb(0,0,0)" fill-opacity="1"
                      d=" M159.1020050048828,150.40699768066406 C159.1020050048828,150.40699768066406 167.85049438476562,150.40699768066406 167.85049438476562,150.40699768066406 C167.85049438476562,150.40699768066406 167.85049438476562,159.15550231933594 167.85049438476562,159.15550231933594 C167.85049438476562,159.15550231933594 159.1020050048828,159.15550231933594 159.1020050048828,159.15550231933594 C159.1020050048828,159.15550231933594 159.1020050048828,150.40699768066406 159.1020050048828,150.40699768066406z"></path>
            </g>
        </g>
        <g transform="matrix(1,0,0,1,0,0)" opacity="1" style="display: block;">
            <g opacity="1" transform="matrix(1,0,0,1,0,0)">
                <path fill="rgb(0,0,0)" fill-opacity="1"
                      d=" M142.33999633789062,150.40699768066406 C142.33999633789062,150.40699768066406 151.0885009765625,150.40699768066406 151.0885009765625,150.40699768066406 C151.0885009765625,150.40699768066406 151.0885009765625,159.15550231933594 151.0885009765625,159.15550231933594 C151.0885009765625,159.15550231933594 142.33999633789062,159.15550231933594 142.33999633789062,159.15550231933594 C142.33999633789062,159.15550231933594 142.33999633789062,150.40699768066406 142.33999633789062,150.40699768066406z"></path>
            </g>
        </g>
        <g transform="matrix(1,0,0,1,0,0)" opacity="1" style="display: block;">
            <g opacity="1" transform="matrix(1,0,0,1,0,0)">
                <path fill="rgb(0,0,0)" fill-opacity="1"
                      d=" M125.5780029296875,150.40699768066406 C125.5780029296875,150.40699768066406 134.32650756835938,150.40699768066406 134.32650756835938,150.40699768066406 C134.32650756835938,150.40699768066406 134.32650756835938,159.15550231933594 134.32650756835938,159.15550231933594 C134.32650756835938,159.15550231933594 125.5780029296875,159.15550231933594 125.5780029296875,159.15550231933594 C125.5780029296875,159.15550231933594 125.5780029296875,150.40699768066406 125.5780029296875,150.40699768066406z"></path>
            </g>
        </g>
        <g transform="matrix(1,0,0,1,0,0)" opacity="1" style="display: block;">
            <g opacity="1" transform="matrix(1,0,0,1,0,0)">
                <path fill="rgb(0,0,0)" fill-opacity="1"
                      d=" M108.6969985961914,150.40699768066406 C108.6969985961914,150.40699768066406 117.44550323486328,150.40699768066406 117.44550323486328,150.40699768066406 C117.44550323486328,150.40699768066406 117.44550323486328,159.15550231933594 117.44550323486328,159.15550231933594 C117.44550323486328,159.15550231933594 108.6969985961914,159.15550231933594 108.6969985961914,159.15550231933594 C108.6969985961914,159.15550231933594 108.6969985961914,150.40699768066406 108.6969985961914,150.40699768066406z"></path>
            </g>
        </g>
        <g transform="matrix(1,0,0,1,0,0)" opacity="1" style="display: block;">
            <g opacity="1" transform="matrix(1,0,0,1,0,0)">
                <path fill="rgb(0,0,0)" fill-opacity="1"
                      d=" M50.27730178833008,142.4429931640625 C50.27730178833008,142.4429931640625 41.52880096435547,142.4429931640625 41.52880096435547,142.4429931640625 C41.52880096435547,142.4429931640625 41.52880096435547,133.6945037841797 41.52880096435547,133.6945037841797 C41.52880096435547,133.6945037841797 50.27730178833008,133.6945037841797 50.27730178833008,133.6945037841797 C50.27730178833008,133.6945037841797 50.27730178833008,142.4429931640625 50.27730178833008,142.4429931640625z"></path>
            </g>
        </g>
        <g transform="matrix(1,0,0,1,0,0)" opacity="1" style="display: block;">
            <g opacity="1" transform="matrix(1,0,0,1,0,0)">
                <path fill="rgb(0,0,0)" fill-opacity="1"
                      d=" M16.75589942932129,142.4429931640625 C16.75589942932129,142.4429931640625 8.007399559020996,142.4429931640625 8.007399559020996,142.4429931640625 C8.007399559020996,142.4429931640625 8.007399559020996,133.6945037841797 8.007399559020996,133.6945037841797 C8.007399559020996,133.6945037841797 16.75589942932129,133.6945037841797 16.75589942932129,133.6945037841797 C16.75589942932129,133.6945037841797 16.75589942932129,142.4429931640625 16.75589942932129,142.4429931640625z"></path>
            </g>
        </g>
        <g transform="matrix(1,0,0,1,0,0)" opacity="1" style="display: block;">
            <g opacity="1" transform="matrix(1,0,0,1,0,0)">
                <path fill="rgb(0,0,0)" fill-opacity="1"
                      d=" M67.03910064697266,142.4429931640625 C67.03910064697266,142.4429931640625 58.29059982299805,142.4429931640625 58.29059982299805,142.4429931640625 C58.29059982299805,142.4429931640625 58.29059982299805,133.6945037841797 58.29059982299805,133.6945037841797 C58.29059982299805,133.6945037841797 67.03910064697266,133.6945037841797 67.03910064697266,133.6945037841797 C67.03910064697266,133.6945037841797 67.03910064697266,142.4429931640625 67.03910064697266,142.4429931640625z"></path>
            </g>
        </g>
        <g transform="matrix(1,0,0,1,0,0)" opacity="1" style="display: block;">
            <g opacity="1" transform="matrix(1,0,0,1,0,0)">
                <path fill="rgb(0,0,0)" fill-opacity="1"
                      d=" M100.56400299072266,142.4429931640625 C100.56400299072266,142.4429931640625 91.81549835205078,142.4429931640625 91.81549835205078,142.4429931640625 C91.81549835205078,142.4429931640625 91.81549835205078,133.6945037841797 91.81549835205078,133.6945037841797 C91.81549835205078,133.6945037841797 100.56400299072266,133.6945037841797 100.56400299072266,133.6945037841797 C100.56400299072266,133.6945037841797 100.56400299072266,142.4429931640625 100.56400299072266,142.4429931640625z"></path>
            </g>
        </g>
        <g transform="matrix(1,0,0,1,0,0)" opacity="1" style="display: block;">
            <g opacity="1" transform="matrix(1,0,0,1,0,0)">
                <path fill="rgb(0,0,0)" fill-opacity="1"
                      d=" M83.80269622802734,142.4429931640625 C83.80269622802734,142.4429931640625 75.05419921875,142.4429931640625 75.05419921875,142.4429931640625 C75.05419921875,142.4429931640625 75.05419921875,133.6945037841797 75.05419921875,133.6945037841797 C75.05419921875,133.6945037841797 83.80269622802734,133.6945037841797 83.80269622802734,133.6945037841797 C83.80269622802734,133.6945037841797 83.80269622802734,142.4429931640625 83.80269622802734,142.4429931640625z"></path>
            </g>
        </g>
        <g transform="matrix(1,0,0,1,0,0)" opacity="1" style="display: block;">
            <g opacity="1" transform="matrix(1,0,0,1,0,0)">
                <path fill="rgb(0,0,0)" fill-opacity="1"
                      d=" M33.51559829711914,142.4429931640625 C33.51559829711914,142.4429931640625 24.767099380493164,142.4429931640625 24.767099380493164,142.4429931640625 C24.767099380493164,142.4429931640625 24.767099380493164,133.6945037841797 24.767099380493164,133.6945037841797 C24.767099380493164,133.6945037841797 33.51559829711914,133.6945037841797 33.51559829711914,133.6945037841797 C33.51559829711914,133.6945037841797 33.51559829711914,142.4429931640625 33.51559829711914,142.4429931640625z"></path>
            </g>
        </g>
        <g transform="matrix(1,0,0,1,0,0)" opacity="1" style="display: block;">
            <g opacity="1" transform="matrix(1,0,0,1,0,0)">
                <path fill="rgb(0,0,0)" fill-opacity="1"
                      d=" M142.33999633789062,133.69500732421875 C142.33999633789062,133.69500732421875 151.0885009765625,133.69500732421875 151.0885009765625,133.69500732421875 C151.0885009765625,133.69500732421875 151.0885009765625,142.44349670410156 151.0885009765625,142.44349670410156 C151.0885009765625,142.44349670410156 142.33999633789062,142.44349670410156 142.33999633789062,142.44349670410156 C142.33999633789062,142.44349670410156 142.33999633789062,133.69500732421875 142.33999633789062,133.69500732421875z"></path>
            </g>
        </g>
        <g transform="matrix(1,0,0,1,0,0)" opacity="1" style="display: block;">
            <g opacity="1" transform="matrix(1,0,0,1,0,0)">
                <path fill="rgb(0,0,0)" fill-opacity="1"
                      d=" M159.1020050048828,133.69500732421875 C159.1020050048828,133.69500732421875 167.85049438476562,133.69500732421875 167.85049438476562,133.69500732421875 C167.85049438476562,133.69500732421875 167.85049438476562,142.44349670410156 167.85049438476562,142.44349670410156 C167.85049438476562,142.44349670410156 159.1020050048828,142.44349670410156 159.1020050048828,142.44349670410156 C159.1020050048828,142.44349670410156 159.1020050048828,133.69500732421875 159.1020050048828,133.69500732421875z"></path>
            </g>
        </g>
        <g transform="matrix(1,0,0,1,0,0)" opacity="1" style="display: block;">
            <g opacity="1" transform="matrix(1,0,0,1,0,0)">
                <path fill="rgb(0,0,0)" fill-opacity="1"
                      d=" M175.86300659179688,133.69500732421875 C175.86300659179688,133.69500732421875 184.6114959716797,133.69500732421875 184.6114959716797,133.69500732421875 C184.6114959716797,133.69500732421875 184.6114959716797,142.44349670410156 184.6114959716797,142.44349670410156 C184.6114959716797,142.44349670410156 175.86300659179688,142.44349670410156 175.86300659179688,142.44349670410156 C175.86300659179688,142.44349670410156 175.86300659179688,133.69500732421875 175.86300659179688,133.69500732421875z"></path>
            </g>
        </g>
        <g transform="matrix(1,0,0,1,0,0)" opacity="1" style="display: block;">
            <g opacity="1" transform="matrix(1,0,0,1,0,0)">
                <path fill="rgb(0,0,0)" fill-opacity="1"
                      d=" M108.6969985961914,133.69500732421875 C108.6969985961914,133.69500732421875 117.44550323486328,133.69500732421875 117.44550323486328,133.69500732421875 C117.44550323486328,133.69500732421875 117.44550323486328,142.44349670410156 117.44550323486328,142.44349670410156 C117.44550323486328,142.44349670410156 108.6969985961914,142.44349670410156 108.6969985961914,142.44349670410156 C108.6969985961914,142.44349670410156 108.6969985961914,133.69500732421875 108.6969985961914,133.69500732421875z"></path>
            </g>
        </g>
        <g transform="matrix(1,0,0,1,0,0)" opacity="1" style="display: block;">
            <g opacity="1" transform="matrix(1,0,0,1,0,0)">
                <path fill="rgb(0,0,0)" fill-opacity="1"
                      d=" M125.5780029296875,133.69500732421875 C125.5780029296875,133.69500732421875 134.32650756835938,133.69500732421875 134.32650756835938,133.69500732421875 C134.32650756835938,133.69500732421875 134.32650756835938,142.44349670410156 134.32650756835938,142.44349670410156 C134.32650756835938,142.44349670410156 125.5780029296875,142.44349670410156 125.5780029296875,142.44349670410156 C125.5780029296875,142.44349670410156 125.5780029296875,133.69500732421875 125.5780029296875,133.69500732421875z"></path>
            </g>
        </g>
        <g transform="matrix(1,0,0,1,0,0)" opacity="1" style="display: block;">
            <g opacity="1" transform="matrix(1,0,0,1,0,0)">
                <path fill="rgb(0,0,0)" fill-opacity="1"
                      d=" M83.80269622802734,125.7300033569336 C83.80269622802734,125.7300033569336 75.05419921875,125.7300033569336 75.05419921875,125.7300033569336 C75.05419921875,125.7300033569336 75.05419921875,116.98149871826172 75.05419921875,116.98149871826172 C75.05419921875,116.98149871826172 83.80269622802734,116.98149871826172 83.80269622802734,116.98149871826172 C83.80269622802734,116.98149871826172 83.80269622802734,125.7300033569336 83.80269622802734,125.7300033569336z"></path>
            </g>
        </g>
        <g transform="matrix(1,0,0,1,0,0)" opacity="1" style="display: block;">
            <g opacity="1" transform="matrix(1,0,0,1,0,0)">
                <path fill="rgb(0,0,0)" fill-opacity="1"
                      d=" M50.27730178833008,125.7300033569336 C50.27730178833008,125.7300033569336 41.52880096435547,125.7300033569336 41.52880096435547,125.7300033569336 C41.52880096435547,125.7300033569336 41.52880096435547,116.98149871826172 41.52880096435547,116.98149871826172 C41.52880096435547,116.98149871826172 50.27730178833008,116.98149871826172 50.27730178833008,116.98149871826172 C50.27730178833008,116.98149871826172 50.27730178833008,125.7300033569336 50.27730178833008,125.7300033569336z"></path>
            </g>
        </g>
        <g transform="matrix(1,0,0,1,0,0)" opacity="1" style="display: block;">
            <g opacity="1" transform="matrix(1,0,0,1,0,0)">
                <path fill="rgb(0,0,0)" fill-opacity="1"
                      d=" M100.56400299072266,125.7300033569336 C100.56400299072266,125.7300033569336 91.81549835205078,125.7300033569336 91.81549835205078,125.7300033569336 C91.81549835205078,125.7300033569336 91.81549835205078,116.98149871826172 91.81549835205078,116.98149871826172 C91.81549835205078,116.98149871826172 100.56400299072266,116.98149871826172 100.56400299072266,116.98149871826172 C100.56400299072266,116.98149871826172 100.56400299072266,125.7300033569336 100.56400299072266,125.7300033569336z"></path>
            </g>
        </g>
        <g transform="matrix(1,0,0,1,0,0)" opacity="1" style="display: block;">
            <g opacity="1" transform="matrix(1,0,0,1,0,0)">
                <path fill="rgb(0,0,0)" fill-opacity="1"
                      d=" M33.51559829711914,125.7300033569336 C33.51559829711914,125.7300033569336 24.767099380493164,125.7300033569336 24.767099380493164,125.7300033569336 C24.767099380493164,125.7300033569336 24.767099380493164,116.98149871826172 24.767099380493164,116.98149871826172 C24.767099380493164,116.98149871826172 33.51559829711914,116.98149871826172 33.51559829711914,116.98149871826172 C33.51559829711914,116.98149871826172 33.51559829711914,125.7300033569336 33.51559829711914,125.7300033569336z"></path>
            </g>
        </g>
        <g transform="matrix(1,0,0,1,0,0)" opacity="1" style="display: block;">
            <g opacity="1" transform="matrix(1,0,0,1,0,0)">
                <path fill="rgb(0,0,0)" fill-opacity="1"
                      d=" M67.03910064697266,125.7300033569336 C67.03910064697266,125.7300033569336 58.29059982299805,125.7300033569336 58.29059982299805,125.7300033569336 C58.29059982299805,125.7300033569336 58.29059982299805,116.98149871826172 58.29059982299805,116.98149871826172 C58.29059982299805,116.98149871826172 67.03910064697266,116.98149871826172 67.03910064697266,116.98149871826172 C67.03910064697266,116.98149871826172 67.03910064697266,125.7300033569336 67.03910064697266,125.7300033569336z"></path>
            </g>
        </g>
        <g transform="matrix(1,0,0,1,0,0)" opacity="1" style="display: block;">
            <g opacity="1" transform="matrix(1,0,0,1,0,0)">
                <path fill="rgb(0,0,0)" fill-opacity="1"
                      d=" M16.75,125.7300033569336 C16.75,125.7300033569336 8.001500129699707,125.7300033569336 8.001500129699707,125.7300033569336 C8.001500129699707,125.7300033569336 8.001500129699707,116.98149871826172 8.001500129699707,116.98149871826172 C8.001500129699707,116.98149871826172 16.75,116.98149871826172 16.75,116.98149871826172 C16.75,116.98149871826172 16.75,125.7300033569336 16.75,125.7300033569336z"></path>
            </g>
        </g>
        <g transform="matrix(1,0,0,1,0,0)" opacity="1" style="display: block;">
            <g opacity="1" transform="matrix(1,0,0,1,0,0)">
                <path fill="rgb(0,0,0)" fill-opacity="1"
                      d=" M159.1020050048828,116.98200225830078 C159.1020050048828,116.98200225830078 167.85049438476562,116.98200225830078 167.85049438476562,116.98200225830078 C167.85049438476562,116.98200225830078 167.85049438476562,125.73049926757812 167.85049438476562,125.73049926757812 C167.85049438476562,125.73049926757812 159.1020050048828,125.73049926757812 159.1020050048828,125.73049926757812 C159.1020050048828,125.73049926757812 159.1020050048828,116.98200225830078 159.1020050048828,116.98200225830078z"></path>
            </g>
        </g>
        <g transform="matrix(1,0,0,1,0,0)" opacity="1" style="display: block;">
            <g opacity="1" transform="matrix(1,0,0,1,0,0)">
                <path fill="rgb(0,0,0)" fill-opacity="1"
                      d=" M142.33999633789062,116.98200225830078 C142.33999633789062,116.98200225830078 151.0885009765625,116.98200225830078 151.0885009765625,116.98200225830078 C151.0885009765625,116.98200225830078 151.0885009765625,125.73049926757812 151.0885009765625,125.73049926757812 C151.0885009765625,125.73049926757812 142.33999633789062,125.73049926757812 142.33999633789062,125.73049926757812 C142.33999633789062,125.73049926757812 142.33999633789062,116.98200225830078 142.33999633789062,116.98200225830078z"></path>
            </g>
        </g>
        <g transform="matrix(1,0,0,1,0,0)" opacity="1" style="display: block;">
            <g opacity="1" transform="matrix(1,0,0,1,0,0)">
                <path fill="rgb(0,0,0)" fill-opacity="1"
                      d=" M192.625,116.98200225830078 C192.625,116.98200225830078 201.37350463867188,116.98200225830078 201.37350463867188,116.98200225830078 C201.37350463867188,116.98200225830078 201.37350463867188,125.73049926757812 201.37350463867188,125.73049926757812 C201.37350463867188,125.73049926757812 192.625,125.73049926757812 192.625,125.73049926757812 C192.625,125.73049926757812 192.625,116.98200225830078 192.625,116.98200225830078z"></path>
            </g>
        </g>
        <g transform="matrix(1,0,0,1,0,0)" opacity="1" style="display: block;">
            <g opacity="1" transform="matrix(1,0,0,1,0,0)">
                <path fill="rgb(0,0,0)" fill-opacity="1"
                      d=" M125.5780029296875,116.98200225830078 C125.5780029296875,116.98200225830078 134.32650756835938,116.98200225830078 134.32650756835938,116.98200225830078 C134.32650756835938,116.98200225830078 134.32650756835938,125.73049926757812 134.32650756835938,125.73049926757812 C134.32650756835938,125.73049926757812 125.5780029296875,125.73049926757812 125.5780029296875,125.73049926757812 C125.5780029296875,125.73049926757812 125.5780029296875,116.98200225830078 125.5780029296875,116.98200225830078z"></path>
            </g>
        </g>
        <g transform="matrix(1,0,0,1,0,0)" opacity="1" style="display: block;">
            <g opacity="1" transform="matrix(1,0,0,1,0,0)">
                <path fill="rgb(0,0,0)" fill-opacity="1"
                      d=" M108.6969985961914,116.98200225830078 C108.6969985961914,116.98200225830078 117.44550323486328,116.98200225830078 117.44550323486328,116.98200225830078 C117.44550323486328,116.98200225830078 117.44550323486328,125.73049926757812 117.44550323486328,125.73049926757812 C117.44550323486328,125.73049926757812 108.6969985961914,125.73049926757812 108.6969985961914,125.73049926757812 C108.6969985961914,125.73049926757812 108.6969985961914,116.98200225830078 108.6969985961914,116.98200225830078z"></path>
            </g>
        </g>
        <g transform="matrix(1,0,0,1,0,0)" opacity="1" style="display: block;">
            <g opacity="1" transform="matrix(1,0,0,1,0,0)">
                <path fill="rgb(0,0,0)" fill-opacity="1"
                      d=" M175.86300659179688,116.98200225830078 C175.86300659179688,116.98200225830078 184.6114959716797,116.98200225830078 184.6114959716797,116.98200225830078 C184.6114959716797,116.98200225830078 184.6114959716797,125.73049926757812 184.6114959716797,125.73049926757812 C184.6114959716797,125.73049926757812 175.86300659179688,125.73049926757812 175.86300659179688,125.73049926757812 C175.86300659179688,125.73049926757812 175.86300659179688,116.98200225830078 175.86300659179688,116.98200225830078z"></path>
            </g>
        </g>
        <g transform="matrix(1,0,0,1,0,0)" opacity="1" style="display: block;">
            <g opacity="1" transform="matrix(1,0,0,1,0,0)">
                <path fill="rgb(0,0,0)" fill-opacity="1"
                      d=" M100.56400299072266,109.01799774169922 C100.56400299072266,109.01799774169922 91.81549835205078,109.01799774169922 91.81549835205078,109.01799774169922 C91.81549835205078,109.01799774169922 91.81549835205078,100.26950073242188 91.81549835205078,100.26950073242188 C91.81549835205078,100.26950073242188 100.56400299072266,100.26950073242188 100.56400299072266,100.26950073242188 C100.56400299072266,100.26950073242188 100.56400299072266,109.01799774169922 100.56400299072266,109.01799774169922z"></path>
            </g>
        </g>
        <g transform="matrix(1,0,0,1,0,0)" opacity="1" style="display: block;">
            <g opacity="1" transform="matrix(1,0,0,1,0,0)">
                <path fill="rgb(0,0,0)" fill-opacity="1"
                      d=" M50.27730178833008,109.01799774169922 C50.27730178833008,109.01799774169922 41.52880096435547,109.01799774169922 41.52880096435547,109.01799774169922 C41.52880096435547,109.01799774169922 41.52880096435547,100.26950073242188 41.52880096435547,100.26950073242188 C41.52880096435547,100.26950073242188 50.27730178833008,100.26950073242188 50.27730178833008,100.26950073242188 C50.27730178833008,100.26950073242188 50.27730178833008,109.01799774169922 50.27730178833008,109.01799774169922z"></path>
            </g>
        </g>
        <g transform="matrix(1,0,0,1,0,0)" opacity="1" style="display: block;">
            <g opacity="1" transform="matrix(1,0,0,1,0,0)">
                <path fill="rgb(0,0,0)" fill-opacity="1"
                      d=" M83.80269622802734,109.01799774169922 C83.80269622802734,109.01799774169922 75.05419921875,109.01799774169922 75.05419921875,109.01799774169922 C75.05419921875,109.01799774169922 75.05419921875,100.26950073242188 75.05419921875,100.26950073242188 C75.05419921875,100.26950073242188 83.80269622802734,100.26950073242188 83.80269622802734,100.26950073242188 C83.80269622802734,100.26950073242188 83.80269622802734,109.01799774169922 83.80269622802734,109.01799774169922z"></path>
            </g>
        </g>
        <g transform="matrix(1,0,0,1,0,0)" opacity="1" style="display: block;">
            <g opacity="1" transform="matrix(1,0,0,1,0,0)">
                <path fill="rgb(0,0,0)" fill-opacity="1"
                      d=" M67.03910064697266,109.01799774169922 C67.03910064697266,109.01799774169922 58.29059982299805,109.01799774169922 58.29059982299805,109.01799774169922 C58.29059982299805,109.01799774169922 58.29059982299805,100.26950073242188 58.29059982299805,100.26950073242188 C58.29059982299805,100.26950073242188 67.03910064697266,100.26950073242188 67.03910064697266,100.26950073242188 C67.03910064697266,100.26950073242188 67.03910064697266,109.01799774169922 67.03910064697266,109.01799774169922z"></path>
            </g>
        </g>
        <g transform="matrix(1,0,0,1,0,0)" opacity="1" style="display: block;">
            <g opacity="1" transform="matrix(1,0,0,1,0,0)">
                <path fill="rgb(0,0,0)" fill-opacity="1"
                      d=" M33.51559829711914,109.01799774169922 C33.51559829711914,109.01799774169922 24.767099380493164,109.01799774169922 24.767099380493164,109.01799774169922 C24.767099380493164,109.01799774169922 24.767099380493164,100.26950073242188 24.767099380493164,100.26950073242188 C24.767099380493164,100.26950073242188 33.51559829711914,100.26950073242188 33.51559829711914,100.26950073242188 C33.51559829711914,100.26950073242188 33.51559829711914,109.01799774169922 33.51559829711914,109.01799774169922z"></path>
            </g>
        </g>
        <g transform="matrix(1,0,0,1,0,0)" opacity="1" style="display: block;">
            <g opacity="1" transform="matrix(1,0,0,1,0,0)">
                <path fill="rgb(0,0,0)" fill-opacity="1"
                      d=" M142.33999633789062,100.2699966430664 C142.33999633789062,100.2699966430664 151.0885009765625,100.2699966430664 151.0885009765625,100.2699966430664 C151.0885009765625,100.2699966430664 151.0885009765625,109.01850128173828 151.0885009765625,109.01850128173828 C151.0885009765625,109.01850128173828 142.33999633789062,109.01850128173828 142.33999633789062,109.01850128173828 C142.33999633789062,109.01850128173828 142.33999633789062,100.2699966430664 142.33999633789062,100.2699966430664z"></path>
            </g>
        </g>
        <g transform="matrix(1,0,0,1,0,0)" opacity="1" style="display: block;">
            <g opacity="1" transform="matrix(1,0,0,1,0,0)">
                <path fill="rgb(0,0,0)" fill-opacity="1"
                      d=" M108.6969985961914,100.2699966430664 C108.6969985961914,100.2699966430664 117.44550323486328,100.2699966430664 117.44550323486328,100.2699966430664 C117.44550323486328,100.2699966430664 117.44550323486328,109.01850128173828 117.44550323486328,109.01850128173828 C117.44550323486328,109.01850128173828 108.6969985961914,109.01850128173828 108.6969985961914,109.01850128173828 C108.6969985961914,109.01850128173828 108.6969985961914,100.2699966430664 108.6969985961914,100.2699966430664z"></path>
            </g>
        </g>
        <g transform="matrix(1,0,0,1,0,0)" opacity="1" style="display: block;">
            <g opacity="1" transform="matrix(1,0,0,1,0,0)">
                <path fill="rgb(0,0,0)" fill-opacity="1"
                      d=" M192.625,100.2699966430664 C192.625,100.2699966430664 201.37350463867188,100.2699966430664 201.37350463867188,100.2699966430664 C201.37350463867188,100.2699966430664 201.37350463867188,109.01850128173828 201.37350463867188,109.01850128173828 C201.37350463867188,109.01850128173828 192.625,109.01850128173828 192.625,109.01850128173828 C192.625,109.01850128173828 192.625,100.2699966430664 192.625,100.2699966430664z"></path>
            </g>
        </g>
        <g transform="matrix(1,0,0,1,0,0)" opacity="1" style="display: block;">
            <g opacity="1" transform="matrix(1,0,0,1,0,0)">
                <path fill="rgb(0,0,0)" fill-opacity="1"
                      d=" M209.39300537109375,100.2699966430664 C209.39300537109375,100.2699966430664 218.14149475097656,100.2699966430664 218.14149475097656,100.2699966430664 C218.14149475097656,100.2699966430664 218.14149475097656,109.01850128173828 218.14149475097656,109.01850128173828 C218.14149475097656,109.01850128173828 209.39300537109375,109.01850128173828 209.39300537109375,109.01850128173828 C209.39300537109375,109.01850128173828 209.39300537109375,100.2699966430664 209.39300537109375,100.2699966430664z"></path>
            </g>
        </g>
        <g transform="matrix(1,0,0,1,0,0)" opacity="1" style="display: block;">
            <g opacity="1" transform="matrix(1,0,0,1,0,0)">
                <path fill="rgb(0,0,0)" fill-opacity="1"
                      d=" M125.5780029296875,100.2699966430664 C125.5780029296875,100.2699966430664 134.32650756835938,100.2699966430664 134.32650756835938,100.2699966430664 C134.32650756835938,100.2699966430664 134.32650756835938,109.01850128173828 134.32650756835938,109.01850128173828 C134.32650756835938,109.01850128173828 125.5780029296875,109.01850128173828 125.5780029296875,109.01850128173828 C125.5780029296875,109.01850128173828 125.5780029296875,100.2699966430664 125.5780029296875,100.2699966430664z"></path>
            </g>
        </g>
        <g transform="matrix(1,0,0,1,0,0)" opacity="1" style="display: block;">
            <g opacity="1" transform="matrix(1,0,0,1,0,0)">
                <path fill="rgb(0,0,0)" fill-opacity="1"
                      d=" M159.1020050048828,100.2699966430664 C159.1020050048828,100.2699966430664 167.85049438476562,100.2699966430664 167.85049438476562,100.2699966430664 C167.85049438476562,100.2699966430664 167.85049438476562,109.01850128173828 167.85049438476562,109.01850128173828 C167.85049438476562,109.01850128173828 159.1020050048828,109.01850128173828 159.1020050048828,109.01850128173828 C159.1020050048828,109.01850128173828 159.1020050048828,100.2699966430664 159.1020050048828,100.2699966430664z"></path>
            </g>
        </g>
        <g transform="matrix(1,0,0,1,0,0)" opacity="1" style="display: block;">
            <g opacity="1" transform="matrix(1,0,0,1,0,0)">
                <path fill="rgb(0,0,0)" fill-opacity="1"
                      d=" M175.86300659179688,100.2699966430664 C175.86300659179688,100.2699966430664 184.6114959716797,100.2699966430664 184.6114959716797,100.2699966430664 C184.6114959716797,100.2699966430664 184.6114959716797,109.01850128173828 184.6114959716797,109.01850128173828 C184.6114959716797,109.01850128173828 175.86300659179688,109.01850128173828 175.86300659179688,109.01850128173828 C175.86300659179688,109.01850128173828 175.86300659179688,100.2699966430664 175.86300659179688,100.2699966430664z"></path>
            </g>
        </g>
        <g transform="matrix(1,0,0,1,0,0)" opacity="1" style="display: block;">
            <g opacity="1" transform="matrix(1,0,0,1,0,0)">
                <path fill="rgb(0,0,0)" fill-opacity="1"
                      d=" M100.56400299072266,92.30470275878906 C100.56400299072266,92.30470275878906 91.81549835205078,92.30470275878906 91.81549835205078,92.30470275878906 C91.81549835205078,92.30470275878906 91.81549835205078,83.55619812011719 91.81549835205078,83.55619812011719 C91.81549835205078,83.55619812011719 100.56400299072266,83.55619812011719 100.56400299072266,83.55619812011719 C100.56400299072266,83.55619812011719 100.56400299072266,92.30470275878906 100.56400299072266,92.30470275878906z"></path>
            </g>
        </g>
        <g transform="matrix(1,0,0,1,0,0)" opacity="1" style="display: block;">
            <g opacity="1" transform="matrix(1,0,0,1,0,0)">
                <path fill="rgb(0,0,0)" fill-opacity="1"
                      d=" M83.80269622802734,92.30470275878906 C83.80269622802734,92.30470275878906 75.05419921875,92.30470275878906 75.05419921875,92.30470275878906 C75.05419921875,92.30470275878906 75.05419921875,83.55619812011719 75.05419921875,83.55619812011719 C75.05419921875,83.55619812011719 83.80269622802734,83.55619812011719 83.80269622802734,83.55619812011719 C83.80269622802734,83.55619812011719 83.80269622802734,92.30470275878906 83.80269622802734,92.30470275878906z"></path>
            </g>
        </g>
        <g transform="matrix(1,0,0,1,0,0)" opacity="1" style="display: block;">
            <g opacity="1" transform="matrix(1,0,0,1,0,0)">
                <path fill="rgb(0,0,0)" fill-opacity="1"
                      d=" M50.27730178833008,92.30470275878906 C50.27730178833008,92.30470275878906 41.52880096435547,92.30470275878906 41.52880096435547,92.30470275878906 C41.52880096435547,92.30470275878906 41.52880096435547,83.55619812011719 41.52880096435547,83.55619812011719 C41.52880096435547,83.55619812011719 50.27730178833008,83.55619812011719 50.27730178833008,83.55619812011719 C50.27730178833008,83.55619812011719 50.27730178833008,92.30470275878906 50.27730178833008,92.30470275878906z"></path>
            </g>
        </g>
        <g transform="matrix(1,0,0,1,0,0)" opacity="1" style="display: block;">
            <g opacity="1" transform="matrix(1,0,0,1,0,0)">
                <path fill="rgb(0,0,0)" fill-opacity="1"
                      d=" M67.03910064697266,92.30470275878906 C67.03910064697266,92.30470275878906 58.29059982299805,92.30470275878906 58.29059982299805,92.30470275878906 C58.29059982299805,92.30470275878906 58.29059982299805,83.55619812011719 58.29059982299805,83.55619812011719 C58.29059982299805,83.55619812011719 67.03910064697266,83.55619812011719 67.03910064697266,83.55619812011719 C67.03910064697266,83.55619812011719 67.03910064697266,92.30470275878906 67.03910064697266,92.30470275878906z"></path>
            </g>
        </g>
        <g transform="matrix(1,0,0,1,0,0)" opacity="1" style="display: block;">
            <g opacity="1" transform="matrix(1,0,0,1,0,0)">
                <path fill="rgb(0,0,0)" fill-opacity="1"
                      d=" M175.86300659179688,83.55660247802734 C175.86300659179688,83.55660247802734 184.6114959716797,83.55660247802734 184.6114959716797,83.55660247802734 C184.6114959716797,83.55660247802734 184.6114959716797,92.30509948730469 184.6114959716797,92.30509948730469 C184.6114959716797,92.30509948730469 175.86300659179688,92.30509948730469 175.86300659179688,92.30509948730469 C175.86300659179688,92.30509948730469 175.86300659179688,83.55660247802734 175.86300659179688,83.55660247802734z"></path>
            </g>
        </g>
        <g transform="matrix(1,0,0,1,0,0)" opacity="1" style="display: block;">
            <g opacity="1" transform="matrix(1,0,0,1,0,0)">
                <path fill="rgb(0,0,0)" fill-opacity="1"
                      d=" M142.33999633789062,83.55660247802734 C142.33999633789062,83.55660247802734 151.0885009765625,83.55660247802734 151.0885009765625,83.55660247802734 C151.0885009765625,83.55660247802734 151.0885009765625,92.30509948730469 151.0885009765625,92.30509948730469 C151.0885009765625,92.30509948730469 142.33999633789062,92.30509948730469 142.33999633789062,92.30509948730469 C142.33999633789062,92.30509948730469 142.33999633789062,83.55660247802734 142.33999633789062,83.55660247802734z"></path>
            </g>
        </g>
        <g transform="matrix(1,0,0,1,0,0)" opacity="1" style="display: block;">
            <g opacity="1" transform="matrix(1,0,0,1,0,0)">
                <path fill="rgb(0,0,0)" fill-opacity="1"
                      d=" M209.38699340820312,83.55660247802734 C209.38699340820312,83.55660247802734 218.135498046875,83.55660247802734 218.135498046875,83.55660247802734 C218.135498046875,83.55660247802734 218.135498046875,92.30509948730469 218.135498046875,92.30509948730469 C218.135498046875,92.30509948730469 209.38699340820312,92.30509948730469 209.38699340820312,92.30509948730469 C209.38699340820312,92.30509948730469 209.38699340820312,83.55660247802734 209.38699340820312,83.55660247802734z"></path>
            </g>
        </g>
        <g transform="matrix(1,0,0,1,0,0)" opacity="1" style="display: block;">
            <g opacity="1" transform="matrix(1,0,0,1,0,0)">
                <path fill="rgb(0,0,0)" fill-opacity="1"
                      d=" M125.5780029296875,83.55660247802734 C125.5780029296875,83.55660247802734 134.32650756835938,83.55660247802734 134.32650756835938,83.55660247802734 C134.32650756835938,83.55660247802734 134.32650756835938,92.30509948730469 134.32650756835938,92.30509948730469 C134.32650756835938,92.30509948730469 125.5780029296875,92.30509948730469 125.5780029296875,92.30509948730469 C125.5780029296875,92.30509948730469 125.5780029296875,83.55660247802734 125.5780029296875,83.55660247802734z"></path>
            </g>
        </g>
        <g transform="matrix(1,0,0,1,0,0)" opacity="1" style="display: block;">
            <g opacity="1" transform="matrix(1,0,0,1,0,0)">
                <path fill="rgb(0,0,0)" fill-opacity="1"
                      d=" M159.1020050048828,83.55660247802734 C159.1020050048828,83.55660247802734 167.85049438476562,83.55660247802734 167.85049438476562,83.55660247802734 C167.85049438476562,83.55660247802734 167.85049438476562,92.30509948730469 167.85049438476562,92.30509948730469 C167.85049438476562,92.30509948730469 159.1020050048828,92.30509948730469 159.1020050048828,92.30509948730469 C159.1020050048828,92.30509948730469 159.1020050048828,83.55660247802734 159.1020050048828,83.55660247802734z"></path>
            </g>
        </g>
        <g transform="matrix(1,0,0,1,0,0)" opacity="1" style="display: block;">
            <g opacity="1" transform="matrix(1,0,0,1,0,0)">
                <path fill="rgb(0,0,0)" fill-opacity="1"
                      d=" M192.625,83.55660247802734 C192.625,83.55660247802734 201.37350463867188,83.55660247802734 201.37350463867188,83.55660247802734 C201.37350463867188,83.55660247802734 201.37350463867188,92.30509948730469 201.37350463867188,92.30509948730469 C201.37350463867188,92.30509948730469 192.625,92.30509948730469 192.625,92.30509948730469 C192.625,92.30509948730469 192.625,83.55660247802734 192.625,83.55660247802734z"></path>
            </g>
        </g>
        <g transform="matrix(1,0,0,1,0,0)" opacity="1" style="display: block;">
            <g opacity="1" transform="matrix(1,0,0,1,0,0)">
                <path fill="rgb(0,0,0)" fill-opacity="1"
                      d=" M108.6969985961914,83.55660247802734 C108.6969985961914,83.55660247802734 117.44550323486328,83.55660247802734 117.44550323486328,83.55660247802734 C117.44550323486328,83.55660247802734 117.44550323486328,92.30509948730469 117.44550323486328,92.30509948730469 C117.44550323486328,92.30509948730469 108.6969985961914,92.30509948730469 108.6969985961914,92.30509948730469 C108.6969985961914,92.30509948730469 108.6969985961914,83.55660247802734 108.6969985961914,83.55660247802734z"></path>
            </g>
        </g>
        <g transform="matrix(1,0,0,1,0,0)" opacity="1" style="display: block;">
            <g opacity="1" transform="matrix(1,0,0,1,0,0)">
                <path fill="rgb(0,0,0)" fill-opacity="1"
                      d=" M83.80269622802734,75.5927963256836 C83.80269622802734,75.5927963256836 75.05419921875,75.5927963256836 75.05419921875,75.5927963256836 C75.05419921875,75.5927963256836 75.05419921875,66.84429931640625 75.05419921875,66.84429931640625 C75.05419921875,66.84429931640625 83.80269622802734,66.84429931640625 83.80269622802734,66.84429931640625 C83.80269622802734,66.84429931640625 83.80269622802734,75.5927963256836 83.80269622802734,75.5927963256836z"></path>
            </g>
        </g>
        <g transform="matrix(1,0,0,1,0,0)" opacity="1" style="display: block;">
            <g opacity="1" transform="matrix(1,0,0,1,0,0)">
                <path fill="rgb(0,0,0)" fill-opacity="1"
                      d=" M67.03910064697266,75.5927963256836 C67.03910064697266,75.5927963256836 58.29059982299805,75.5927963256836 58.29059982299805,75.5927963256836 C58.29059982299805,75.5927963256836 58.29059982299805,66.84429931640625 58.29059982299805,66.84429931640625 C58.29059982299805,66.84429931640625 67.03910064697266,66.84429931640625 67.03910064697266,66.84429931640625 C67.03910064697266,66.84429931640625 67.03910064697266,75.5927963256836 67.03910064697266,75.5927963256836z"></path>
            </g>
        </g>
        <g transform="matrix(1,0,0,1,0,0)" opacity="1" style="display: block;">
            <g opacity="1" transform="matrix(1,0,0,1,0,0)">
                <path fill="rgb(0,0,0)" fill-opacity="1"
                      d=" M100.56400299072266,75.5927963256836 C100.56400299072266,75.5927963256836 91.81549835205078,75.5927963256836 91.81549835205078,75.5927963256836 C91.81549835205078,75.5927963256836 91.81549835205078,66.84429931640625 91.81549835205078,66.84429931640625 C91.81549835205078,66.84429931640625 100.56400299072266,66.84429931640625 100.56400299072266,66.84429931640625 C100.56400299072266,66.84429931640625 100.56400299072266,75.5927963256836 100.56400299072266,75.5927963256836z"></path>
            </g>
        </g>
        <g transform="matrix(1,0,0,1,0,0)" opacity="1" style="display: block;">
            <g opacity="1" transform="matrix(1,0,0,1,0,0)">
                <path fill="rgb(0,0,0)" fill-opacity="1"
                      d=" M108.6969985961914,66.8447036743164 C108.6969985961914,66.8447036743164 117.44550323486328,66.8447036743164 117.44550323486328,66.8447036743164 C117.44550323486328,66.8447036743164 117.44550323486328,75.59320068359375 117.44550323486328,75.59320068359375 C117.44550323486328,75.59320068359375 108.6969985961914,75.59320068359375 108.6969985961914,75.59320068359375 C108.6969985961914,75.59320068359375 108.6969985961914,66.8447036743164 108.6969985961914,66.8447036743164z"></path>
            </g>
        </g>
        <g transform="matrix(1,0,0,1,0,0)" opacity="1" style="display: block;">
            <g opacity="1" transform="matrix(1,0,0,1,0,0)">
                <path fill="rgb(0,0,0)" fill-opacity="1"
                      d=" M125.5780029296875,66.8447036743164 C125.5780029296875,66.8447036743164 134.32650756835938,66.8447036743164 134.32650756835938,66.8447036743164 C134.32650756835938,66.8447036743164 134.32650756835938,75.59320068359375 134.32650756835938,75.59320068359375 C134.32650756835938,75.59320068359375 125.5780029296875,75.59320068359375 125.5780029296875,75.59320068359375 C125.5780029296875,75.59320068359375 125.5780029296875,66.8447036743164 125.5780029296875,66.8447036743164z"></path>
            </g>
        </g>
        <g transform="matrix(1,0,0,1,0,0)" opacity="1" style="display: block;">
            <g opacity="1" transform="matrix(1,0,0,1,0,0)">
                <path fill="rgb(0,0,0)" fill-opacity="1"
                      d=" M83.80269622802734,58.87990188598633 C83.80269622802734,58.87990188598633 75.05419921875,58.87990188598633 75.05419921875,58.87990188598633 C75.05419921875,58.87990188598633 75.05419921875,50.13140106201172 75.05419921875,50.13140106201172 C75.05419921875,50.13140106201172 83.80269622802734,50.13140106201172 83.80269622802734,50.13140106201172 C83.80269622802734,50.13140106201172 83.80269622802734,58.87990188598633 83.80269622802734,58.87990188598633z"></path>
            </g>
        </g>
        <g transform="matrix(1,0,0,1,0,0)" opacity="1" style="display: block;">
            <g opacity="1" transform="matrix(1,0,0,1,0,0)">
                <path fill="rgb(0,0,0)" fill-opacity="1"
                      d=" M100.56400299072266,58.87990188598633 C100.56400299072266,58.87990188598633 91.81549835205078,58.87990188598633 91.81549835205078,58.87990188598633 C91.81549835205078,58.87990188598633 91.81549835205078,50.13140106201172 91.81549835205078,50.13140106201172 C91.81549835205078,50.13140106201172 100.56400299072266,50.13140106201172 100.56400299072266,50.13140106201172 C100.56400299072266,50.13140106201172 100.56400299072266,58.87990188598633 100.56400299072266,58.87990188598633z"></path>
            </g>
        </g>
        <g transform="matrix(1,0,0,1,0,0)" opacity="1" style="display: block;">
            <g opacity="1" transform="matrix(1,0,0,1,0,0)">
                <path fill="rgb(0,0,0)" fill-opacity="1"
                      d=" M125.5780029296875,50.13180160522461 C125.5780029296875,50.13180160522461 134.32650756835938,50.13180160522461 134.32650756835938,50.13180160522461 C134.32650756835938,50.13180160522461 134.32650756835938,58.88029861450195 134.32650756835938,58.88029861450195 C134.32650756835938,58.88029861450195 125.5780029296875,58.88029861450195 125.5780029296875,58.88029861450195 C125.5780029296875,58.88029861450195 125.5780029296875,50.13180160522461 125.5780029296875,50.13180160522461z"></path>
            </g>
        </g>
        <g transform="matrix(1,0,0,1,0,0)" opacity="1" style="display: block;">
            <g opacity="1" transform="matrix(1,0,0,1,0,0)">
                <path fill="rgb(0,0,0)" fill-opacity="1"
                      d=" M108.6969985961914,50.13180160522461 C108.6969985961914,50.13180160522461 117.44550323486328,50.13180160522461 117.44550323486328,50.13180160522461 C117.44550323486328,50.13180160522461 117.44550323486328,58.88029861450195 117.44550323486328,58.88029861450195 C117.44550323486328,58.88029861450195 108.6969985961914,58.88029861450195 108.6969985961914,58.88029861450195 C108.6969985961914,58.88029861450195 108.6969985961914,50.13180160522461 108.6969985961914,50.13180160522461z"></path>
            </g>
        </g>
        <g transform="matrix(1,0,0,1,0,0)" opacity="1" style="display: block;">
            <g opacity="1" transform="matrix(1,0,0,1,0,0)">
                <path fill="rgb(0,0,0)" fill-opacity="1"
                      d=" M100.56400299072266,42.16699981689453 C100.56400299072266,42.16699981689453 91.81549835205078,42.16699981689453 91.81549835205078,42.16699981689453 C91.81549835205078,42.16699981689453 91.81549835205078,33.41849899291992 91.81549835205078,33.41849899291992 C91.81549835205078,33.41849899291992 100.56400299072266,33.41849899291992 100.56400299072266,33.41849899291992 C100.56400299072266,33.41849899291992 100.56400299072266,42.16699981689453 100.56400299072266,42.16699981689453z"></path>
            </g>
        </g>
        <g transform="matrix(1,0,0,1,0,0)" opacity="1" style="display: block;">
            <g opacity="1" transform="matrix(1,0,0,1,0,0)">
                <path fill="rgb(0,0,0)" fill-opacity="1"
                      d=" M108.6969985961914,33.41889953613281 C108.6969985961914,33.41889953613281 117.44550323486328,33.41889953613281 117.44550323486328,33.41889953613281 C117.44550323486328,33.41889953613281 117.44550323486328,42.16740036010742 117.44550323486328,42.16740036010742 C117.44550323486328,42.16740036010742 108.6969985961914,42.16740036010742 108.6969985961914,42.16740036010742 C108.6969985961914,42.16740036010742 108.6969985961914,33.41889953613281 108.6969985961914,33.41889953613281z"></path>
            </g>
        </g>
        <g transform="matrix(1,0,0,1,0,0)" opacity="1" style="display: block;">
            <g opacity="1" transform="matrix(1,0,0,1,0,0)">
                <path fill="rgb(0,0,0)" fill-opacity="1"
                      d=" M125.5780029296875,33.41889953613281 C125.5780029296875,33.41889953613281 134.32650756835938,33.41889953613281 134.32650756835938,33.41889953613281 C134.32650756835938,33.41889953613281 134.32650756835938,42.16740036010742 134.32650756835938,42.16740036010742 C134.32650756835938,42.16740036010742 125.5780029296875,42.16740036010742 125.5780029296875,42.16740036010742 C125.5780029296875,42.16740036010742 125.5780029296875,33.41889953613281 125.5780029296875,33.41889953613281z"></path>
            </g>
        </g>
        <g transform="matrix(1,0,0,1,0,0)" opacity="1" style="display: block;">
            <g opacity="1" transform="matrix(1,0,0,1,0,0)">
                <path fill="rgb(0,0,0)" fill-opacity="1"
                      d=" M125.5780029296875,16.706100463867188 C125.5780029296875,16.706100463867188 134.32650756835938,16.706100463867188 134.32650756835938,16.706100463867188 C134.32650756835938,16.706100463867188 134.32650756835938,25.454599380493164 134.32650756835938,25.454599380493164 C134.32650756835938,25.454599380493164 125.5780029296875,25.454599380493164 125.5780029296875,25.454599380493164 C125.5780029296875,25.454599380493164 125.5780029296875,16.706100463867188 125.5780029296875,16.706100463867188z"></path>
            </g>
        </g>
        <g transform="matrix(1,0,0,1,0,0)" opacity="1" style="display: block;">
            <g opacity="1" transform="matrix(1,0,0,1,0,0)">
                <path fill="rgb(0,0,0)" fill-opacity="1"
                      d=" M108.6969985961914,16.706100463867188 C108.6969985961914,16.706100463867188 117.44550323486328,16.706100463867188 117.44550323486328,16.706100463867188 C117.44550323486328,16.706100463867188 117.44550323486328,25.454599380493164 117.44550323486328,25.454599380493164 C117.44550323486328,25.454599380493164 108.6969985961914,25.454599380493164 108.6969985961914,25.454599380493164 C108.6969985961914,25.454599380493164 108.6969985961914,16.706100463867188 108.6969985961914,16.706100463867188z"></path>
            </g>
        </g>
        <g transform="matrix(1,0,0,1,0,0)" opacity="1" style="display: block;">
            <g opacity="1" transform="matrix(1,0,0,1,0,0)">
                <path fill="rgb(0,0,0)" fill-opacity="1"
                      d=" M125.5780029296875,0 C125.5780029296875,0 134.32650756835938,0 134.32650756835938,0 C134.32650756835938,0 134.32650756835938,8.748499870300293 134.32650756835938,8.748499870300293 C134.32650756835938,8.748499870300293 125.5780029296875,8.748499870300293 125.5780029296875,8.748499870300293 C125.5780029296875,8.748499870300293 125.5780029296875,0 125.5780029296875,0z"></path>
            </g>
        </g>
    </g>
</svg>
