<svg xmlns="http://www.w3.org/2000/svg" viewBox="0 0 226 226" width="226"
     height="226" preserveAspectRatio="xMidYMid meet"
     style="width: 100%; height: 100%; transform: translate3d(0px, 0px, 0px); content-visibility: visible;">
    <defs>
        <clipPath id="__lottie_element_10469">
            <rect width="226" height="226" x="0" y="0"></rect>
        </clipPath>
    </defs>
    <g clip-path="url(#__lottie_element_10469)">
        <g transform="matrix(1,0,0,1,0,0)" opacity="1" style="display: block;">
            <g opacity="1" transform="matrix(1,0,0,1,0,0)">
                <path fill="rgb(0,0,0)" fill-opacity="1"
                      d=" M125.7229995727539,226 C125.7229995727539,226 116.989501953125,226 116.989501953125,226 C116.989501953125,226 116.989501953125,217.26649475097656 116.989501953125,217.26649475097656 C116.989501953125,217.26649475097656 125.7229995727539,217.26649475097656 125.7229995727539,217.26649475097656 C125.7229995727539,217.26649475097656 125.7229995727539,226 125.7229995727539,226z"></path>
            </g>
        </g>
        <g transform="matrix(1,0,0,1,0,0)" opacity="1" style="display: block;">
            <g opacity="1" transform="matrix(1,0,0,1,0,0)">
                <path fill="rgb(0,0,0)" fill-opacity="1"
                      d=" M109.01200103759766,226 C109.01200103759766,226 100.27850341796875,226 100.27850341796875,226 C100.27850341796875,226 100.27850341796875,217.26649475097656 100.27850341796875,217.26649475097656 C100.27850341796875,217.26649475097656 109.01200103759766,217.26649475097656 109.01200103759766,217.26649475097656 C109.01200103759766,217.26649475097656 109.01200103759766,226 109.01200103759766,226z"></path>
            </g>
        </g>
        <g transform="matrix(1,0,0,1,0,0)" opacity="1" style="display: block;">
            <g opacity="1" transform="matrix(1,0,0,1,0,0)">
                <path fill="rgb(0,0,0)" fill-opacity="1"
                      d=" M125.7229995727539,209.29600524902344 C125.7229995727539,209.29600524902344 116.989501953125,209.29600524902344 116.989501953125,209.29600524902344 C116.989501953125,209.29600524902344 116.989501953125,200.5625 116.989501953125,200.5625 C116.989501953125,200.5625 125.7229995727539,200.5625 125.7229995727539,200.5625 C125.7229995727539,200.5625 125.7229995727539,209.29600524902344 125.7229995727539,209.29600524902344z"></path>
            </g>
        </g>
        <g transform="matrix(1,0,0,1,0,0)" opacity="1" style="display: block;">
            <g opacity="1" transform="matrix(1,0,0,1,0,0)">
                <path fill="rgb(0,0,0)" fill-opacity="1"
                      d=" M109.01200103759766,209.29600524902344 C109.01200103759766,209.29600524902344 100.27850341796875,209.29600524902344 100.27850341796875,209.29600524902344 C100.27850341796875,209.29600524902344 100.27850341796875,200.5625 100.27850341796875,200.5625 C100.27850341796875,200.5625 109.01200103759766,200.5625 109.01200103759766,200.5625 C109.01200103759766,200.5625 109.01200103759766,209.29600524902344 109.01200103759766,209.29600524902344z"></path>
            </g>
        </g>
        <g transform="matrix(1,0,0,1,0,0)" opacity="1" style="display: block;">
            <g opacity="1" transform="matrix(1,0,0,1,0,0)">
                <path fill="rgb(0,0,0)" fill-opacity="1"
                      d=" M109.01200103759766,192.57400512695312 C109.01200103759766,192.57400512695312 100.27850341796875,192.57400512695312 100.27850341796875,192.57400512695312 C100.27850341796875,192.57400512695312 100.27850341796875,183.8404998779297 100.27850341796875,183.8404998779297 C100.27850341796875,183.8404998779297 109.01200103759766,183.8404998779297 109.01200103759766,183.8404998779297 C109.01200103759766,183.8404998779297 109.01200103759766,192.57400512695312 109.01200103759766,192.57400512695312z"></path>
            </g>
        </g>
        <g transform="matrix(1,0,0,1,0,0)" opacity="1" style="display: block;">
            <g opacity="1" transform="matrix(1,0,0,1,0,0)">
                <path fill="rgb(0,0,0)" fill-opacity="1"
                      d=" M125.7229995727539,192.57400512695312 C125.7229995727539,192.57400512695312 116.989501953125,192.57400512695312 116.989501953125,192.57400512695312 C116.989501953125,192.57400512695312 116.989501953125,183.8404998779297 116.989501953125,183.8404998779297 C116.989501953125,183.8404998779297 125.7229995727539,183.8404998779297 125.7229995727539,183.8404998779297 C125.7229995727539,183.8404998779297 125.7229995727539,192.57400512695312 125.7229995727539,192.57400512695312z"></path>
            </g>
        </g>
        <g transform="matrix(1,0,0,1,0,0)" opacity="1" style="display: block;">
            <g opacity="1" transform="matrix(1,0,0,1,0,0)">
                <path fill="rgb(0,0,0)" fill-opacity="1"
                      d=" M142.43800354003906,192.57400512695312 C142.43800354003906,192.57400512695312 133.70449829101562,192.57400512695312 133.70449829101562,192.57400512695312 C133.70449829101562,192.57400512695312 133.70449829101562,183.8404998779297 133.70449829101562,183.8404998779297 C133.70449829101562,183.8404998779297 142.43800354003906,183.8404998779297 142.43800354003906,183.8404998779297 C142.43800354003906,183.8404998779297 142.43800354003906,192.57400512695312 142.43800354003906,192.57400512695312z"></path>
            </g>
        </g>
        <g transform="matrix(1,0,0,1,0,0)" opacity="1" style="display: block;">
            <g opacity="1" transform="matrix(1,0,0,1,0,0)">
                <path fill="rgb(0,0,0)" fill-opacity="1"
                      d=" M92.29879760742188,192.57400512695312 C92.29879760742188,192.57400512695312 83.56529998779297,192.57400512695312 83.56529998779297,192.57400512695312 C83.56529998779297,192.57400512695312 83.56529998779297,183.8404998779297 83.56529998779297,183.8404998779297 C83.56529998779297,183.8404998779297 92.29879760742188,183.8404998779297 92.29879760742188,183.8404998779297 C92.29879760742188,183.8404998779297 92.29879760742188,192.57400512695312 92.29879760742188,192.57400512695312z"></path>
            </g>
        </g>
        <g transform="matrix(1,0,0,1,0,0)" opacity="1" style="display: block;">
            <g opacity="1" transform="matrix(1,0,0,1,0,0)">
                <path fill="rgb(0,0,0)" fill-opacity="1"
                      d=" M125.69499969482422,175.86000061035156 C125.69499969482422,175.86000061035156 116.96150207519531,175.86000061035156 116.96150207519531,175.86000061035156 C116.96150207519531,175.86000061035156 116.96150207519531,167.12649536132812 116.96150207519531,167.12649536132812 C116.96150207519531,167.12649536132812 125.69499969482422,167.12649536132812 125.69499969482422,167.12649536132812 C125.69499969482422,167.12649536132812 125.69499969482422,175.86000061035156 125.69499969482422,175.86000061035156z"></path>
            </g>
        </g>
        <g transform="matrix(1,0,0,1,0,0)" opacity="1" style="display: block;">
            <g opacity="1" transform="matrix(1,0,0,1,0,0)">
                <path fill="rgb(0,0,0)" fill-opacity="1"
                      d=" M142.4080047607422,175.86000061035156 C142.4080047607422,175.86000061035156 133.67449951171875,175.86000061035156 133.67449951171875,175.86000061035156 C133.67449951171875,175.86000061035156 133.67449951171875,167.12649536132812 133.67449951171875,167.12649536132812 C133.67449951171875,167.12649536132812 142.4080047607422,167.12649536132812 142.4080047607422,167.12649536132812 C142.4080047607422,167.12649536132812 142.4080047607422,175.86000061035156 142.4080047607422,175.86000061035156z"></path>
            </g>
        </g>
        <g transform="matrix(1,0,0,1,0,0)" opacity="1" style="display: block;">
            <g opacity="1" transform="matrix(1,0,0,1,0,0)">
                <path fill="rgb(0,0,0)" fill-opacity="1"
                      d=" M108.98200225830078,175.86000061035156 C108.98200225830078,175.86000061035156 100.24849700927734,175.86000061035156 100.24849700927734,175.86000061035156 C100.24849700927734,175.86000061035156 100.24849700927734,167.12649536132812 100.24849700927734,167.12649536132812 C100.24849700927734,167.12649536132812 108.98200225830078,167.12649536132812 108.98200225830078,167.12649536132812 C108.98200225830078,167.12649536132812 108.98200225830078,175.86000061035156 108.98200225830078,175.86000061035156z"></path>
            </g>
        </g>
        <g transform="matrix(1,0,0,1,0,0)" opacity="1" style="display: block;">
            <g opacity="1" transform="matrix(1,0,0,1,0,0)">
                <path fill="rgb(0,0,0)" fill-opacity="1"
                      d=" M92.26950073242188,175.86000061035156 C92.26950073242188,175.86000061035156 83.53600311279297,175.86000061035156 83.53600311279297,175.86000061035156 C83.53600311279297,175.86000061035156 83.53600311279297,167.12649536132812 83.53600311279297,167.12649536132812 C83.53600311279297,167.12649536132812 92.26950073242188,167.12649536132812 92.26950073242188,167.12649536132812 C92.26950073242188,167.12649536132812 92.26950073242188,175.86000061035156 92.26950073242188,175.86000061035156z"></path>
            </g>
        </g>
        <g transform="matrix(1,0,0,1,0,0)" opacity="1" style="display: block;">
            <g opacity="1" transform="matrix(1,0,0,1,0,0)">
                <path fill="rgb(0,0,0)" fill-opacity="1"
                      d=" M142.43800354003906,159.14599609375 C142.43800354003906,159.14599609375 133.70449829101562,159.14599609375 133.70449829101562,159.14599609375 C133.70449829101562,159.14599609375 133.70449829101562,150.41250610351562 133.70449829101562,150.41250610351562 C133.70449829101562,150.41250610351562 142.43800354003906,150.41250610351562 142.43800354003906,150.41250610351562 C142.43800354003906,150.41250610351562 142.43800354003906,159.14599609375 142.43800354003906,159.14599609375z"></path>
            </g>
        </g>
        <g transform="matrix(1,0,0,1,0,0)" opacity="1" style="display: block;">
            <g opacity="1" transform="matrix(1,0,0,1,0,0)">
                <path fill="rgb(0,0,0)" fill-opacity="1"
                      d=" M75.58589935302734,159.14599609375 C75.58589935302734,159.14599609375 66.85240173339844,159.14599609375 66.85240173339844,159.14599609375 C66.85240173339844,159.14599609375 66.85240173339844,150.41250610351562 66.85240173339844,150.41250610351562 C66.85240173339844,150.41250610351562 75.58589935302734,150.41250610351562 75.58589935302734,150.41250610351562 C75.58589935302734,150.41250610351562 75.58589935302734,159.14599609375 75.58589935302734,159.14599609375z"></path>
            </g>
        </g>
        <g transform="matrix(1,0,0,1,0,0)" opacity="1" style="display: block;">
            <g opacity="1" transform="matrix(1,0,0,1,0,0)">
                <path fill="rgb(0,0,0)" fill-opacity="1"
                      d=" M92.29879760742188,159.14599609375 C92.29879760742188,159.14599609375 83.56529998779297,159.14599609375 83.56529998779297,159.14599609375 C83.56529998779297,159.14599609375 83.56529998779297,150.41250610351562 83.56529998779297,150.41250610351562 C83.56529998779297,150.41250610351562 92.29879760742188,150.41250610351562 92.29879760742188,150.41250610351562 C92.29879760742188,150.41250610351562 92.29879760742188,159.14599609375 92.29879760742188,159.14599609375z"></path>
            </g>
        </g>
        <g transform="matrix(1,0,0,1,0,0)" opacity="1" style="display: block;">
            <g opacity="1" transform="matrix(1,0,0,1,0,0)">
                <path fill="rgb(0,0,0)" fill-opacity="1"
                      d=" M159.14999389648438,159.14599609375 C159.14999389648438,159.14599609375 150.41639709472656,159.14599609375 150.41639709472656,159.14599609375 C150.41639709472656,159.14599609375 150.41639709472656,150.41250610351562 150.41639709472656,150.41250610351562 C150.41639709472656,150.41250610351562 159.14999389648438,150.41250610351562 159.14999389648438,150.41250610351562 C159.14999389648438,150.41250610351562 159.14999389648438,159.14599609375 159.14999389648438,159.14599609375z"></path>
            </g>
        </g>
        <g transform="matrix(1,0,0,1,0,0)" opacity="1" style="display: block;">
            <g opacity="1" transform="matrix(1,0,0,1,0,0)">
                <path fill="rgb(0,0,0)" fill-opacity="1"
                      d=" M125.7229995727539,159.14599609375 C125.7229995727539,159.14599609375 116.989501953125,159.14599609375 116.989501953125,159.14599609375 C116.989501953125,159.14599609375 116.989501953125,150.41250610351562 116.989501953125,150.41250610351562 C116.989501953125,150.41250610351562 125.7229995727539,150.41250610351562 125.7229995727539,150.41250610351562 C125.7229995727539,150.41250610351562 125.7229995727539,159.14599609375 125.7229995727539,159.14599609375z"></path>
            </g>
        </g>
        <g transform="matrix(1,0,0,1,0,0)" opacity="1" style="display: block;">
            <g opacity="1" transform="matrix(1,0,0,1,0,0)">
                <path fill="rgb(0,0,0)" fill-opacity="1"
                      d=" M109.01200103759766,159.14599609375 C109.01200103759766,159.14599609375 100.27850341796875,159.14599609375 100.27850341796875,159.14599609375 C100.27850341796875,159.14599609375 100.27850341796875,150.41250610351562 100.27850341796875,150.41250610351562 C100.27850341796875,150.41250610351562 109.01200103759766,150.41250610351562 109.01200103759766,150.41250610351562 C109.01200103759766,150.41250610351562 109.01200103759766,159.14599609375 109.01200103759766,159.14599609375z"></path>
            </g>
        </g>
        <g transform="matrix(1,0,0,1,0,0)" opacity="1" style="display: block;">
            <g opacity="1" transform="matrix(1,0,0,1,0,0)">
                <path fill="rgb(0,0,0)" fill-opacity="1"
                      d=" M58.845699310302734,142.43299865722656 C58.845699310302734,142.43299865722656 50.11220169067383,142.43299865722656 50.11220169067383,142.43299865722656 C50.11220169067383,142.43299865722656 50.11220169067383,133.69949340820312 50.11220169067383,133.69949340820312 C50.11220169067383,133.69949340820312 58.845699310302734,133.69949340820312 58.845699310302734,133.69949340820312 C58.845699310302734,133.69949340820312 58.845699310302734,142.43299865722656 58.845699310302734,142.43299865722656z"></path>
            </g>
        </g>
        <g transform="matrix(1,0,0,1,0,0)" opacity="1" style="display: block;">
            <g opacity="1" transform="matrix(1,0,0,1,0,0)">
                <path fill="rgb(0,0,0)" fill-opacity="1"
                      d=" M159.12100219726562,142.43299865722656 C159.12100219726562,142.43299865722656 150.3874969482422,142.43299865722656 150.3874969482422,142.43299865722656 C150.3874969482422,142.43299865722656 150.3874969482422,133.69949340820312 150.3874969482422,133.69949340820312 C150.3874969482422,133.69949340820312 159.12100219726562,133.69949340820312 159.12100219726562,133.69949340820312 C159.12100219726562,133.69949340820312 159.12100219726562,142.43299865722656 159.12100219726562,142.43299865722656z"></path>
            </g>
        </g>
        <g transform="matrix(1,0,0,1,0,0)" opacity="1" style="display: block;">
            <g opacity="1" transform="matrix(1,0,0,1,0,0)">
                <path fill="rgb(0,0,0)" fill-opacity="1"
                      d=" M75.55660247802734,142.43299865722656 C75.55660247802734,142.43299865722656 66.8230972290039,142.43299865722656 66.8230972290039,142.43299865722656 C66.8230972290039,142.43299865722656 66.8230972290039,133.69949340820312 66.8230972290039,133.69949340820312 C66.8230972290039,133.69949340820312 75.55660247802734,133.69949340820312 75.55660247802734,133.69949340820312 C75.55660247802734,133.69949340820312 75.55660247802734,142.43299865722656 75.55660247802734,142.43299865722656z"></path>
            </g>
        </g>
        <g transform="matrix(1,0,0,1,0,0)" opacity="1" style="display: block;">
            <g opacity="1" transform="matrix(1,0,0,1,0,0)">
                <path fill="rgb(0,0,0)" fill-opacity="1"
                      d=" M125.69499969482422,142.43299865722656 C125.69499969482422,142.43299865722656 116.96150207519531,142.43299865722656 116.96150207519531,142.43299865722656 C116.96150207519531,142.43299865722656 116.96150207519531,133.69949340820312 116.96150207519531,133.69949340820312 C116.96150207519531,133.69949340820312 125.69499969482422,133.69949340820312 125.69499969482422,133.69949340820312 C125.69499969482422,133.69949340820312 125.69499969482422,142.43299865722656 125.69499969482422,142.43299865722656z"></path>
            </g>
        </g>
        <g transform="matrix(1,0,0,1,0,0)" opacity="1" style="display: block;">
            <g opacity="1" transform="matrix(1,0,0,1,0,0)">
                <path fill="rgb(0,0,0)" fill-opacity="1"
                      d=" M42.13090133666992,142.43299865722656 C42.13090133666992,142.43299865722656 33.39739990234375,142.43299865722656 33.39739990234375,142.43299865722656 C33.39739990234375,142.43299865722656 33.39739990234375,133.69949340820312 33.39739990234375,133.69949340820312 C33.39739990234375,133.69949340820312 42.13090133666992,133.69949340820312 42.13090133666992,133.69949340820312 C42.13090133666992,133.69949340820312 42.13090133666992,142.43299865722656 42.13090133666992,142.43299865722656z"></path>
            </g>
        </g>
        <g transform="matrix(1,0,0,1,0,0)" opacity="1" style="display: block;">
            <g opacity="1" transform="matrix(1,0,0,1,0,0)">
                <path fill="rgb(0,0,0)" fill-opacity="1"
                      d=" M142.4080047607422,142.43299865722656 C142.4080047607422,142.43299865722656 133.67449951171875,142.43299865722656 133.67449951171875,142.43299865722656 C133.67449951171875,142.43299865722656 133.67449951171875,133.69949340820312 133.67449951171875,133.69949340820312 C133.67449951171875,133.69949340820312 142.4080047607422,133.69949340820312 142.4080047607422,133.69949340820312 C142.4080047607422,133.69949340820312 142.4080047607422,142.43299865722656 142.4080047607422,142.43299865722656z"></path>
            </g>
        </g>
        <g transform="matrix(1,0,0,1,0,0)" opacity="1" style="display: block;">
            <g opacity="1" transform="matrix(1,0,0,1,0,0)">
                <path fill="rgb(0,0,0)" fill-opacity="1"
                      d=" M175.83200073242188,142.43299865722656 C175.83200073242188,142.43299865722656 167.09849548339844,142.43299865722656 167.09849548339844,142.43299865722656 C167.09849548339844,142.43299865722656 167.09849548339844,133.69949340820312 167.09849548339844,133.69949340820312 C167.09849548339844,133.69949340820312 175.83200073242188,133.69949340820312 175.83200073242188,133.69949340820312 C175.83200073242188,133.69949340820312 175.83200073242188,142.43299865722656 175.83200073242188,142.43299865722656z"></path>
            </g>
        </g>
        <g transform="matrix(1,0,0,1,0,0)" opacity="1" style="display: block;">
            <g opacity="1" transform="matrix(1,0,0,1,0,0)">
                <path fill="rgb(0,0,0)" fill-opacity="1"
                      d=" M192.5449981689453,142.43299865722656 C192.5449981689453,142.43299865722656 183.81149291992188,142.43299865722656 183.81149291992188,142.43299865722656 C183.81149291992188,142.43299865722656 183.81149291992188,133.69949340820312 183.81149291992188,133.69949340820312 C183.81149291992188,133.69949340820312 192.5449981689453,133.69949340820312 192.5449981689453,133.69949340820312 C192.5449981689453,133.69949340820312 192.5449981689453,142.43299865722656 192.5449981689453,142.43299865722656z"></path>
            </g>
        </g>
        <g transform="matrix(1,0,0,1,0,0)" opacity="1" style="display: block;">
            <g opacity="1" transform="matrix(1,0,0,1,0,0)">
                <path fill="rgb(0,0,0)" fill-opacity="1"
                      d=" M108.98200225830078,142.43299865722656 C108.98200225830078,142.43299865722656 100.24849700927734,142.43299865722656 100.24849700927734,142.43299865722656 C100.24849700927734,142.43299865722656 100.24849700927734,133.69949340820312 100.24849700927734,133.69949340820312 C100.24849700927734,133.69949340820312 108.98200225830078,133.69949340820312 108.98200225830078,133.69949340820312 C108.98200225830078,133.69949340820312 108.98200225830078,142.43299865722656 108.98200225830078,142.43299865722656z"></path>
            </g>
        </g>
        <g transform="matrix(1,0,0,1,0,0)" opacity="1" style="display: block;">
            <g opacity="1" transform="matrix(1,0,0,1,0,0)">
                <path fill="rgb(0,0,0)" fill-opacity="1"
                      d=" M92.26950073242188,142.43299865722656 C92.26950073242188,142.43299865722656 83.53600311279297,142.43299865722656 83.53600311279297,142.43299865722656 C83.53600311279297,142.43299865722656 83.53600311279297,133.69949340820312 83.53600311279297,133.69949340820312 C83.53600311279297,133.69949340820312 92.26950073242188,133.69949340820312 92.26950073242188,133.69949340820312 C92.26950073242188,133.69949340820312 92.26950073242188,142.43299865722656 92.26950073242188,142.43299865722656z"></path>
            </g>
        </g>
        <g transform="matrix(1,0,0,1,0,0)" opacity="1" style="display: block;">
            <g opacity="1" transform="matrix(1,0,0,1,0,0)">
                <path fill="rgb(0,0,0)" fill-opacity="1"
                      d=" M226.0019989013672,125.71900177001953 C226.0019989013672,125.71900177001953 217.26849365234375,125.71900177001953 217.26849365234375,125.71900177001953 C217.26849365234375,125.71900177001953 217.26849365234375,116.9854965209961 217.26849365234375,116.9854965209961 C217.26849365234375,116.9854965209961 226.0019989013672,116.9854965209961 226.0019989013672,116.9854965209961 C226.0019989013672,116.9854965209961 226.0019989013672,125.71900177001953 226.0019989013672,125.71900177001953z"></path>
            </g>
        </g>
        <g transform="matrix(1,0,0,1,0,0)" opacity="1" style="display: block;">
            <g opacity="1" transform="matrix(1,0,0,1,0,0)">
                <path fill="rgb(0,0,0)" fill-opacity="1"
                      d=" M58.875,125.71900177001953 C58.875,125.71900177001953 50.14149856567383,125.71900177001953 50.14149856567383,125.71900177001953 C50.14149856567383,125.71900177001953 50.14149856567383,116.9854965209961 50.14149856567383,116.9854965209961 C50.14149856567383,116.9854965209961 58.875,116.9854965209961 58.875,116.9854965209961 C58.875,116.9854965209961 58.875,125.71900177001953 58.875,125.71900177001953z"></path>
            </g>
        </g>
        <g transform="matrix(1,0,0,1,0,0)" opacity="1" style="display: block;">
            <g opacity="1" transform="matrix(1,0,0,1,0,0)">
                <path fill="rgb(0,0,0)" fill-opacity="1"
                      d=" M142.43800354003906,125.71900177001953 C142.43800354003906,125.71900177001953 133.70449829101562,125.71900177001953 133.70449829101562,125.71900177001953 C133.70449829101562,125.71900177001953 133.70449829101562,116.9854965209961 133.70449829101562,116.9854965209961 C133.70449829101562,116.9854965209961 142.43800354003906,116.9854965209961 142.43800354003906,116.9854965209961 C142.43800354003906,116.9854965209961 142.43800354003906,125.71900177001953 142.43800354003906,125.71900177001953z"></path>
            </g>
        </g>
        <g transform="matrix(1,0,0,1,0,0)" opacity="1" style="display: block;">
            <g opacity="1" transform="matrix(1,0,0,1,0,0)">
                <path fill="rgb(0,0,0)" fill-opacity="1"
                      d=" M159.14999389648438,125.71900177001953 C159.14999389648438,125.71900177001953 150.41639709472656,125.71900177001953 150.41639709472656,125.71900177001953 C150.41639709472656,125.71900177001953 150.41639709472656,116.9854965209961 150.41639709472656,116.9854965209961 C150.41639709472656,116.9854965209961 159.14999389648438,116.9854965209961 159.14999389648438,116.9854965209961 C159.14999389648438,116.9854965209961 159.14999389648438,125.71900177001953 159.14999389648438,125.71900177001953z"></path>
            </g>
        </g>
        <g transform="matrix(1,0,0,1,0,0)" opacity="1" style="display: block;">
            <g opacity="1" transform="matrix(1,0,0,1,0,0)">
                <path fill="rgb(0,0,0)" fill-opacity="1"
                      d=" M209.28700256347656,125.71900177001953 C209.28700256347656,125.71900177001953 200.55349731445312,125.71900177001953 200.55349731445312,125.71900177001953 C200.55349731445312,125.71900177001953 200.55349731445312,116.9854965209961 200.55349731445312,116.9854965209961 C200.55349731445312,116.9854965209961 209.28700256347656,116.9854965209961 209.28700256347656,116.9854965209961 C209.28700256347656,116.9854965209961 209.28700256347656,125.71900177001953 209.28700256347656,125.71900177001953z"></path>
            </g>
        </g>
        <g transform="matrix(1,0,0,1,0,0)" opacity="1" style="display: block;">
            <g opacity="1" transform="matrix(1,0,0,1,0,0)">
                <path fill="rgb(0,0,0)" fill-opacity="1"
                      d=" M192.57400512695312,125.71900177001953 C192.57400512695312,125.71900177001953 183.8404998779297,125.71900177001953 183.8404998779297,125.71900177001953 C183.8404998779297,125.71900177001953 183.8404998779297,116.9854965209961 183.8404998779297,116.9854965209961 C183.8404998779297,116.9854965209961 192.57400512695312,116.9854965209961 192.57400512695312,116.9854965209961 C192.57400512695312,116.9854965209961 192.57400512695312,125.71900177001953 192.57400512695312,125.71900177001953z"></path>
            </g>
        </g>
        <g transform="matrix(1,0,0,1,0,0)" opacity="1" style="display: block;">
            <g opacity="1" transform="matrix(1,0,0,1,0,0)">
                <path fill="rgb(0,0,0)" fill-opacity="1"
                      d=" M75.58589935302734,125.71900177001953 C75.58589935302734,125.71900177001953 66.85240173339844,125.71900177001953 66.85240173339844,125.71900177001953 C66.85240173339844,125.71900177001953 66.85240173339844,116.9854965209961 66.85240173339844,116.9854965209961 C66.85240173339844,116.9854965209961 75.58589935302734,116.9854965209961 75.58589935302734,116.9854965209961 C75.58589935302734,116.9854965209961 75.58589935302734,125.71900177001953 75.58589935302734,125.71900177001953z"></path>
            </g>
        </g>
        <g transform="matrix(1,0,0,1,0,0)" opacity="1" style="display: block;">
            <g opacity="1" transform="matrix(1,0,0,1,0,0)">
                <path fill="rgb(0,0,0)" fill-opacity="1"
                      d=" M25.449199676513672,125.71900177001953 C25.449199676513672,125.71900177001953 16.715700149536133,125.71900177001953 16.715700149536133,125.71900177001953 C16.715700149536133,125.71900177001953 16.715700149536133,116.9854965209961 16.715700149536133,116.9854965209961 C16.715700149536133,116.9854965209961 25.449199676513672,116.9854965209961 25.449199676513672,116.9854965209961 C25.449199676513672,116.9854965209961 25.449199676513672,125.71900177001953 25.449199676513672,125.71900177001953z"></path>
            </g>
        </g>
        <g transform="matrix(1,0,0,1,0,0)" opacity="1" style="display: block;">
            <g opacity="1" transform="matrix(1,0,0,1,0,0)">
                <path fill="rgb(0,0,0)" fill-opacity="1"
                      d=" M109.01200103759766,125.71900177001953 C109.01200103759766,125.71900177001953 100.27850341796875,125.71900177001953 100.27850341796875,125.71900177001953 C100.27850341796875,125.71900177001953 100.27850341796875,116.9854965209961 100.27850341796875,116.9854965209961 C100.27850341796875,116.9854965209961 109.01200103759766,116.9854965209961 109.01200103759766,116.9854965209961 C109.01200103759766,116.9854965209961 109.01200103759766,125.71900177001953 109.01200103759766,125.71900177001953z"></path>
            </g>
        </g>
        <g transform="matrix(1,0,0,1,0,0)" opacity="1" style="display: block;">
            <g opacity="1" transform="matrix(1,0,0,1,0,0)">
                <path fill="rgb(0,0,0)" fill-opacity="1"
                      d=" M92.29879760742188,125.71900177001953 C92.29879760742188,125.71900177001953 83.56529998779297,125.71900177001953 83.56529998779297,125.71900177001953 C83.56529998779297,125.71900177001953 83.56529998779297,116.9854965209961 83.56529998779297,116.9854965209961 C83.56529998779297,116.9854965209961 92.29879760742188,116.9854965209961 92.29879760742188,116.9854965209961 C92.29879760742188,116.9854965209961 92.29879760742188,125.71900177001953 92.29879760742188,125.71900177001953z"></path>
            </g>
        </g>
        <g transform="matrix(1,0,0,1,0,0)" opacity="1" style="display: block;">
            <g opacity="1" transform="matrix(1,0,0,1,0,0)">
                <path fill="rgb(0,0,0)" fill-opacity="1"
                      d=" M175.86099243164062,125.71900177001953 C175.86099243164062,125.71900177001953 167.1273956298828,125.71900177001953 167.1273956298828,125.71900177001953 C167.1273956298828,125.71900177001953 167.1273956298828,116.9854965209961 167.1273956298828,116.9854965209961 C167.1273956298828,116.9854965209961 175.86099243164062,116.9854965209961 175.86099243164062,116.9854965209961 C175.86099243164062,116.9854965209961 175.86099243164062,125.71900177001953 175.86099243164062,125.71900177001953z"></path>
            </g>
        </g>
        <g transform="matrix(1,0,0,1,0,0)" opacity="1" style="display: block;">
            <g opacity="1" transform="matrix(1,0,0,1,0,0)">
                <path fill="rgb(0,0,0)" fill-opacity="1"
                      d=" M125.7229995727539,125.71900177001953 C125.7229995727539,125.71900177001953 116.989501953125,125.71900177001953 116.989501953125,125.71900177001953 C116.989501953125,125.71900177001953 116.989501953125,116.9854965209961 116.989501953125,116.9854965209961 C116.989501953125,116.9854965209961 125.7229995727539,116.9854965209961 125.7229995727539,116.9854965209961 C125.7229995727539,116.9854965209961 125.7229995727539,125.71900177001953 125.7229995727539,125.71900177001953z"></path>
            </g>
        </g>
        <g transform="matrix(1,0,0,1,0,0)" opacity="1" style="display: block;">
            <g opacity="1" transform="matrix(1,0,0,1,0,0)">
                <path fill="rgb(0,0,0)" fill-opacity="1"
                      d=" M8.744099617004395,125.71900177001953 C8.744099617004395,125.71900177001953 0.010599999688565731,125.71900177001953 0.010599999688565731,125.71900177001953 C0.010599999688565731,125.71900177001953 0.010599999688565731,116.9854965209961 0.010599999688565731,116.9854965209961 C0.010599999688565731,116.9854965209961 8.744099617004395,116.9854965209961 8.744099617004395,116.9854965209961 C8.744099617004395,116.9854965209961 8.744099617004395,125.71900177001953 8.744099617004395,125.71900177001953z"></path>
            </g>
        </g>
        <g transform="matrix(1,0,0,1,0,0)" opacity="1" style="display: block;">
            <g opacity="1" transform="matrix(1,0,0,1,0,0)">
                <path fill="rgb(0,0,0)" fill-opacity="1"
                      d=" M42.16019821166992,125.71900177001953 C42.16019821166992,125.71900177001953 33.426700592041016,125.71900177001953 33.426700592041016,125.71900177001953 C33.426700592041016,125.71900177001953 33.426700592041016,116.9854965209961 33.426700592041016,116.9854965209961 C33.426700592041016,116.9854965209961 42.16019821166992,116.9854965209961 42.16019821166992,116.9854965209961 C42.16019821166992,116.9854965209961 42.16019821166992,125.71900177001953 42.16019821166992,125.71900177001953z"></path>
            </g>
        </g>
        <g transform="matrix(1,0,0,1,0,0)" opacity="1" style="display: block;">
            <g opacity="1" transform="matrix(1,0,0,1,0,0)">
                <path fill="rgb(0,0,0)" fill-opacity="1"
                      d=" M100.2770004272461,100.28099822998047 C100.2770004272461,100.28099822998047 109.010498046875,100.28099822998047 109.010498046875,100.28099822998047 C109.010498046875,100.28099822998047 109.010498046875,109.0145034790039 109.010498046875,109.0145034790039 C109.010498046875,109.0145034790039 100.2770004272461,109.0145034790039 100.2770004272461,109.0145034790039 C100.2770004272461,109.0145034790039 100.2770004272461,100.28099822998047 100.2770004272461,100.28099822998047z"></path>
            </g>
        </g>
        <g transform="matrix(1,0,0,1,0,0)" opacity="1" style="display: block;">
            <g opacity="1" transform="matrix(1,0,0,1,0,0)">
                <path fill="rgb(0,0,0)" fill-opacity="1"
                      d=" M150.41400146484375,100.28099822998047 C150.41400146484375,100.28099822998047 159.1475067138672,100.28099822998047 159.1475067138672,100.28099822998047 C159.1475067138672,100.28099822998047 159.1475067138672,109.0145034790039 159.1475067138672,109.0145034790039 C159.1475067138672,109.0145034790039 150.41400146484375,109.0145034790039 150.41400146484375,109.0145034790039 C150.41400146484375,109.0145034790039 150.41400146484375,100.28099822998047 150.41400146484375,100.28099822998047z"></path>
            </g>
        </g>
        <g transform="matrix(1,0,0,1,0,0)" opacity="1" style="display: block;">
            <g opacity="1" transform="matrix(1,0,0,1,0,0)">
                <path fill="rgb(0,0,0)" fill-opacity="1"
                      d=" M16.714799880981445,100.28099822998047 C16.714799880981445,100.28099822998047 25.448299407958984,100.28099822998047 25.448299407958984,100.28099822998047 C25.448299407958984,100.28099822998047 25.448299407958984,109.0145034790039 25.448299407958984,109.0145034790039 C25.448299407958984,109.0145034790039 16.714799880981445,109.0145034790039 16.714799880981445,109.0145034790039 C16.714799880981445,109.0145034790039 16.714799880981445,100.28099822998047 16.714799880981445,100.28099822998047z"></path>
            </g>
        </g>
        <g transform="matrix(1,0,0,1,0,0)" opacity="1" style="display: block;">
            <g opacity="1" transform="matrix(1,0,0,1,0,0)">
                <path fill="rgb(0,0,0)" fill-opacity="1"
                      d=" M50.13869857788086,100.28099822998047 C50.13869857788086,100.28099822998047 58.87220001220703,100.28099822998047 58.87220001220703,100.28099822998047 C58.87220001220703,100.28099822998047 58.87220001220703,109.0145034790039 58.87220001220703,109.0145034790039 C58.87220001220703,109.0145034790039 50.13869857788086,109.0145034790039 50.13869857788086,109.0145034790039 C50.13869857788086,109.0145034790039 50.13869857788086,100.28099822998047 50.13869857788086,100.28099822998047z"></path>
            </g>
        </g>
        <g transform="matrix(1,0,0,1,0,0)" opacity="1" style="display: block;">
            <g opacity="1" transform="matrix(1,0,0,1,0,0)">
                <path fill="rgb(0,0,0)" fill-opacity="1"
                      d=" M183.83999633789062,100.28099822998047 C183.83999633789062,100.28099822998047 192.57350158691406,100.28099822998047 192.57350158691406,100.28099822998047 C192.57350158691406,100.28099822998047 192.57350158691406,109.0145034790039 192.57350158691406,109.0145034790039 C192.57350158691406,109.0145034790039 183.83999633789062,109.0145034790039 183.83999633789062,109.0145034790039 C183.83999633789062,109.0145034790039 183.83999633789062,100.28099822998047 183.83999633789062,100.28099822998047z"></path>
            </g>
        </g>
        <g transform="matrix(1,0,0,1,0,0)" opacity="1" style="display: block;">
            <g opacity="1" transform="matrix(1,0,0,1,0,0)">
                <path fill="rgb(0,0,0)" fill-opacity="1"
                      d=" M33.42770004272461,100.28099822998047 C33.42770004272461,100.28099822998047 42.16120147705078,100.28099822998047 42.16120147705078,100.28099822998047 C42.16120147705078,100.28099822998047 42.16120147705078,109.0145034790039 42.16120147705078,109.0145034790039 C42.16120147705078,109.0145034790039 33.42770004272461,109.0145034790039 33.42770004272461,109.0145034790039 C33.42770004272461,109.0145034790039 33.42770004272461,100.28099822998047 33.42770004272461,100.28099822998047z"></path>
            </g>
        </g>
        <g transform="matrix(1,0,0,1,0,0)" opacity="1" style="display: block;">
            <g opacity="1" transform="matrix(1,0,0,1,0,0)">
                <path fill="rgb(0,0,0)" fill-opacity="1"
                      d=" M167.12899780273438,100.28099822998047 C167.12899780273438,100.28099822998047 175.8625030517578,100.28099822998047 175.8625030517578,100.28099822998047 C175.8625030517578,100.28099822998047 175.8625030517578,109.0145034790039 175.8625030517578,109.0145034790039 C175.8625030517578,109.0145034790039 167.12899780273438,109.0145034790039 167.12899780273438,109.0145034790039 C167.12899780273438,109.0145034790039 167.12899780273438,100.28099822998047 167.12899780273438,100.28099822998047z"></path>
            </g>
        </g>
        <g transform="matrix(1,0,0,1,0,0)" opacity="1" style="display: block;">
            <g opacity="1" transform="matrix(1,0,0,1,0,0)">
                <path fill="rgb(0,0,0)" fill-opacity="1"
                      d=" M133.7030029296875,100.28099822998047 C133.7030029296875,100.28099822998047 142.43649291992188,100.28099822998047 142.43649291992188,100.28099822998047 C142.43649291992188,100.28099822998047 142.43649291992188,109.0145034790039 142.43649291992188,109.0145034790039 C142.43649291992188,109.0145034790039 133.7030029296875,109.0145034790039 133.7030029296875,109.0145034790039 C133.7030029296875,109.0145034790039 133.7030029296875,100.28099822998047 133.7030029296875,100.28099822998047z"></path>
            </g>
        </g>
        <g transform="matrix(1,0,0,1,0,0)" opacity="1" style="display: block;">
            <g opacity="1" transform="matrix(1,0,0,1,0,0)">
                <path fill="rgb(0,0,0)" fill-opacity="1"
                      d=" M83.56639862060547,100.28099822998047 C83.56639862060547,100.28099822998047 92.29989624023438,100.28099822998047 92.29989624023438,100.28099822998047 C92.29989624023438,100.28099822998047 92.29989624023438,109.0145034790039 92.29989624023438,109.0145034790039 C92.29989624023438,109.0145034790039 83.56639862060547,109.0145034790039 83.56639862060547,109.0145034790039 C83.56639862060547,109.0145034790039 83.56639862060547,100.28099822998047 83.56639862060547,100.28099822998047z"></path>
            </g>
        </g>
        <g transform="matrix(1,0,0,1,0,0)" opacity="1" style="display: block;">
            <g opacity="1" transform="matrix(1,0,0,1,0,0)">
                <path fill="rgb(0,0,0)" fill-opacity="1"
                      d=" M116.98999786376953,100.28099822998047 C116.98999786376953,100.28099822998047 125.72350311279297,100.28099822998047 125.72350311279297,100.28099822998047 C125.72350311279297,100.28099822998047 125.72350311279297,109.0145034790039 125.72350311279297,109.0145034790039 C125.72350311279297,109.0145034790039 116.98999786376953,109.0145034790039 116.98999786376953,109.0145034790039 C116.98999786376953,109.0145034790039 116.98999786376953,100.28099822998047 116.98999786376953,100.28099822998047z"></path>
            </g>
        </g>
        <g transform="matrix(1,0,0,1,0,0)" opacity="1" style="display: block;">
            <g opacity="1" transform="matrix(1,0,0,1,0,0)">
                <path fill="rgb(0,0,0)" fill-opacity="1"
                      d=" M66.85160064697266,100.28099822998047 C66.85160064697266,100.28099822998047 75.58509826660156,100.28099822998047 75.58509826660156,100.28099822998047 C75.58509826660156,100.28099822998047 75.58509826660156,109.0145034790039 75.58509826660156,109.0145034790039 C75.58509826660156,109.0145034790039 66.85160064697266,109.0145034790039 66.85160064697266,109.0145034790039 C66.85160064697266,109.0145034790039 66.85160064697266,100.28099822998047 66.85160064697266,100.28099822998047z"></path>
            </g>
        </g>
        <g transform="matrix(1,0,0,1,0,0)" opacity="1" style="display: block;">
            <g opacity="1" transform="matrix(1,0,0,1,0,0)">
                <path fill="rgb(0,0,0)" fill-opacity="1"
                      d=" M217.25799560546875,100.28099822998047 C217.25799560546875,100.28099822998047 225.9915008544922,100.28099822998047 225.9915008544922,100.28099822998047 C225.9915008544922,100.28099822998047 225.9915008544922,109.0145034790039 225.9915008544922,109.0145034790039 C225.9915008544922,109.0145034790039 217.25799560546875,109.0145034790039 217.25799560546875,109.0145034790039 C217.25799560546875,109.0145034790039 217.25799560546875,100.28099822998047 217.25799560546875,100.28099822998047z"></path>
            </g>
        </g>
        <g transform="matrix(1,0,0,1,0,0)" opacity="1" style="display: block;">
            <g opacity="1" transform="matrix(1,0,0,1,0,0)">
                <path fill="rgb(0,0,0)" fill-opacity="1"
                      d=" M200.55299377441406,100.28099822998047 C200.55299377441406,100.28099822998047 209.2864990234375,100.28099822998047 209.2864990234375,100.28099822998047 C209.2864990234375,100.28099822998047 209.2864990234375,109.0145034790039 209.2864990234375,109.0145034790039 C209.2864990234375,109.0145034790039 200.55299377441406,109.0145034790039 200.55299377441406,109.0145034790039 C200.55299377441406,109.0145034790039 200.55299377441406,100.28099822998047 200.55299377441406,100.28099822998047z"></path>
            </g>
        </g>
        <g transform="matrix(1,0,0,1,0,0)" opacity="1" style="display: block;">
            <g opacity="1" transform="matrix(1,0,0,1,0,0)">
                <path fill="rgb(0,0,0)" fill-opacity="1"
                      d=" M0,100.28099822998047 C0,100.28099822998047 8.733499526977539,100.28099822998047 8.733499526977539,100.28099822998047 C8.733499526977539,100.28099822998047 8.733499526977539,109.0145034790039 8.733499526977539,109.0145034790039 C8.733499526977539,109.0145034790039 0,109.0145034790039 0,109.0145034790039 C0,109.0145034790039 0,100.28099822998047 0,100.28099822998047z"></path>
            </g>
        </g>
        <g transform="matrix(1,0,0,1,0,0)" opacity="1" style="display: block;">
            <g opacity="1" transform="matrix(1,0,0,1,0,0)">
                <path fill="rgb(0,0,0)" fill-opacity="1"
                      d=" M167.1580047607422,83.56739807128906 C167.1580047607422,83.56739807128906 175.89149475097656,83.56739807128906 175.89149475097656,83.56739807128906 C175.89149475097656,83.56739807128906 175.89149475097656,92.3009033203125 175.89149475097656,92.3009033203125 C175.89149475097656,92.3009033203125 167.1580047607422,92.3009033203125 167.1580047607422,92.3009033203125 C167.1580047607422,92.3009033203125 167.1580047607422,83.56739807128906 167.1580047607422,83.56739807128906z"></path>
            </g>
        </g>
        <g transform="matrix(1,0,0,1,0,0)" opacity="1" style="display: block;">
            <g opacity="1" transform="matrix(1,0,0,1,0,0)">
                <path fill="rgb(0,0,0)" fill-opacity="1"
                      d=" M150.4429931640625,83.56739807128906 C150.4429931640625,83.56739807128906 159.17649841308594,83.56739807128906 159.17649841308594,83.56739807128906 C159.17649841308594,83.56739807128906 159.17649841308594,92.3009033203125 159.17649841308594,92.3009033203125 C159.17649841308594,92.3009033203125 150.4429931640625,92.3009033203125 150.4429931640625,92.3009033203125 C150.4429931640625,92.3009033203125 150.4429931640625,83.56739807128906 150.4429931640625,83.56739807128906z"></path>
            </g>
        </g>
        <g transform="matrix(1,0,0,1,0,0)" opacity="1" style="display: block;">
            <g opacity="1" transform="matrix(1,0,0,1,0,0)">
                <path fill="rgb(0,0,0)" fill-opacity="1"
                      d=" M100.30699920654297,83.56739807128906 C100.30699920654297,83.56739807128906 109.04049682617188,83.56739807128906 109.04049682617188,83.56739807128906 C109.04049682617188,83.56739807128906 109.04049682617188,92.3009033203125 109.04049682617188,92.3009033203125 C109.04049682617188,92.3009033203125 100.30699920654297,92.3009033203125 100.30699920654297,92.3009033203125 C100.30699920654297,92.3009033203125 100.30699920654297,83.56739807128906 100.30699920654297,83.56739807128906z"></path>
            </g>
        </g>
        <g transform="matrix(1,0,0,1,0,0)" opacity="1" style="display: block;">
            <g opacity="1" transform="matrix(1,0,0,1,0,0)">
                <path fill="rgb(0,0,0)" fill-opacity="1"
                      d=" M66.88089752197266,83.56739807128906 C66.88089752197266,83.56739807128906 75.6144027709961,83.56739807128906 75.6144027709961,83.56739807128906 C75.6144027709961,83.56739807128906 75.6144027709961,92.3009033203125 75.6144027709961,92.3009033203125 C75.6144027709961,92.3009033203125 66.88089752197266,92.3009033203125 66.88089752197266,92.3009033203125 C66.88089752197266,92.3009033203125 66.88089752197266,83.56739807128906 66.88089752197266,83.56739807128906z"></path>
            </g>
        </g>
        <g transform="matrix(1,0,0,1,0,0)" opacity="1" style="display: block;">
            <g opacity="1" transform="matrix(1,0,0,1,0,0)">
                <path fill="rgb(0,0,0)" fill-opacity="1"
                      d=" M133.73199462890625,83.56739807128906 C133.73199462890625,83.56739807128906 142.4654998779297,83.56739807128906 142.4654998779297,83.56739807128906 C142.4654998779297,83.56739807128906 142.4654998779297,92.3009033203125 142.4654998779297,92.3009033203125 C142.4654998779297,92.3009033203125 133.73199462890625,92.3009033203125 133.73199462890625,92.3009033203125 C133.73199462890625,92.3009033203125 133.73199462890625,83.56739807128906 133.73199462890625,83.56739807128906z"></path>
            </g>
        </g>
        <g transform="matrix(1,0,0,1,0,0)" opacity="1" style="display: block;">
            <g opacity="1" transform="matrix(1,0,0,1,0,0)">
                <path fill="rgb(0,0,0)" fill-opacity="1"
                      d=" M117.0199966430664,83.56739807128906 C117.0199966430664,83.56739807128906 125.75350189208984,83.56739807128906 125.75350189208984,83.56739807128906 C125.75350189208984,83.56739807128906 125.75350189208984,92.3009033203125 125.75350189208984,92.3009033203125 C125.75350189208984,92.3009033203125 117.0199966430664,92.3009033203125 117.0199966430664,92.3009033203125 C117.0199966430664,92.3009033203125 117.0199966430664,83.56739807128906 117.0199966430664,83.56739807128906z"></path>
            </g>
        </g>
        <g transform="matrix(1,0,0,1,0,0)" opacity="1" style="display: block;">
            <g opacity="1" transform="matrix(1,0,0,1,0,0)">
                <path fill="rgb(0,0,0)" fill-opacity="1"
                      d=" M83.595703125,83.56739807128906 C83.595703125,83.56739807128906 92.3292007446289,83.56739807128906 92.3292007446289,83.56739807128906 C92.3292007446289,83.56739807128906 92.3292007446289,92.3009033203125 92.3292007446289,92.3009033203125 C92.3292007446289,92.3009033203125 83.595703125,92.3009033203125 83.595703125,92.3009033203125 C83.595703125,92.3009033203125 83.595703125,83.56739807128906 83.595703125,83.56739807128906z"></path>
            </g>
        </g>
        <g transform="matrix(1,0,0,1,0,0)" opacity="1" style="display: block;">
            <g opacity="1" transform="matrix(1,0,0,1,0,0)">
                <path fill="rgb(0,0,0)" fill-opacity="1"
                      d=" M183.86900329589844,83.56739807128906 C183.86900329589844,83.56739807128906 192.6024932861328,83.56739807128906 192.6024932861328,83.56739807128906 C192.6024932861328,83.56739807128906 192.6024932861328,92.3009033203125 192.6024932861328,92.3009033203125 C192.6024932861328,92.3009033203125 183.86900329589844,92.3009033203125 183.86900329589844,92.3009033203125 C183.86900329589844,92.3009033203125 183.86900329589844,83.56739807128906 183.86900329589844,83.56739807128906z"></path>
            </g>
        </g>
        <g transform="matrix(1,0,0,1,0,0)" opacity="1" style="display: block;">
            <g opacity="1" transform="matrix(1,0,0,1,0,0)">
                <path fill="rgb(0,0,0)" fill-opacity="1"
                      d=" M33.457000732421875,83.56739807128906 C33.457000732421875,83.56739807128906 42.19049835205078,83.56739807128906 42.19049835205078,83.56739807128906 C42.19049835205078,83.56739807128906 42.19049835205078,92.3009033203125 42.19049835205078,92.3009033203125 C42.19049835205078,92.3009033203125 33.457000732421875,92.3009033203125 33.457000732421875,92.3009033203125 C33.457000732421875,92.3009033203125 33.457000732421875,83.56739807128906 33.457000732421875,83.56739807128906z"></path>
            </g>
        </g>
        <g transform="matrix(1,0,0,1,0,0)" opacity="1" style="display: block;">
            <g opacity="1" transform="matrix(1,0,0,1,0,0)">
                <path fill="rgb(0,0,0)" fill-opacity="1"
                      d=" M50.167999267578125,83.56739807128906 C50.167999267578125,83.56739807128906 58.9015007019043,83.56739807128906 58.9015007019043,83.56739807128906 C58.9015007019043,83.56739807128906 58.9015007019043,92.3009033203125 58.9015007019043,92.3009033203125 C58.9015007019043,92.3009033203125 50.167999267578125,92.3009033203125 50.167999267578125,92.3009033203125 C50.167999267578125,92.3009033203125 50.167999267578125,83.56739807128906 50.167999267578125,83.56739807128906z"></path>
            </g>
        </g>
        <g transform="matrix(1,0,0,1,0,0)" opacity="1" style="display: block;">
            <g opacity="1" transform="matrix(1,0,0,1,0,0)">
                <path fill="rgb(0,0,0)" fill-opacity="1"
                      d=" M116.98999786376953,66.85350036621094 C116.98999786376953,66.85350036621094 125.72350311279297,66.85350036621094 125.72350311279297,66.85350036621094 C125.72350311279297,66.85350036621094 125.72350311279297,75.58699798583984 125.72350311279297,75.58699798583984 C125.72350311279297,75.58699798583984 116.98999786376953,75.58699798583984 116.98999786376953,75.58699798583984 C116.98999786376953,75.58699798583984 116.98999786376953,66.85350036621094 116.98999786376953,66.85350036621094z"></path>
            </g>
        </g>
        <g transform="matrix(1,0,0,1,0,0)" opacity="1" style="display: block;">
            <g opacity="1" transform="matrix(1,0,0,1,0,0)">
                <path fill="rgb(0,0,0)" fill-opacity="1"
                      d=" M83.56639862060547,66.85350036621094 C83.56639862060547,66.85350036621094 92.29989624023438,66.85350036621094 92.29989624023438,66.85350036621094 C92.29989624023438,66.85350036621094 92.29989624023438,75.58699798583984 92.29989624023438,75.58699798583984 C92.29989624023438,75.58699798583984 83.56639862060547,75.58699798583984 83.56639862060547,75.58699798583984 C83.56639862060547,75.58699798583984 83.56639862060547,66.85350036621094 83.56639862060547,66.85350036621094z"></path>
            </g>
        </g>
        <g transform="matrix(1,0,0,1,0,0)" opacity="1" style="display: block;">
            <g opacity="1" transform="matrix(1,0,0,1,0,0)">
                <path fill="rgb(0,0,0)" fill-opacity="1"
                      d=" M66.85160064697266,66.85350036621094 C66.85160064697266,66.85350036621094 75.58509826660156,66.85350036621094 75.58509826660156,66.85350036621094 C75.58509826660156,66.85350036621094 75.58509826660156,75.58699798583984 75.58509826660156,75.58699798583984 C75.58509826660156,75.58699798583984 66.85160064697266,75.58699798583984 66.85160064697266,75.58699798583984 C66.85160064697266,75.58699798583984 66.85160064697266,66.85350036621094 66.85160064697266,66.85350036621094z"></path>
            </g>
        </g>
        <g transform="matrix(1,0,0,1,0,0)" opacity="1" style="display: block;">
            <g opacity="1" transform="matrix(1,0,0,1,0,0)">
                <path fill="rgb(0,0,0)" fill-opacity="1"
                      d=" M150.41400146484375,66.85350036621094 C150.41400146484375,66.85350036621094 159.1475067138672,66.85350036621094 159.1475067138672,66.85350036621094 C159.1475067138672,66.85350036621094 159.1475067138672,75.58699798583984 159.1475067138672,75.58699798583984 C159.1475067138672,75.58699798583984 150.41400146484375,75.58699798583984 150.41400146484375,75.58699798583984 C150.41400146484375,75.58699798583984 150.41400146484375,66.85350036621094 150.41400146484375,66.85350036621094z"></path>
            </g>
        </g>
        <g transform="matrix(1,0,0,1,0,0)" opacity="1" style="display: block;">
            <g opacity="1" transform="matrix(1,0,0,1,0,0)">
                <path fill="rgb(0,0,0)" fill-opacity="1"
                      d=" M133.7030029296875,66.85350036621094 C133.7030029296875,66.85350036621094 142.43649291992188,66.85350036621094 142.43649291992188,66.85350036621094 C142.43649291992188,66.85350036621094 142.43649291992188,75.58699798583984 142.43649291992188,75.58699798583984 C142.43649291992188,75.58699798583984 133.7030029296875,75.58699798583984 133.7030029296875,75.58699798583984 C133.7030029296875,75.58699798583984 133.7030029296875,66.85350036621094 133.7030029296875,66.85350036621094z"></path>
            </g>
        </g>
        <g transform="matrix(1,0,0,1,0,0)" opacity="1" style="display: block;">
            <g opacity="1" transform="matrix(1,0,0,1,0,0)">
                <path fill="rgb(0,0,0)" fill-opacity="1"
                      d=" M100.2770004272461,66.85350036621094 C100.2770004272461,66.85350036621094 109.010498046875,66.85350036621094 109.010498046875,66.85350036621094 C109.010498046875,66.85350036621094 109.010498046875,75.58699798583984 109.010498046875,75.58699798583984 C109.010498046875,75.58699798583984 100.2770004272461,75.58699798583984 100.2770004272461,75.58699798583984 C100.2770004272461,75.58699798583984 100.2770004272461,66.85350036621094 100.2770004272461,66.85350036621094z"></path>
            </g>
        </g>
        <g transform="matrix(1,0,0,1,0,0)" opacity="1" style="display: block;">
            <g opacity="1" transform="matrix(1,0,0,1,0,0)">
                <path fill="rgb(0,0,0)" fill-opacity="1"
                      d=" M117.0199966430664,50.13959884643555 C117.0199966430664,50.13959884643555 125.75350189208984,50.13959884643555 125.75350189208984,50.13959884643555 C125.75350189208984,50.13959884643555 125.75350189208984,58.87310028076172 125.75350189208984,58.87310028076172 C125.75350189208984,58.87310028076172 117.0199966430664,58.87310028076172 117.0199966430664,58.87310028076172 C117.0199966430664,58.87310028076172 117.0199966430664,50.13959884643555 117.0199966430664,50.13959884643555z"></path>
            </g>
        </g>
        <g transform="matrix(1,0,0,1,0,0)" opacity="1" style="display: block;">
            <g opacity="1" transform="matrix(1,0,0,1,0,0)">
                <path fill="rgb(0,0,0)" fill-opacity="1"
                      d=" M100.30699920654297,50.13959884643555 C100.30699920654297,50.13959884643555 109.04049682617188,50.13959884643555 109.04049682617188,50.13959884643555 C109.04049682617188,50.13959884643555 109.04049682617188,58.87310028076172 109.04049682617188,58.87310028076172 C109.04049682617188,58.87310028076172 100.30699920654297,58.87310028076172 100.30699920654297,58.87310028076172 C100.30699920654297,58.87310028076172 100.30699920654297,50.13959884643555 100.30699920654297,50.13959884643555z"></path>
            </g>
        </g>
        <g transform="matrix(1,0,0,1,0,0)" opacity="1" style="display: block;">
            <g opacity="1" transform="matrix(1,0,0,1,0,0)">
                <path fill="rgb(0,0,0)" fill-opacity="1"
                      d=" M133.73199462890625,50.13959884643555 C133.73199462890625,50.13959884643555 142.4654998779297,50.13959884643555 142.4654998779297,50.13959884643555 C142.4654998779297,50.13959884643555 142.4654998779297,58.87310028076172 142.4654998779297,58.87310028076172 C142.4654998779297,58.87310028076172 133.73199462890625,58.87310028076172 133.73199462890625,58.87310028076172 C133.73199462890625,58.87310028076172 133.73199462890625,50.13959884643555 133.73199462890625,50.13959884643555z"></path>
            </g>
        </g>
        <g transform="matrix(1,0,0,1,0,0)" opacity="1" style="display: block;">
            <g opacity="1" transform="matrix(1,0,0,1,0,0)">
                <path fill="rgb(0,0,0)" fill-opacity="1"
                      d=" M83.595703125,50.13959884643555 C83.595703125,50.13959884643555 92.3292007446289,50.13959884643555 92.3292007446289,50.13959884643555 C92.3292007446289,50.13959884643555 92.3292007446289,58.87310028076172 92.3292007446289,58.87310028076172 C92.3292007446289,58.87310028076172 83.595703125,58.87310028076172 83.595703125,58.87310028076172 C83.595703125,58.87310028076172 83.595703125,50.13959884643555 83.595703125,50.13959884643555z"></path>
            </g>
        </g>
        <g transform="matrix(1,0,0,1,0,0)" opacity="1" style="display: block;">
            <g opacity="1" transform="matrix(1,0,0,1,0,0)">
                <path fill="rgb(0,0,0)" fill-opacity="1"
                      d=" M116.98999786376953,33.42580032348633 C116.98999786376953,33.42580032348633 125.72350311279297,33.42580032348633 125.72350311279297,33.42580032348633 C125.72350311279297,33.42580032348633 125.72350311279297,42.1593017578125 125.72350311279297,42.1593017578125 C125.72350311279297,42.1593017578125 116.98999786376953,42.1593017578125 116.98999786376953,42.1593017578125 C116.98999786376953,42.1593017578125 116.98999786376953,33.42580032348633 116.98999786376953,33.42580032348633z"></path>
            </g>
        </g>
        <g transform="matrix(1,0,0,1,0,0)" opacity="1" style="display: block;">
            <g opacity="1" transform="matrix(1,0,0,1,0,0)">
                <path fill="rgb(0,0,0)" fill-opacity="1"
                      d=" M133.7030029296875,33.42580032348633 C133.7030029296875,33.42580032348633 142.43649291992188,33.42580032348633 142.43649291992188,33.42580032348633 C142.43649291992188,33.42580032348633 142.43649291992188,42.1593017578125 142.43649291992188,42.1593017578125 C142.43649291992188,42.1593017578125 133.7030029296875,42.1593017578125 133.7030029296875,42.1593017578125 C133.7030029296875,42.1593017578125 133.7030029296875,33.42580032348633 133.7030029296875,33.42580032348633z"></path>
            </g>
        </g>
        <g transform="matrix(1,0,0,1,0,0)" opacity="1" style="display: block;">
            <g opacity="1" transform="matrix(1,0,0,1,0,0)">
                <path fill="rgb(0,0,0)" fill-opacity="1"
                      d=" M83.56639862060547,33.42580032348633 C83.56639862060547,33.42580032348633 92.29989624023438,33.42580032348633 92.29989624023438,33.42580032348633 C92.29989624023438,33.42580032348633 92.29989624023438,42.1593017578125 92.29989624023438,42.1593017578125 C92.29989624023438,42.1593017578125 83.56639862060547,42.1593017578125 83.56639862060547,42.1593017578125 C83.56639862060547,42.1593017578125 83.56639862060547,33.42580032348633 83.56639862060547,33.42580032348633z"></path>
            </g>
        </g>
        <g transform="matrix(1,0,0,1,0,0)" opacity="1" style="display: block;">
            <g opacity="1" transform="matrix(1,0,0,1,0,0)">
                <path fill="rgb(0,0,0)" fill-opacity="1"
                      d=" M100.2770004272461,33.42580032348633 C100.2770004272461,33.42580032348633 109.010498046875,33.42580032348633 109.010498046875,33.42580032348633 C109.010498046875,33.42580032348633 109.010498046875,42.1593017578125 109.010498046875,42.1593017578125 C109.010498046875,42.1593017578125 100.2770004272461,42.1593017578125 100.2770004272461,42.1593017578125 C100.2770004272461,42.1593017578125 100.2770004272461,33.42580032348633 100.2770004272461,33.42580032348633z"></path>
            </g>
        </g>
        <g transform="matrix(1,0,0,1,0,0)" opacity="1" style="display: block;">
            <g opacity="1" transform="matrix(1,0,0,1,0,0)">
                <path fill="rgb(0,0,0)" fill-opacity="1"
                      d=" M100.2770004272461,16.704099655151367 C100.2770004272461,16.704099655151367 109.010498046875,16.704099655151367 109.010498046875,16.704099655151367 C109.010498046875,16.704099655151367 109.010498046875,25.437599182128906 109.010498046875,25.437599182128906 C109.010498046875,25.437599182128906 100.2770004272461,25.437599182128906 100.2770004272461,25.437599182128906 C100.2770004272461,25.437599182128906 100.2770004272461,16.704099655151367 100.2770004272461,16.704099655151367z"></path>
            </g>
        </g>
        <g transform="matrix(1,0,0,1,0,0)" opacity="1" style="display: block;">
            <g opacity="1" transform="matrix(1,0,0,1,0,0)">
                <path fill="rgb(0,0,0)" fill-opacity="1"
                      d=" M116.98999786376953,16.704099655151367 C116.98999786376953,16.704099655151367 125.72350311279297,16.704099655151367 125.72350311279297,16.704099655151367 C125.72350311279297,16.704099655151367 125.72350311279297,25.437599182128906 125.72350311279297,25.437599182128906 C125.72350311279297,25.437599182128906 116.98999786376953,25.437599182128906 116.98999786376953,25.437599182128906 C116.98999786376953,25.437599182128906 116.98999786376953,16.704099655151367 116.98999786376953,16.704099655151367z"></path>
            </g>
        </g>
        <g transform="matrix(1,0,0,1,0,0)" opacity="1" style="display: block;">
            <g opacity="1" transform="matrix(1,0,0,1,0,0)">
                <path fill="rgb(0,0,0)" fill-opacity="1"
                      d=" M100.2770004272461,0 C100.2770004272461,0 109.010498046875,0 109.010498046875,0 C109.010498046875,0 109.010498046875,8.733499526977539 109.010498046875,8.733499526977539 C109.010498046875,8.733499526977539 100.2770004272461,8.733499526977539 100.2770004272461,8.733499526977539 C100.2770004272461,8.733499526977539 100.2770004272461,0 100.2770004272461,0z"></path>
            </g>
        </g>
        <g transform="matrix(1,0,0,1,0,0)" opacity="1" style="display: block;">
            <g opacity="1" transform="matrix(1,0,0,1,0,0)">
                <path fill="rgb(0,0,0)" fill-opacity="1"
                      d=" M116.98999786376953,0 C116.98999786376953,0 125.72350311279297,0 125.72350311279297,0 C125.72350311279297,0 125.72350311279297,8.733499526977539 125.72350311279297,8.733499526977539 C125.72350311279297,8.733499526977539 116.98999786376953,8.733499526977539 116.98999786376953,8.733499526977539 C116.98999786376953,8.733499526977539 116.98999786376953,0 116.98999786376953,0z"></path>
            </g>
        </g>
    </g>
</svg>
