<svg xmlns="http://www.w3.org/2000/svg" xmlns:xlink="http://www.w3.org/1999/xlink" viewBox="0 0 297 302" width="297" height="302" preserveAspectRatio="xMidYMid meet" style="width: 100%; height: 100%; content-visibility: visible;"><defs><clipPath id="__lottie_element_6382"><rect width="297" height="302" x="0" y="0"></rect></clipPath></defs><g clip-path="url(#__lottie_element_6382)"><g transform="matrix(1,0,0,1,0,0)" opacity="1" style="display: block;"><g opacity="1" transform="matrix(1,0,0,1,0,0)"><path fill-opacity="1" d=" M169.5959930419922,254.71099853515625 C169.5959930419922,254.71099853515625 160.83489990234375,254.71099853515625 160.83489990234375,254.71099853515625 C160.83489990234375,254.71099853515625 160.83489990234375,245.9499969482422 160.83489990234375,245.9499969482422 C160.83489990234375,245.9499969482422 169.5959930419922,245.9499969482422 169.5959930419922,245.9499969482422 C169.5959930419922,245.9499969482422 169.5959930419922,254.71099853515625 169.5959930419922,254.71099853515625z"></path></g></g><g transform="matrix(1,0,0,1,0,0)" opacity="1" style="display: block;"><g opacity="1" transform="matrix(1,0,0,1,0,0)"><path fill-opacity="1" d=" M152.62899780273438,254.71099853515625 C152.62899780273438,254.71099853515625 143.8679962158203,254.71099853515625 143.8679962158203,254.71099853515625 C143.8679962158203,254.71099853515625 143.8679962158203,245.9499969482422 143.8679962158203,245.9499969482422 C143.8679962158203,245.9499969482422 152.62899780273438,245.9499969482422 152.62899780273438,245.9499969482422 C152.62899780273438,245.9499969482422 152.62899780273438,254.71099853515625 152.62899780273438,254.71099853515625z"></path></g></g><g transform="matrix(1,0,0,1,0,0)" opacity="1" style="display: block;"><g opacity="1" transform="matrix(1,0,0,1,0,0)"><path fill-opacity="1" d=" M135.8090057373047,254.75799560546875 C135.8090057373047,254.75799560546875 127.0479965209961,254.75799560546875 127.0479965209961,254.75799560546875 C127.0479965209961,254.75799560546875 127.0479965209961,245.9969940185547 127.0479965209961,245.9969940185547 C127.0479965209961,245.9969940185547 135.8090057373047,245.9969940185547 135.8090057373047,245.9969940185547 C135.8090057373047,245.9969940185547 135.8090057373047,254.75799560546875 135.8090057373047,254.75799560546875z"></path></g></g><g transform="matrix(1,0,0,1,0,0)" opacity="1" style="display: block;"><g opacity="1" transform="matrix(1,0,0,1,0,0)"><path fill-opacity="1" d=" M186.35699462890625,237.94900512695312 C186.35699462890625,237.94900512695312 177.5959014892578,237.94900512695312 177.5959014892578,237.94900512695312 C177.5959014892578,237.94900512695312 177.5959014892578,229.18800354003906 177.5959014892578,229.18800354003906 C177.5959014892578,229.18800354003906 186.35699462890625,229.18800354003906 186.35699462890625,229.18800354003906 C186.35699462890625,229.18800354003906 186.35699462890625,237.94900512695312 186.35699462890625,237.94900512695312z"></path></g></g><g transform="matrix(1,0,0,1,0,0)" opacity="1" style="display: block;"><g opacity="1" transform="matrix(1,0,0,1,0,0)"><path fill-opacity="1" d=" M119.07599639892578,237.9409942626953 C119.07599639892578,237.9409942626953 110.31500244140625,237.9409942626953 110.31500244140625,237.9409942626953 C110.31500244140625,237.9409942626953 110.31500244140625,229.17990112304688 110.31500244140625,229.17990112304688 C110.31500244140625,229.17990112304688 119.07599639892578,229.17990112304688 119.07599639892578,229.17990112304688 C119.07599639892578,229.17990112304688 119.07599639892578,237.9409942626953 119.07599639892578,237.9409942626953z"></path></g></g><g transform="matrix(1,0,0,1,0,0)" opacity="1" style="display: block;"><g opacity="1" transform="matrix(1,0,0,1,0,0)"><path fill-opacity="1" d=" M186.35699462890625,221.18800354003906 C186.35699462890625,221.18800354003906 177.5959014892578,221.18800354003906 177.5959014892578,221.18800354003906 C177.5959014892578,221.18800354003906 177.5959014892578,212.427001953125 177.5959014892578,212.427001953125 C177.5959014892578,212.427001953125 186.35699462890625,212.427001953125 186.35699462890625,212.427001953125 C186.35699462890625,212.427001953125 186.35699462890625,221.18800354003906 186.35699462890625,221.18800354003906z"></path></g></g><g transform="matrix(1,0,0,1,0,0)" opacity="1" style="display: block;"><g opacity="1" transform="matrix(1,0,0,1,0,0)"><path fill-opacity="1" d=" M119.0469970703125,221.2209930419922 C119.0469970703125,221.2209930419922 110.28600311279297,221.2209930419922 110.28600311279297,221.2209930419922 C110.28600311279297,221.2209930419922 110.28600311279297,212.45989990234375 110.28600311279297,212.45989990234375 C110.28600311279297,212.45989990234375 119.0469970703125,212.45989990234375 119.0469970703125,212.45989990234375 C119.0469970703125,212.45989990234375 119.0469970703125,221.2209930419922 119.0469970703125,221.2209930419922z"></path></g></g><g transform="matrix(1,0,0,1,0,0)" opacity="1" style="display: block;"><g opacity="1" transform="matrix(1,0,0,1,0,0)"><path fill-opacity="1" d=" M160.83399963378906,212.4600067138672 C160.83399963378906,212.4600067138672 169.59500122070312,212.4600067138672 169.59500122070312,212.4600067138672 C169.59500122070312,212.4600067138672 169.59500122070312,221.2209930419922 169.59500122070312,221.2209930419922 C169.59500122070312,221.2209930419922 160.83399963378906,221.2209930419922 160.83399963378906,221.2209930419922 C160.83399963378906,221.2209930419922 160.83399963378906,212.4600067138672 160.83399963378906,212.4600067138672z"></path></g></g><g transform="matrix(1,0,0,1,0,0)" opacity="1" style="display: block;"><g opacity="1" transform="matrix(1,0,0,1,0,0)"><path fill-opacity="1" d=" M143.86700439453125,212.4600067138672 C143.86700439453125,212.4600067138672 152.6280059814453,212.4600067138672 152.6280059814453,212.4600067138672 C152.6280059814453,212.4600067138672 152.6280059814453,221.2209930419922 152.6280059814453,221.2209930419922 C152.6280059814453,221.2209930419922 143.86700439453125,221.2209930419922 143.86700439453125,221.2209930419922 C143.86700439453125,221.2209930419922 143.86700439453125,212.4600067138672 143.86700439453125,212.4600067138672z"></path></g></g><g transform="matrix(1,0,0,1,0,0)" opacity="1" style="display: block;"><g opacity="1" transform="matrix(1,0,0,1,0,0)"><path fill-opacity="1" d=" M127.0469970703125,212.4600067138672 C127.0469970703125,212.4600067138672 135.80799865722656,212.4600067138672 135.80799865722656,212.4600067138672 C135.80799865722656,212.4600067138672 135.80799865722656,221.2209930419922 135.80799865722656,221.2209930419922 C135.80799865722656,221.2209930419922 127.0469970703125,221.2209930419922 127.0469970703125,221.2209930419922 C127.0469970703125,221.2209930419922 127.0469970703125,212.4600067138672 127.0469970703125,212.4600067138672z"></path></g></g><g transform="matrix(1,0,0,1,0,0)" opacity="1" style="display: block;"><g opacity="1" transform="matrix(1,0,0,1,0,0)"><path fill-opacity="1" d=" M186.35699462890625,204.42599487304688 C186.35699462890625,204.42599487304688 177.5959014892578,204.42599487304688 177.5959014892578,204.42599487304688 C177.5959014892578,204.42599487304688 177.5959014892578,195.66490173339844 177.5959014892578,195.66490173339844 C177.5959014892578,195.66490173339844 186.35699462890625,195.66490173339844 186.35699462890625,195.66490173339844 C186.35699462890625,195.66490173339844 186.35699462890625,204.42599487304688 186.35699462890625,204.42599487304688z"></path></g></g><g transform="matrix(1,0,0,1,0,0)" opacity="1" style="display: block;"><g opacity="1" transform="matrix(1,0,0,1,0,0)"><path fill-opacity="1" d=" M119.01799774169922,204.44900512695312 C119.01799774169922,204.44900512695312 110.25700378417969,204.44900512695312 110.25700378417969,204.44900512695312 C110.25700378417969,204.44900512695312 110.25700378417969,195.68800354003906 110.25700378417969,195.68800354003906 C110.25700378417969,195.68800354003906 119.01799774169922,195.68800354003906 119.01799774169922,195.68800354003906 C119.01799774169922,195.68800354003906 119.01799774169922,204.44900512695312 119.01799774169922,204.44900512695312z"></path></g></g><g transform="matrix(1,0,0,1,0,0)" opacity="1" style="display: block;"><g opacity="1" transform="matrix(1,0,0,1,0,0)"><path fill-opacity="1" d=" M160.83399963378906,195.63299560546875 C160.83399963378906,195.63299560546875 169.59500122070312,195.63299560546875 169.59500122070312,195.63299560546875 C169.59500122070312,195.63299560546875 169.59500122070312,204.3939971923828 169.59500122070312,204.3939971923828 C169.59500122070312,204.3939971923828 160.83399963378906,204.3939971923828 160.83399963378906,204.3939971923828 C160.83399963378906,204.3939971923828 160.83399963378906,195.63299560546875 160.83399963378906,195.63299560546875z"></path></g></g><g transform="matrix(1,0,0,1,0,0)" opacity="1" style="display: block;"><g opacity="1" transform="matrix(1,0,0,1,0,0)"><path fill-opacity="1" d=" M143.86700439453125,195.63299560546875 C143.86700439453125,195.63299560546875 152.6280059814453,195.63299560546875 152.6280059814453,195.63299560546875 C152.6280059814453,195.63299560546875 152.6280059814453,204.3939971923828 152.6280059814453,204.3939971923828 C152.6280059814453,204.3939971923828 143.86700439453125,204.3939971923828 143.86700439453125,204.3939971923828 C143.86700439453125,204.3939971923828 143.86700439453125,195.63299560546875 143.86700439453125,195.63299560546875z"></path></g></g><g transform="matrix(1,0,0,1,0,0)" opacity="1" style="display: block;"><g opacity="1" transform="matrix(1,0,0,1,0,0)"><path fill-opacity="1" d=" M127.0469970703125,195.63299560546875 C127.0469970703125,195.63299560546875 135.80799865722656,195.63299560546875 135.80799865722656,195.63299560546875 C135.80799865722656,195.63299560546875 135.80799865722656,204.3939971923828 135.80799865722656,204.3939971923828 C135.80799865722656,204.3939971923828 127.0469970703125,204.3939971923828 127.0469970703125,204.3939971923828 C127.0469970703125,204.3939971923828 127.0469970703125,195.63299560546875 127.0469970703125,195.63299560546875z"></path></g></g><g transform="matrix(1,0,0,1,0,0)" opacity="1" style="display: block;"><g opacity="1" transform="matrix(1,0,0,1,0,0)"><path fill-opacity="1" d=" M203.11900329589844,187.656005859375 C203.11900329589844,187.656005859375 194.35800170898438,187.656005859375 194.35800170898438,187.656005859375 C194.35800170898438,187.656005859375 194.35800170898438,178.89500427246094 194.35800170898438,178.89500427246094 C194.35800170898438,178.89500427246094 203.11900329589844,178.89500427246094 203.11900329589844,178.89500427246094 C203.11900329589844,178.89500427246094 203.11900329589844,187.656005859375 203.11900329589844,187.656005859375z"></path></g></g><g transform="matrix(1,0,0,1,0,0)" opacity="1" style="display: block;"><g opacity="1" transform="matrix(1,0,0,1,0,0)"><path fill-opacity="1" d=" M186.35699462890625,187.66400146484375 C186.35699462890625,187.66400146484375 177.5959014892578,187.66400146484375 177.5959014892578,187.66400146484375 C177.5959014892578,187.66400146484375 177.5959014892578,178.9029998779297 177.5959014892578,178.9029998779297 C177.5959014892578,178.9029998779297 186.35699462890625,178.9029998779297 186.35699462890625,178.9029998779297 C186.35699462890625,178.9029998779297 186.35699462890625,187.66400146484375 186.35699462890625,187.66400146484375z"></path></g></g><g transform="matrix(1,0,0,1,0,0)" opacity="1" style="display: block;"><g opacity="1" transform="matrix(1,0,0,1,0,0)"><path fill-opacity="1" d=" M119.0469970703125,187.67999267578125 C119.0469970703125,187.67999267578125 110.28600311279297,187.67999267578125 110.28600311279297,187.67999267578125 C110.28600311279297,187.67999267578125 110.28600311279297,178.9188995361328 110.28600311279297,178.9188995361328 C110.28600311279297,178.9188995361328 119.0469970703125,178.9188995361328 119.0469970703125,178.9188995361328 C119.0469970703125,178.9188995361328 119.0469970703125,187.67999267578125 119.0469970703125,187.67999267578125z"></path></g></g><g transform="matrix(1,0,0,1,0,0)" opacity="1" style="display: block;"><g opacity="1" transform="matrix(1,0,0,1,0,0)"><path fill-opacity="1" d=" M102.28500366210938,187.67999267578125 C102.28500366210938,187.67999267578125 93.52400207519531,187.67999267578125 93.52400207519531,187.67999267578125 C93.52400207519531,187.67999267578125 93.52400207519531,178.9188995361328 93.52400207519531,178.9188995361328 C93.52400207519531,178.9188995361328 102.28500366210938,178.9188995361328 102.28500366210938,178.9188995361328 C102.28500366210938,178.9188995361328 102.28500366210938,187.67999267578125 102.28500366210938,187.67999267578125z"></path></g></g><g transform="matrix(1,0,0,1,0,0)" opacity="1" style="display: block;"><g opacity="1" transform="matrix(1,0,0,1,0,0)"><path fill-opacity="1" d=" M160.83399963378906,178.87899780273438 C160.83399963378906,178.87899780273438 169.59500122070312,178.87899780273438 169.59500122070312,178.87899780273438 C169.59500122070312,178.87899780273438 169.59500122070312,187.63999938964844 169.59500122070312,187.63999938964844 C169.59500122070312,187.63999938964844 160.83399963378906,187.63999938964844 160.83399963378906,187.63999938964844 C160.83399963378906,187.63999938964844 160.83399963378906,178.87899780273438 160.83399963378906,178.87899780273438z"></path></g></g><g transform="matrix(1,0,0,1,0,0)" opacity="1" style="display: block;"><g opacity="1" transform="matrix(1,0,0,1,0,0)"><path fill-opacity="1" d=" M143.86700439453125,178.87899780273438 C143.86700439453125,178.87899780273438 152.6280059814453,178.87899780273438 152.6280059814453,178.87899780273438 C152.6280059814453,178.87899780273438 152.6280059814453,187.63999938964844 152.6280059814453,187.63999938964844 C152.6280059814453,187.63999938964844 143.86700439453125,187.63999938964844 143.86700439453125,187.63999938964844 C143.86700439453125,187.63999938964844 143.86700439453125,178.87899780273438 143.86700439453125,178.87899780273438z"></path></g></g><g transform="matrix(1,0,0,1,0,0)" opacity="1" style="display: block;"><g opacity="1" transform="matrix(1,0,0,1,0,0)"><path fill-opacity="1" d=" M127.0469970703125,178.87899780273438 C127.0469970703125,178.87899780273438 135.80799865722656,178.87899780273438 135.80799865722656,178.87899780273438 C135.80799865722656,178.87899780273438 135.80799865722656,187.63999938964844 135.80799865722656,187.63999938964844 C135.80799865722656,187.63999938964844 127.0469970703125,187.63999938964844 127.0469970703125,187.63999938964844 C127.0469970703125,187.63999938964844 127.0469970703125,178.87899780273438 127.0469970703125,178.87899780273438z"></path></g></g><g transform="matrix(1,0,0,1,0,0)" opacity="1" style="display: block;"><g opacity="1" transform="matrix(1,0,0,1,0,0)"><path fill-opacity="1" d=" M219.8520050048828,170.91000366210938 C219.8520050048828,170.91000366210938 211.09100341796875,170.91000366210938 211.09100341796875,170.91000366210938 C211.09100341796875,170.91000366210938 211.09100341796875,162.1490020751953 211.09100341796875,162.1490020751953 C211.09100341796875,162.1490020751953 219.8520050048828,162.1490020751953 219.8520050048828,162.1490020751953 C219.8520050048828,162.1490020751953 219.8520050048828,170.91000366210938 219.8520050048828,170.91000366210938z"></path></g></g><g transform="matrix(1,0,0,1,0,0)" opacity="1" style="display: block;"><g opacity="1" transform="matrix(1,0,0,1,0,0)"><path fill-opacity="1" d=" M203.08999633789062,170.91000366210938 C203.08999633789062,170.91000366210938 194.32899475097656,170.91000366210938 194.32899475097656,170.91000366210938 C194.32899475097656,170.91000366210938 194.32899475097656,162.1490020751953 194.32899475097656,162.1490020751953 C194.32899475097656,162.1490020751953 203.08999633789062,162.1490020751953 203.08999633789062,162.1490020751953 C203.08999633789062,162.1490020751953 203.08999633789062,170.91000366210938 203.08999633789062,170.91000366210938z"></path></g></g><g transform="matrix(1,0,0,1,0,0)" opacity="1" style="display: block;"><g opacity="1" transform="matrix(1,0,0,1,0,0)"><path fill-opacity="1" d=" M186.35699462890625,170.90199279785156 C186.35699462890625,170.90199279785156 177.5959014892578,170.90199279785156 177.5959014892578,170.90199279785156 C177.5959014892578,170.90199279785156 177.5959014892578,162.14089965820312 177.5959014892578,162.14089965820312 C177.5959014892578,162.14089965820312 186.35699462890625,162.14089965820312 186.35699462890625,162.14089965820312 C186.35699462890625,162.14089965820312 186.35699462890625,170.90199279785156 186.35699462890625,170.90199279785156z"></path></g></g><g transform="matrix(1,0,0,1,0,0)" opacity="1" style="display: block;"><g opacity="1" transform="matrix(1,0,0,1,0,0)"><path fill-opacity="1" d=" M119.01799774169922,170.91000366210938 C119.01799774169922,170.91000366210938 110.25700378417969,170.91000366210938 110.25700378417969,170.91000366210938 C110.25700378417969,170.91000366210938 110.25700378417969,162.1490020751953 110.25700378417969,162.1490020751953 C110.25700378417969,162.1490020751953 119.01799774169922,162.1490020751953 119.01799774169922,162.1490020751953 C119.01799774169922,162.1490020751953 119.01799774169922,170.91000366210938 119.01799774169922,170.91000366210938z"></path></g></g><g transform="matrix(1,0,0,1,0,0)" opacity="1" style="display: block;"><g opacity="1" transform="matrix(1,0,0,1,0,0)"><path fill-opacity="1" d=" M102.25599670410156,170.91000366210938 C102.25599670410156,170.91000366210938 93.49500274658203,170.91000366210938 93.49500274658203,170.91000366210938 C93.49500274658203,170.91000366210938 93.49500274658203,162.1490020751953 93.49500274658203,162.1490020751953 C93.49500274658203,162.1490020751953 102.25599670410156,162.1490020751953 102.25599670410156,162.1490020751953 C102.25599670410156,162.1490020751953 102.25599670410156,170.91000366210938 102.25599670410156,170.91000366210938z"></path></g></g><g transform="matrix(1,0,0,1,0,0)" opacity="1" style="display: block;"><g opacity="1" transform="matrix(1,0,0,1,0,0)"><path fill-opacity="1" d=" M85.49410247802734,170.91000366210938 C85.49410247802734,170.91000366210938 76.73310089111328,170.91000366210938 76.73310089111328,170.91000366210938 C76.73310089111328,170.91000366210938 76.73310089111328,162.1490020751953 76.73310089111328,162.1490020751953 C76.73310089111328,162.1490020751953 85.49410247802734,162.1490020751953 85.49410247802734,162.1490020751953 C85.49410247802734,162.1490020751953 85.49410247802734,170.91000366210938 85.49410247802734,170.91000366210938z"></path></g></g><g transform="matrix(1,0,0,1,0,0)" opacity="1" style="display: block;"><g opacity="1" transform="matrix(1,0,0,1,0,0)"><path fill-opacity="1" d=" M160.83399963378906,162.125 C160.83399963378906,162.125 169.59500122070312,162.125 169.59500122070312,162.125 C169.59500122070312,162.125 169.59500122070312,170.88600158691406 169.59500122070312,170.88600158691406 C169.59500122070312,170.88600158691406 160.83399963378906,170.88600158691406 160.83399963378906,170.88600158691406 C160.83399963378906,170.88600158691406 160.83399963378906,162.125 160.83399963378906,162.125z"></path></g></g><g transform="matrix(1,0,0,1,0,0)" opacity="1" style="display: block;"><g opacity="1" transform="matrix(1,0,0,1,0,0)"><path fill-opacity="1" d=" M127.0469970703125,162.125 C127.0469970703125,162.125 135.80799865722656,162.125 135.80799865722656,162.125 C135.80799865722656,162.125 135.80799865722656,170.88600158691406 135.80799865722656,170.88600158691406 C135.80799865722656,170.88600158691406 127.0469970703125,170.88600158691406 127.0469970703125,170.88600158691406 C127.0469970703125,170.88600158691406 127.0469970703125,162.125 127.0469970703125,162.125z"></path></g></g><g transform="matrix(1,0,0,1,0,0)" opacity="1" style="display: block;"><g opacity="1" transform="matrix(1,0,0,1,0,0)"><path fill-opacity="1" d=" M236.64300537109375,154.14100646972656 C236.64300537109375,154.14100646972656 227.8820037841797,154.14100646972656 227.8820037841797,154.14100646972656 C227.8820037841797,154.14100646972656 227.8820037841797,145.3800048828125 227.8820037841797,145.3800048828125 C227.8820037841797,145.3800048828125 236.64300537109375,145.3800048828125 236.64300537109375,145.3800048828125 C236.64300537109375,145.3800048828125 236.64300537109375,154.14100646972656 236.64300537109375,154.14100646972656z"></path></g></g><g transform="matrix(1,0,0,1,0,0)" opacity="1" style="display: block;"><g opacity="1" transform="matrix(1,0,0,1,0,0)"><path fill-opacity="1" d=" M219.88099670410156,154.14100646972656 C219.88099670410156,154.14100646972656 211.1199951171875,154.14100646972656 211.1199951171875,154.14100646972656 C211.1199951171875,154.14100646972656 211.1199951171875,145.3800048828125 211.1199951171875,145.3800048828125 C211.1199951171875,145.3800048828125 219.88099670410156,145.3800048828125 219.88099670410156,145.3800048828125 C219.88099670410156,145.3800048828125 219.88099670410156,154.14100646972656 219.88099670410156,154.14100646972656z"></path></g></g><g transform="matrix(1,0,0,1,0,0)" opacity="1" style="display: block;"><g opacity="1" transform="matrix(1,0,0,1,0,0)"><path fill-opacity="1" d=" M203.11900329589844,154.14100646972656 C203.11900329589844,154.14100646972656 194.35800170898438,154.14100646972656 194.35800170898438,154.14100646972656 C194.35800170898438,154.14100646972656 194.35800170898438,145.3800048828125 194.35800170898438,145.3800048828125 C194.35800170898438,145.3800048828125 203.11900329589844,145.3800048828125 203.11900329589844,145.3800048828125 C203.11900329589844,145.3800048828125 203.11900329589844,154.14100646972656 203.11900329589844,154.14100646972656z"></path></g></g><g transform="matrix(1,0,0,1,0,0)" opacity="1" style="display: block;"><g opacity="1" transform="matrix(1,0,0,1,0,0)"><path fill-opacity="1" d=" M102.28500366210938,154.14100646972656 C102.28500366210938,154.14100646972656 93.52400207519531,154.14100646972656 93.52400207519531,154.14100646972656 C93.52400207519531,154.14100646972656 93.52400207519531,145.3800048828125 93.52400207519531,145.3800048828125 C93.52400207519531,145.3800048828125 102.28500366210938,145.3800048828125 102.28500366210938,145.3800048828125 C102.28500366210938,145.3800048828125 102.28500366210938,154.14100646972656 102.28500366210938,154.14100646972656z"></path></g></g><g transform="matrix(1,0,0,1,0,0)" opacity="1" style="display: block;"><g opacity="1" transform="matrix(1,0,0,1,0,0)"><path fill-opacity="1" d=" M85.52339935302734,154.14100646972656 C85.52339935302734,154.14100646972656 76.76239776611328,154.14100646972656 76.76239776611328,154.14100646972656 C76.76239776611328,154.14100646972656 76.76239776611328,145.3800048828125 76.76239776611328,145.3800048828125 C76.76239776611328,145.3800048828125 85.52339935302734,145.3800048828125 85.52339935302734,145.3800048828125 C85.52339935302734,145.3800048828125 85.52339935302734,154.14100646972656 85.52339935302734,154.14100646972656z"></path></g></g><g transform="matrix(1,0,0,1,0,0)" opacity="1" style="display: block;"><g opacity="1" transform="matrix(1,0,0,1,0,0)"><path fill-opacity="1" d=" M68.76170349121094,154.14100646972656 C68.76170349121094,154.14100646972656 60.000701904296875,154.14100646972656 60.000701904296875,154.14100646972656 C60.000701904296875,154.14100646972656 60.000701904296875,145.3800048828125 60.000701904296875,145.3800048828125 C60.000701904296875,145.3800048828125 68.76170349121094,145.3800048828125 68.76170349121094,145.3800048828125 C68.76170349121094,145.3800048828125 68.76170349121094,154.14100646972656 68.76170349121094,154.14100646972656z"></path></g></g><g transform="matrix(1,0,0,1,0,0)" opacity="1" style="display: block;"><g opacity="1" transform="matrix(1,0,0,1,0,0)"><path fill-opacity="1" d=" M177.74200439453125,145.37100219726562 C177.74200439453125,145.37100219726562 186.5030059814453,145.37100219726562 186.5030059814453,145.37100219726562 C186.5030059814453,145.37100219726562 186.5030059814453,154.1320037841797 186.5030059814453,154.1320037841797 C186.5030059814453,154.1320037841797 177.74200439453125,154.1320037841797 177.74200439453125,154.1320037841797 C177.74200439453125,154.1320037841797 177.74200439453125,145.37100219726562 177.74200439453125,145.37100219726562z"></path></g></g><g transform="matrix(1,0,0,1,0,0)" opacity="1" style="display: block;"><g opacity="1" transform="matrix(1,0,0,1,0,0)"><path fill-opacity="1" d=" M160.83399963378906,145.37100219726562 C160.83399963378906,145.37100219726562 169.59500122070312,145.37100219726562 169.59500122070312,145.37100219726562 C169.59500122070312,145.37100219726562 169.59500122070312,154.1320037841797 169.59500122070312,154.1320037841797 C169.59500122070312,154.1320037841797 160.83399963378906,154.1320037841797 160.83399963378906,154.1320037841797 C160.83399963378906,154.1320037841797 160.83399963378906,145.37100219726562 160.83399963378906,145.37100219726562z"></path></g></g><g transform="matrix(1,0,0,1,0,0)" opacity="1" style="display: block;"><g opacity="1" transform="matrix(1,0,0,1,0,0)"><path fill-opacity="1" d=" M127.0469970703125,145.37100219726562 C127.0469970703125,145.37100219726562 135.80799865722656,145.37100219726562 135.80799865722656,145.37100219726562 C135.80799865722656,145.37100219726562 135.80799865722656,154.1320037841797 135.80799865722656,154.1320037841797 C135.80799865722656,154.1320037841797 127.0469970703125,154.1320037841797 127.0469970703125,154.1320037841797 C127.0469970703125,154.1320037841797 127.0469970703125,145.37100219726562 127.0469970703125,145.37100219726562z"></path></g></g><g transform="matrix(1,0,0,1,0,0)" opacity="1" style="display: block;"><g opacity="1" transform="matrix(1,0,0,1,0,0)"><path fill-opacity="1" d=" M110.31400299072266,145.37100219726562 C110.31400299072266,145.37100219726562 119.07499694824219,145.37100219726562 119.07499694824219,145.37100219726562 C119.07499694824219,145.37100219726562 119.07499694824219,154.1320037841797 119.07499694824219,154.1320037841797 C119.07499694824219,154.1320037841797 110.31400299072266,154.1320037841797 110.31400299072266,154.1320037841797 C110.31400299072266,154.1320037841797 110.31400299072266,145.37100219726562 110.31400299072266,145.37100219726562z"></path></g></g><g transform="matrix(1,0,0,1,0,0)" opacity="1" style="display: block;"><g opacity="1" transform="matrix(1,0,0,1,0,0)"><path fill-opacity="1" d=" M227.88099670410156,128.61700439453125 C227.88099670410156,128.61700439453125 236.64199829101562,128.61700439453125 236.64199829101562,128.61700439453125 C236.64199829101562,128.61700439453125 236.64199829101562,137.3780059814453 236.64199829101562,137.3780059814453 C236.64199829101562,137.3780059814453 227.88099670410156,137.3780059814453 227.88099670410156,137.3780059814453 C227.88099670410156,137.3780059814453 227.88099670410156,128.61700439453125 227.88099670410156,128.61700439453125z"></path></g></g><g transform="matrix(1,0,0,1,0,0)" opacity="1" style="display: block;"><g opacity="1" transform="matrix(1,0,0,1,0,0)"><path fill-opacity="1" d=" M211.11900329589844,128.61700439453125 C211.11900329589844,128.61700439453125 219.8800048828125,128.61700439453125 219.8800048828125,128.61700439453125 C219.8800048828125,128.61700439453125 219.8800048828125,137.3780059814453 219.8800048828125,137.3780059814453 C219.8800048828125,137.3780059814453 211.11900329589844,137.3780059814453 211.11900329589844,137.3780059814453 C211.11900329589844,137.3780059814453 211.11900329589844,128.61700439453125 211.11900329589844,128.61700439453125z"></path></g></g><g transform="matrix(1,0,0,1,0,0)" opacity="1" style="display: block;"><g opacity="1" transform="matrix(1,0,0,1,0,0)"><path fill-opacity="1" d=" M194.35699462890625,128.61700439453125 C194.35699462890625,128.61700439453125 203.1179962158203,128.61700439453125 203.1179962158203,128.61700439453125 C203.1179962158203,128.61700439453125 203.1179962158203,137.3780059814453 203.1179962158203,137.3780059814453 C203.1179962158203,137.3780059814453 194.35699462890625,137.3780059814453 194.35699462890625,137.3780059814453 C194.35699462890625,137.3780059814453 194.35699462890625,128.61700439453125 194.35699462890625,128.61700439453125z"></path></g></g><g transform="matrix(1,0,0,1,0,0)" opacity="1" style="display: block;"><g opacity="1" transform="matrix(1,0,0,1,0,0)"><path fill-opacity="1" d=" M177.5959930419922,128.61700439453125 C177.5959930419922,128.61700439453125 186.35699462890625,128.61700439453125 186.35699462890625,128.61700439453125 C186.35699462890625,128.61700439453125 186.35699462890625,137.3780059814453 186.35699462890625,137.3780059814453 C186.35699462890625,137.3780059814453 177.5959930419922,137.3780059814453 177.5959930419922,137.3780059814453 C177.5959930419922,137.3780059814453 177.5959930419922,128.61700439453125 177.5959930419922,128.61700439453125z"></path></g></g><g transform="matrix(1,0,0,1,0,0)" opacity="1" style="display: block;"><g opacity="1" transform="matrix(1,0,0,1,0,0)"><path fill-opacity="1" d=" M143.83799743652344,128.61700439453125 C143.83799743652344,128.61700439453125 152.5989990234375,128.61700439453125 152.5989990234375,128.61700439453125 C152.5989990234375,128.61700439453125 152.5989990234375,137.3780059814453 152.5989990234375,137.3780059814453 C152.5989990234375,137.3780059814453 143.83799743652344,137.3780059814453 143.83799743652344,137.3780059814453 C143.83799743652344,137.3780059814453 143.83799743652344,128.61700439453125 143.83799743652344,128.61700439453125z"></path></g></g><g transform="matrix(1,0,0,1,0,0)" opacity="1" style="display: block;"><g opacity="1" transform="matrix(1,0,0,1,0,0)"><path fill-opacity="1" d=" M110.28500366210938,128.61700439453125 C110.28500366210938,128.61700439453125 119.0459976196289,128.61700439453125 119.0459976196289,128.61700439453125 C119.0459976196289,128.61700439453125 119.0459976196289,137.3780059814453 119.0459976196289,137.3780059814453 C119.0459976196289,137.3780059814453 110.28500366210938,137.3780059814453 110.28500366210938,137.3780059814453 C110.28500366210938,137.3780059814453 110.28500366210938,128.61700439453125 110.28500366210938,128.61700439453125z"></path></g></g><g transform="matrix(1,0,0,1,0,0)" opacity="1" style="display: block;"><g opacity="1" transform="matrix(1,0,0,1,0,0)"><path fill-opacity="1" d=" M93.52339935302734,128.61700439453125 C93.52339935302734,128.61700439453125 102.2844009399414,128.61700439453125 102.2844009399414,128.61700439453125 C102.2844009399414,128.61700439453125 102.2844009399414,137.3780059814453 102.2844009399414,137.3780059814453 C102.2844009399414,137.3780059814453 93.52339935302734,137.3780059814453 93.52339935302734,137.3780059814453 C93.52339935302734,137.3780059814453 93.52339935302734,128.61700439453125 93.52339935302734,128.61700439453125z"></path></g></g><g transform="matrix(1,0,0,1,0,0)" opacity="1" style="display: block;"><g opacity="1" transform="matrix(1,0,0,1,0,0)"><path fill-opacity="1" d=" M76.76170349121094,128.61700439453125 C76.76170349121094,128.61700439453125 85.52269744873047,128.61700439453125 85.52269744873047,128.61700439453125 C85.52269744873047,128.61700439453125 85.52269744873047,137.3780059814453 85.52269744873047,137.3780059814453 C85.52269744873047,137.3780059814453 76.76170349121094,137.3780059814453 76.76170349121094,137.3780059814453 C76.76170349121094,137.3780059814453 76.76170349121094,128.61700439453125 76.76170349121094,128.61700439453125z"></path></g></g><g transform="matrix(1,0,0,1,0,0)" opacity="1" style="display: block;"><g opacity="1" transform="matrix(1,0,0,1,0,0)"><path fill-opacity="1" d=" M60,128.61700439453125 C60,128.61700439453125 68.76100158691406,128.61700439453125 68.76100158691406,128.61700439453125 C68.76100158691406,128.61700439453125 68.76100158691406,137.3780059814453 68.76100158691406,137.3780059814453 C68.76100158691406,137.3780059814453 60,137.3780059814453 60,137.3780059814453 C60,137.3780059814453 60,128.61700439453125 60,128.61700439453125z"></path></g></g><g transform="matrix(1,0,0,1,0,0)" opacity="1" style="display: block;"><g opacity="1" transform="matrix(1,0,0,1,0,0)"><path fill-opacity="1" d=" M227.91000366210938,111.8479995727539 C227.91000366210938,111.8479995727539 236.67100524902344,111.8479995727539 236.67100524902344,111.8479995727539 C236.67100524902344,111.8479995727539 236.67100524902344,120.60900115966797 236.67100524902344,120.60900115966797 C236.67100524902344,120.60900115966797 227.91000366210938,120.60900115966797 227.91000366210938,120.60900115966797 C227.91000366210938,120.60900115966797 227.91000366210938,111.8479995727539 227.91000366210938,111.8479995727539z"></path></g></g><g transform="matrix(1,0,0,1,0,0)" opacity="1" style="display: block;"><g opacity="1" transform="matrix(1,0,0,1,0,0)"><path fill-opacity="1" d=" M211.1479949951172,111.8479995727539 C211.1479949951172,111.8479995727539 219.90899658203125,111.8479995727539 219.90899658203125,111.8479995727539 C219.90899658203125,111.8479995727539 219.90899658203125,120.60900115966797 219.90899658203125,120.60900115966797 C219.90899658203125,120.60900115966797 211.1479949951172,120.60900115966797 211.1479949951172,120.60900115966797 C211.1479949951172,120.60900115966797 211.1479949951172,111.8479995727539 211.1479949951172,111.8479995727539z"></path></g></g><g transform="matrix(1,0,0,1,0,0)" opacity="1" style="display: block;"><g opacity="1" transform="matrix(1,0,0,1,0,0)"><path fill-opacity="1" d=" M194.38699340820312,111.8479995727539 C194.38699340820312,111.8479995727539 203.1479949951172,111.8479995727539 203.1479949951172,111.8479995727539 C203.1479949951172,111.8479995727539 203.1479949951172,120.60900115966797 203.1479949951172,120.60900115966797 C203.1479949951172,120.60900115966797 194.38699340820312,120.60900115966797 194.38699340820312,120.60900115966797 C194.38699340820312,120.60900115966797 194.38699340820312,111.8479995727539 194.38699340820312,111.8479995727539z"></path></g></g><g transform="matrix(1,0,0,1,0,0)" opacity="1" style="display: block;"><g opacity="1" transform="matrix(1,0,0,1,0,0)"><path fill-opacity="1" d=" M160.80499267578125,111.8479995727539 C160.80499267578125,111.8479995727539 169.5659942626953,111.8479995727539 169.5659942626953,111.8479995727539 C169.5659942626953,111.8479995727539 169.5659942626953,120.60900115966797 169.5659942626953,120.60900115966797 C169.5659942626953,120.60900115966797 160.80499267578125,120.60900115966797 160.80499267578125,120.60900115966797 C160.80499267578125,120.60900115966797 160.80499267578125,111.8479995727539 160.80499267578125,111.8479995727539z"></path></g></g><g transform="matrix(1,0,0,1,0,0)" opacity="1" style="display: block;"><g opacity="1" transform="matrix(1,0,0,1,0,0)"><path fill-opacity="1" d=" M143.83799743652344,111.8479995727539 C143.83799743652344,111.8479995727539 152.5989990234375,111.8479995727539 152.5989990234375,111.8479995727539 C152.5989990234375,111.8479995727539 152.5989990234375,120.60900115966797 152.5989990234375,120.60900115966797 C152.5989990234375,120.60900115966797 143.83799743652344,120.60900115966797 143.83799743652344,120.60900115966797 C143.83799743652344,120.60900115966797 143.83799743652344,111.8479995727539 143.83799743652344,111.8479995727539z"></path></g></g><g transform="matrix(1,0,0,1,0,0)" opacity="1" style="display: block;"><g opacity="1" transform="matrix(1,0,0,1,0,0)"><path fill-opacity="1" d=" M127.07599639892578,111.8479995727539 C127.07599639892578,111.8479995727539 135.83700561523438,111.8479995727539 135.83700561523438,111.8479995727539 C135.83700561523438,111.8479995727539 135.83700561523438,120.60900115966797 135.83700561523438,120.60900115966797 C135.83700561523438,120.60900115966797 127.07599639892578,120.60900115966797 127.07599639892578,120.60900115966797 C127.07599639892578,120.60900115966797 127.07599639892578,111.8479995727539 127.07599639892578,111.8479995727539z"></path></g></g><g transform="matrix(1,0,0,1,0,0)" opacity="1" style="display: block;"><g opacity="1" transform="matrix(1,0,0,1,0,0)"><path fill-opacity="1" d=" M93.55269622802734,111.8479995727539 C93.55269622802734,111.8479995727539 102.3136978149414,111.8479995727539 102.3136978149414,111.8479995727539 C102.3136978149414,111.8479995727539 102.3136978149414,120.60900115966797 102.3136978149414,120.60900115966797 C102.3136978149414,120.60900115966797 93.55269622802734,120.60900115966797 93.55269622802734,120.60900115966797 C93.55269622802734,120.60900115966797 93.55269622802734,111.8479995727539 93.55269622802734,111.8479995727539z"></path></g></g><g transform="matrix(1,0,0,1,0,0)" opacity="1" style="display: block;"><g opacity="1" transform="matrix(1,0,0,1,0,0)"><path fill-opacity="1" d=" M76.79100036621094,111.8479995727539 C76.79100036621094,111.8479995727539 85.552001953125,111.8479995727539 85.552001953125,111.8479995727539 C85.552001953125,111.8479995727539 85.552001953125,120.60900115966797 85.552001953125,120.60900115966797 C85.552001953125,120.60900115966797 76.79100036621094,120.60900115966797 76.79100036621094,120.60900115966797 C76.79100036621094,120.60900115966797 76.79100036621094,111.8479995727539 76.79100036621094,111.8479995727539z"></path></g></g><g transform="matrix(1,0,0,1,0,0)" opacity="1" style="display: block;"><g opacity="1" transform="matrix(1,0,0,1,0,0)"><path fill-opacity="1" d=" M60.029300689697266,111.8479995727539 C60.029300689697266,111.8479995727539 68.79029846191406,111.8479995727539 68.79029846191406,111.8479995727539 C68.79029846191406,111.8479995727539 68.79029846191406,120.60900115966797 68.79029846191406,120.60900115966797 C68.79029846191406,120.60900115966797 60.029300689697266,120.60900115966797 60.029300689697266,120.60900115966797 C60.029300689697266,120.60900115966797 60.029300689697266,111.8479995727539 60.029300689697266,111.8479995727539z"></path></g></g><g transform="matrix(1,0,0,1,0,0)" opacity="1" style="display: block;"><g opacity="1" transform="matrix(1,0,0,1,0,0)"><path fill-opacity="1" d=" M227.88099670410156,95.0781021118164 C227.88099670410156,95.0781021118164 236.64199829101562,95.0781021118164 236.64199829101562,95.0781021118164 C236.64199829101562,95.0781021118164 236.64199829101562,103.83910369873047 236.64199829101562,103.83910369873047 C236.64199829101562,103.83910369873047 227.88099670410156,103.83910369873047 227.88099670410156,103.83910369873047 C227.88099670410156,103.83910369873047 227.88099670410156,95.0781021118164 227.88099670410156,95.0781021118164z"></path></g></g><g transform="matrix(1,0,0,1,0,0)" opacity="1" style="display: block;"><g opacity="1" transform="matrix(1,0,0,1,0,0)"><path fill-opacity="1" d=" M211.1479949951172,95.07420349121094 C211.1479949951172,95.07420349121094 219.90899658203125,95.07420349121094 219.90899658203125,95.07420349121094 C219.90899658203125,95.07420349121094 219.90899658203125,103.83519744873047 219.90899658203125,103.83519744873047 C219.90899658203125,103.83519744873047 211.1479949951172,103.83519744873047 211.1479949951172,103.83519744873047 C211.1479949951172,103.83519744873047 211.1479949951172,95.07420349121094 211.1479949951172,95.07420349121094z"></path></g></g><g transform="matrix(1,0,0,1,0,0)" opacity="1" style="display: block;"><g opacity="1" transform="matrix(1,0,0,1,0,0)"><path fill-opacity="1" d=" M194.38699340820312,95.07420349121094 C194.38699340820312,95.07420349121094 203.1479949951172,95.07420349121094 203.1479949951172,95.07420349121094 C203.1479949951172,95.07420349121094 203.1479949951172,103.83519744873047 203.1479949951172,103.83519744873047 C203.1479949951172,103.83519744873047 194.38699340820312,103.83519744873047 194.38699340820312,103.83519744873047 C194.38699340820312,103.83519744873047 194.38699340820312,95.07420349121094 194.38699340820312,95.07420349121094z"></path></g></g><g transform="matrix(1,0,0,1,0,0)" opacity="1" style="display: block;"><g opacity="1" transform="matrix(1,0,0,1,0,0)"><path fill-opacity="1" d=" M177.5959930419922,95.0781021118164 C177.5959930419922,95.0781021118164 186.35699462890625,95.0781021118164 186.35699462890625,95.0781021118164 C186.35699462890625,95.0781021118164 186.35699462890625,103.83910369873047 186.35699462890625,103.83910369873047 C186.35699462890625,103.83910369873047 177.5959930419922,103.83910369873047 177.5959930419922,103.83910369873047 C177.5959930419922,103.83910369873047 177.5959930419922,95.0781021118164 177.5959930419922,95.0781021118164z"></path></g></g><g transform="matrix(1,0,0,1,0,0)" opacity="1" style="display: block;"><g opacity="1" transform="matrix(1,0,0,1,0,0)"><path fill-opacity="1" d=" M160.80499267578125,95.0781021118164 C160.80499267578125,95.0781021118164 169.5659942626953,95.0781021118164 169.5659942626953,95.0781021118164 C169.5659942626953,95.0781021118164 169.5659942626953,103.83910369873047 169.5659942626953,103.83910369873047 C169.5659942626953,103.83910369873047 160.80499267578125,103.83910369873047 160.80499267578125,103.83910369873047 C160.80499267578125,103.83910369873047 160.80499267578125,95.0781021118164 160.80499267578125,95.0781021118164z"></path></g></g><g transform="matrix(1,0,0,1,0,0)" opacity="1" style="display: block;"><g opacity="1" transform="matrix(1,0,0,1,0,0)"><path fill-opacity="1" d=" M143.83799743652344,95.0781021118164 C143.83799743652344,95.0781021118164 152.5989990234375,95.0781021118164 152.5989990234375,95.0781021118164 C152.5989990234375,95.0781021118164 152.5989990234375,103.83910369873047 152.5989990234375,103.83910369873047 C152.5989990234375,103.83910369873047 143.83799743652344,103.83910369873047 143.83799743652344,103.83910369873047 C143.83799743652344,103.83910369873047 143.83799743652344,95.0781021118164 143.83799743652344,95.0781021118164z"></path></g></g><g transform="matrix(1,0,0,1,0,0)" opacity="1" style="display: block;"><g opacity="1" transform="matrix(1,0,0,1,0,0)"><path fill-opacity="1" d=" M127.0469970703125,95.0781021118164 C127.0469970703125,95.0781021118164 135.80799865722656,95.0781021118164 135.80799865722656,95.0781021118164 C135.80799865722656,95.0781021118164 135.80799865722656,103.83910369873047 135.80799865722656,103.83910369873047 C135.80799865722656,103.83910369873047 127.0469970703125,103.83910369873047 127.0469970703125,103.83910369873047 C127.0469970703125,103.83910369873047 127.0469970703125,95.0781021118164 127.0469970703125,95.0781021118164z"></path></g></g><g transform="matrix(1,0,0,1,0,0)" opacity="1" style="display: block;"><g opacity="1" transform="matrix(1,0,0,1,0,0)"><path fill-opacity="1" d=" M110.28500366210938,95.0781021118164 C110.28500366210938,95.0781021118164 119.0459976196289,95.0781021118164 119.0459976196289,95.0781021118164 C119.0459976196289,95.0781021118164 119.0459976196289,103.83910369873047 119.0459976196289,103.83910369873047 C119.0459976196289,103.83910369873047 110.28500366210938,103.83910369873047 110.28500366210938,103.83910369873047 C110.28500366210938,103.83910369873047 110.28500366210938,95.0781021118164 110.28500366210938,95.0781021118164z"></path></g></g><g transform="matrix(1,0,0,1,0,0)" opacity="1" style="display: block;"><g opacity="1" transform="matrix(1,0,0,1,0,0)"><path fill-opacity="1" d=" M93.52339935302734,95.0781021118164 C93.52339935302734,95.0781021118164 102.2844009399414,95.0781021118164 102.2844009399414,95.0781021118164 C102.2844009399414,95.0781021118164 102.2844009399414,103.83910369873047 102.2844009399414,103.83910369873047 C102.2844009399414,103.83910369873047 93.52339935302734,103.83910369873047 93.52339935302734,103.83910369873047 C93.52339935302734,103.83910369873047 93.52339935302734,95.0781021118164 93.52339935302734,95.0781021118164z"></path></g></g><g transform="matrix(1,0,0,1,0,0)" opacity="1" style="display: block;"><g opacity="1" transform="matrix(1,0,0,1,0,0)"><path fill-opacity="1" d=" M76.79100036621094,95.07420349121094 C76.79100036621094,95.07420349121094 85.552001953125,95.07420349121094 85.552001953125,95.07420349121094 C85.552001953125,95.07420349121094 85.552001953125,103.83519744873047 85.552001953125,103.83519744873047 C85.552001953125,103.83519744873047 76.79100036621094,103.83519744873047 76.79100036621094,103.83519744873047 C76.79100036621094,103.83519744873047 76.79100036621094,95.07420349121094 76.79100036621094,95.07420349121094z"></path></g></g><g transform="matrix(1,0,0,1,0,0)" opacity="1" style="display: block;"><g opacity="1" transform="matrix(1,0,0,1,0,0)"><path fill-opacity="1" d=" M60.029300689697266,95.07420349121094 C60.029300689697266,95.07420349121094 68.79029846191406,95.07420349121094 68.79029846191406,95.07420349121094 C68.79029846191406,95.07420349121094 68.79029846191406,103.83519744873047 68.79029846191406,103.83519744873047 C68.79029846191406,103.83519744873047 60.029300689697266,103.83519744873047 60.029300689697266,103.83519744873047 C60.029300689697266,103.83519744873047 60.029300689697266,95.07420349121094 60.029300689697266,95.07420349121094z"></path></g></g><g transform="matrix(1,0,0,1,0,0)" opacity="1" style="display: block;"><g opacity="1" transform="matrix(1,0,0,1,0,0)"><path fill-opacity="1" d=" M227.88099670410156,78.30079650878906 C227.88099670410156,78.30079650878906 236.64199829101562,78.30079650878906 236.64199829101562,78.30079650878906 C236.64199829101562,78.30079650878906 236.64199829101562,87.06179809570312 236.64199829101562,87.06179809570312 C236.64199829101562,87.06179809570312 227.88099670410156,87.06179809570312 227.88099670410156,87.06179809570312 C227.88099670410156,87.06179809570312 227.88099670410156,78.30079650878906 227.88099670410156,78.30079650878906z"></path></g></g><g transform="matrix(1,0,0,1,0,0)" opacity="1" style="display: block;"><g opacity="1" transform="matrix(1,0,0,1,0,0)"><path fill-opacity="1" d=" M211.1479949951172,78.30079650878906 C211.1479949951172,78.30079650878906 219.90899658203125,78.30079650878906 219.90899658203125,78.30079650878906 C219.90899658203125,78.30079650878906 219.90899658203125,87.06179809570312 219.90899658203125,87.06179809570312 C219.90899658203125,87.06179809570312 211.1479949951172,87.06179809570312 211.1479949951172,87.06179809570312 C211.1479949951172,87.06179809570312 211.1479949951172,78.30079650878906 211.1479949951172,78.30079650878906z"></path></g></g><g transform="matrix(1,0,0,1,0,0)" opacity="1" style="display: block;"><g opacity="1" transform="matrix(1,0,0,1,0,0)"><path fill-opacity="1" d=" M194.38699340820312,78.30079650878906 C194.38699340820312,78.30079650878906 203.1479949951172,78.30079650878906 203.1479949951172,78.30079650878906 C203.1479949951172,78.30079650878906 203.1479949951172,87.06179809570312 203.1479949951172,87.06179809570312 C203.1479949951172,87.06179809570312 194.38699340820312,87.06179809570312 194.38699340820312,87.06179809570312 C194.38699340820312,87.06179809570312 194.38699340820312,78.30079650878906 194.38699340820312,78.30079650878906z"></path></g></g><g transform="matrix(1,0,0,1,0,0)" opacity="1" style="display: block;"><g opacity="1" transform="matrix(1,0,0,1,0,0)"><path fill-opacity="1" d=" M177.5959930419922,78.30860137939453 C177.5959930419922,78.30860137939453 186.35699462890625,78.30860137939453 186.35699462890625,78.30860137939453 C186.35699462890625,78.30860137939453 186.35699462890625,87.0696029663086 186.35699462890625,87.0696029663086 C186.35699462890625,87.0696029663086 177.5959930419922,87.0696029663086 177.5959930419922,87.0696029663086 C177.5959930419922,87.0696029663086 177.5959930419922,78.30860137939453 177.5959930419922,78.30860137939453z"></path></g></g><g transform="matrix(1,0,0,1,0,0)" opacity="1" style="display: block;"><g opacity="1" transform="matrix(1,0,0,1,0,0)"><path fill-opacity="1" d=" M160.80499267578125,78.30860137939453 C160.80499267578125,78.30860137939453 169.5659942626953,78.30860137939453 169.5659942626953,78.30860137939453 C169.5659942626953,78.30860137939453 169.5659942626953,87.0696029663086 169.5659942626953,87.0696029663086 C169.5659942626953,87.0696029663086 160.80499267578125,87.0696029663086 160.80499267578125,87.0696029663086 C160.80499267578125,87.0696029663086 160.80499267578125,78.30860137939453 160.80499267578125,78.30860137939453z"></path></g></g><g transform="matrix(1,0,0,1,0,0)" opacity="1" style="display: block;"><g opacity="1" transform="matrix(1,0,0,1,0,0)"><path fill-opacity="1" d=" M143.83799743652344,78.30860137939453 C143.83799743652344,78.30860137939453 152.5989990234375,78.30860137939453 152.5989990234375,78.30860137939453 C152.5989990234375,78.30860137939453 152.5989990234375,87.0696029663086 152.5989990234375,87.0696029663086 C152.5989990234375,87.0696029663086 143.83799743652344,87.0696029663086 143.83799743652344,87.0696029663086 C143.83799743652344,87.0696029663086 143.83799743652344,78.30860137939453 143.83799743652344,78.30860137939453z"></path></g></g><g transform="matrix(1,0,0,1,0,0)" opacity="1" style="display: block;"><g opacity="1" transform="matrix(1,0,0,1,0,0)"><path fill-opacity="1" d=" M127.07599639892578,78.30860137939453 C127.07599639892578,78.30860137939453 135.83700561523438,78.30860137939453 135.83700561523438,78.30860137939453 C135.83700561523438,78.30860137939453 135.83700561523438,87.0696029663086 135.83700561523438,87.0696029663086 C135.83700561523438,87.0696029663086 127.07599639892578,87.0696029663086 127.07599639892578,87.0696029663086 C127.07599639892578,87.0696029663086 127.07599639892578,78.30860137939453 127.07599639892578,78.30860137939453z"></path></g></g><g transform="matrix(1,0,0,1,0,0)" opacity="1" style="display: block;"><g opacity="1" transform="matrix(1,0,0,1,0,0)"><path fill-opacity="1" d=" M110.31400299072266,78.30860137939453 C110.31400299072266,78.30860137939453 119.07499694824219,78.30860137939453 119.07499694824219,78.30860137939453 C119.07499694824219,78.30860137939453 119.07499694824219,87.0696029663086 119.07499694824219,87.0696029663086 C119.07499694824219,87.0696029663086 110.31400299072266,87.0696029663086 110.31400299072266,87.0696029663086 C110.31400299072266,87.0696029663086 110.31400299072266,78.30860137939453 110.31400299072266,78.30860137939453z"></path></g></g><g transform="matrix(1,0,0,1,0,0)" opacity="1" style="display: block;"><g opacity="1" transform="matrix(1,0,0,1,0,0)"><path fill-opacity="1" d=" M93.52339935302734,78.30079650878906 C93.52339935302734,78.30079650878906 102.2844009399414,78.30079650878906 102.2844009399414,78.30079650878906 C102.2844009399414,78.30079650878906 102.2844009399414,87.06179809570312 102.2844009399414,87.06179809570312 C102.2844009399414,87.06179809570312 93.52339935302734,87.06179809570312 93.52339935302734,87.06179809570312 C93.52339935302734,87.06179809570312 93.52339935302734,78.30079650878906 93.52339935302734,78.30079650878906z"></path></g></g><g transform="matrix(1,0,0,1,0,0)" opacity="1" style="display: block;"><g opacity="1" transform="matrix(1,0,0,1,0,0)"><path fill-opacity="1" d=" M76.79100036621094,78.30079650878906 C76.79100036621094,78.30079650878906 85.552001953125,78.30079650878906 85.552001953125,78.30079650878906 C85.552001953125,78.30079650878906 85.552001953125,87.06179809570312 85.552001953125,87.06179809570312 C85.552001953125,87.06179809570312 76.79100036621094,87.06179809570312 76.79100036621094,87.06179809570312 C76.79100036621094,87.06179809570312 76.79100036621094,78.30079650878906 76.79100036621094,78.30079650878906z"></path></g></g><g transform="matrix(1,0,0,1,0,0)" opacity="1" style="display: block;"><g opacity="1" transform="matrix(1,0,0,1,0,0)"><path fill-opacity="1" d=" M60.029300689697266,78.30079650878906 C60.029300689697266,78.30079650878906 68.79029846191406,78.30079650878906 68.79029846191406,78.30079650878906 C68.79029846191406,78.30079650878906 68.79029846191406,87.06179809570312 68.79029846191406,87.06179809570312 C68.79029846191406,87.06179809570312 60.029300689697266,87.06179809570312 60.029300689697266,87.06179809570312 C60.029300689697266,87.06179809570312 60.029300689697266,78.30079650878906 60.029300689697266,78.30079650878906z"></path></g></g><g transform="matrix(1,0,0,1,0,0)" opacity="1" style="display: block;"><g opacity="1" transform="matrix(1,0,0,1,0,0)"><path fill-opacity="1" d=" M211.1479949951172,61.52730178833008 C211.1479949951172,61.52730178833008 219.90899658203125,61.52730178833008 219.90899658203125,61.52730178833008 C219.90899658203125,61.52730178833008 219.90899658203125,70.28829956054688 219.90899658203125,70.28829956054688 C219.90899658203125,70.28829956054688 211.1479949951172,70.28829956054688 211.1479949951172,70.28829956054688 C211.1479949951172,70.28829956054688 211.1479949951172,61.52730178833008 211.1479949951172,61.52730178833008z"></path></g></g><g transform="matrix(1,0,0,1,0,0)" opacity="1" style="display: block;"><g opacity="1" transform="matrix(1,0,0,1,0,0)"><path fill-opacity="1" d=" M194.38699340820312,61.52730178833008 C194.38699340820312,61.52730178833008 203.1479949951172,61.52730178833008 203.1479949951172,61.52730178833008 C203.1479949951172,61.52730178833008 203.1479949951172,70.28829956054688 203.1479949951172,70.28829956054688 C203.1479949951172,70.28829956054688 194.38699340820312,70.28829956054688 194.38699340820312,70.28829956054688 C194.38699340820312,70.28829956054688 194.38699340820312,61.52730178833008 194.38699340820312,61.52730178833008z"></path></g></g><g transform="matrix(1,0,0,1,0,0)" opacity="1" style="display: block;"><g opacity="1" transform="matrix(1,0,0,1,0,0)"><path fill-opacity="1" d=" M177.5959930419922,61.539100646972656 C177.5959930419922,61.539100646972656 186.35699462890625,61.539100646972656 186.35699462890625,61.539100646972656 C186.35699462890625,61.539100646972656 186.35699462890625,70.30010223388672 186.35699462890625,70.30010223388672 C186.35699462890625,70.30010223388672 177.5959930419922,70.30010223388672 177.5959930419922,70.30010223388672 C177.5959930419922,70.30010223388672 177.5959930419922,61.539100646972656 177.5959930419922,61.539100646972656z"></path></g></g><g transform="matrix(1,0,0,1,0,0)" opacity="1" style="display: block;"><g opacity="1" transform="matrix(1,0,0,1,0,0)"><path fill-opacity="1" d=" M160.80499267578125,61.539100646972656 C160.80499267578125,61.539100646972656 169.5659942626953,61.539100646972656 169.5659942626953,61.539100646972656 C169.5659942626953,61.539100646972656 169.5659942626953,70.30010223388672 169.5659942626953,70.30010223388672 C169.5659942626953,70.30010223388672 160.80499267578125,70.30010223388672 160.80499267578125,70.30010223388672 C160.80499267578125,70.30010223388672 160.80499267578125,61.539100646972656 160.80499267578125,61.539100646972656z"></path></g></g><g transform="matrix(1,0,0,1,0,0)" opacity="1" style="display: block;"><g opacity="1" transform="matrix(1,0,0,1,0,0)"><path fill-opacity="1" d=" M143.83799743652344,61.539100646972656 C143.83799743652344,61.539100646972656 152.5989990234375,61.539100646972656 152.5989990234375,61.539100646972656 C152.5989990234375,61.539100646972656 152.5989990234375,70.30010223388672 152.5989990234375,70.30010223388672 C152.5989990234375,70.30010223388672 143.83799743652344,70.30010223388672 143.83799743652344,70.30010223388672 C143.83799743652344,70.30010223388672 143.83799743652344,61.539100646972656 143.83799743652344,61.539100646972656z"></path></g></g><g transform="matrix(1,0,0,1,0,0)" opacity="1" style="display: block;"><g opacity="1" transform="matrix(1,0,0,1,0,0)"><path fill-opacity="1" d=" M127.0469970703125,61.539100646972656 C127.0469970703125,61.539100646972656 135.80799865722656,61.539100646972656 135.80799865722656,61.539100646972656 C135.80799865722656,61.539100646972656 135.80799865722656,70.30010223388672 135.80799865722656,70.30010223388672 C135.80799865722656,70.30010223388672 127.0469970703125,70.30010223388672 127.0469970703125,70.30010223388672 C127.0469970703125,70.30010223388672 127.0469970703125,61.539100646972656 127.0469970703125,61.539100646972656z"></path></g></g><g transform="matrix(1,0,0,1,0,0)" opacity="1" style="display: block;"><g opacity="1" transform="matrix(1,0,0,1,0,0)"><path fill-opacity="1" d=" M110.28500366210938,61.539100646972656 C110.28500366210938,61.539100646972656 119.0459976196289,61.539100646972656 119.0459976196289,61.539100646972656 C119.0459976196289,61.539100646972656 119.0459976196289,70.30010223388672 119.0459976196289,70.30010223388672 C119.0459976196289,70.30010223388672 110.28500366210938,70.30010223388672 110.28500366210938,70.30010223388672 C110.28500366210938,70.30010223388672 110.28500366210938,61.539100646972656 110.28500366210938,61.539100646972656z"></path></g></g><g transform="matrix(1,0,0,1,0,0)" opacity="1" style="display: block;"><g opacity="1" transform="matrix(1,0,0,1,0,0)"><path fill-opacity="1" d=" M93.52339935302734,61.523399353027344 C93.52339935302734,61.523399353027344 102.2844009399414,61.523399353027344 102.2844009399414,61.523399353027344 C102.2844009399414,61.523399353027344 102.2844009399414,70.2844009399414 102.2844009399414,70.2844009399414 C102.2844009399414,70.2844009399414 93.52339935302734,70.2844009399414 93.52339935302734,70.2844009399414 C93.52339935302734,70.2844009399414 93.52339935302734,61.523399353027344 93.52339935302734,61.523399353027344z"></path></g></g><g transform="matrix(1,0,0,1,0,0)" opacity="1" style="display: block;"><g opacity="1" transform="matrix(1,0,0,1,0,0)"><path fill-opacity="1" d=" M76.79100036621094,61.52730178833008 C76.79100036621094,61.52730178833008 85.552001953125,61.52730178833008 85.552001953125,61.52730178833008 C85.552001953125,61.52730178833008 85.552001953125,70.28829956054688 85.552001953125,70.28829956054688 C85.552001953125,70.28829956054688 76.79100036621094,70.28829956054688 76.79100036621094,70.28829956054688 C76.79100036621094,70.28829956054688 76.79100036621094,61.52730178833008 76.79100036621094,61.52730178833008z"></path></g></g><g transform="matrix(1,0,0,1,0,0)" opacity="1" style="display: block;"><g opacity="1" transform="matrix(1,0,0,1,0,0)"><path fill-opacity="1" d=" M194.38699340820312,44.75389862060547 C194.38699340820312,44.75389862060547 203.1479949951172,44.75389862060547 203.1479949951172,44.75389862060547 C203.1479949951172,44.75389862060547 203.1479949951172,53.51490020751953 203.1479949951172,53.51490020751953 C203.1479949951172,53.51490020751953 194.38699340820312,53.51490020751953 194.38699340820312,53.51490020751953 C194.38699340820312,53.51490020751953 194.38699340820312,44.75389862060547 194.38699340820312,44.75389862060547z"></path></g></g><g transform="matrix(1,0,0,1,0,0)" opacity="1" style="display: block;"><g opacity="1" transform="matrix(1,0,0,1,0,0)"><path fill-opacity="1" d=" M177.5959930419922,44.769500732421875 C177.5959930419922,44.769500732421875 186.35699462890625,44.769500732421875 186.35699462890625,44.769500732421875 C186.35699462890625,44.769500732421875 186.35699462890625,53.53049850463867 186.35699462890625,53.53049850463867 C186.35699462890625,53.53049850463867 177.5959930419922,53.53049850463867 177.5959930419922,53.53049850463867 C177.5959930419922,53.53049850463867 177.5959930419922,44.769500732421875 177.5959930419922,44.769500732421875z"></path></g></g><g transform="matrix(1,0,0,1,0,0)" opacity="1" style="display: block;"><g opacity="1" transform="matrix(1,0,0,1,0,0)"><path fill-opacity="1" d=" M160.80499267578125,44.76169967651367 C160.80499267578125,44.76169967651367 169.5659942626953,44.76169967651367 169.5659942626953,44.76169967651367 C169.5659942626953,44.76169967651367 169.5659942626953,53.522701263427734 169.5659942626953,53.522701263427734 C169.5659942626953,53.522701263427734 160.80499267578125,53.522701263427734 160.80499267578125,53.522701263427734 C160.80499267578125,53.522701263427734 160.80499267578125,44.76169967651367 160.80499267578125,44.76169967651367z"></path></g></g><g transform="matrix(1,0,0,1,0,0)" opacity="1" style="display: block;"><g opacity="1" transform="matrix(1,0,0,1,0,0)"><path fill-opacity="1" d=" M143.83799743652344,44.76169967651367 C143.83799743652344,44.76169967651367 152.5989990234375,44.76169967651367 152.5989990234375,44.76169967651367 C152.5989990234375,44.76169967651367 152.5989990234375,53.522701263427734 152.5989990234375,53.522701263427734 C152.5989990234375,53.522701263427734 143.83799743652344,53.522701263427734 143.83799743652344,53.522701263427734 C143.83799743652344,53.522701263427734 143.83799743652344,44.76169967651367 143.83799743652344,44.76169967651367z"></path></g></g><g transform="matrix(1,0,0,1,0,0)" opacity="1" style="display: block;"><g opacity="1" transform="matrix(1,0,0,1,0,0)"><path fill-opacity="1" d=" M127.0469970703125,44.76169967651367 C127.0469970703125,44.76169967651367 135.80799865722656,44.76169967651367 135.80799865722656,44.76169967651367 C135.80799865722656,44.76169967651367 135.80799865722656,53.522701263427734 135.80799865722656,53.522701263427734 C135.80799865722656,53.522701263427734 127.0469970703125,53.522701263427734 127.0469970703125,53.522701263427734 C127.0469970703125,53.522701263427734 127.0469970703125,44.76169967651367 127.0469970703125,44.76169967651367z"></path></g></g><g transform="matrix(1,0,0,1,0,0)" opacity="1" style="display: block;"><g opacity="1" transform="matrix(1,0,0,1,0,0)"><path fill-opacity="1" d=" M110.28500366210938,44.77730178833008 C110.28500366210938,44.77730178833008 119.0459976196289,44.77730178833008 119.0459976196289,44.77730178833008 C119.0459976196289,44.77730178833008 119.0459976196289,53.538299560546875 119.0459976196289,53.538299560546875 C119.0459976196289,53.538299560546875 110.28500366210938,53.538299560546875 110.28500366210938,53.538299560546875 C110.28500366210938,53.538299560546875 110.28500366210938,44.77730178833008 110.28500366210938,44.77730178833008z"></path></g></g><g transform="matrix(1,0,0,1,0,0)" opacity="1" style="display: block;"><g opacity="1" transform="matrix(1,0,0,1,0,0)"><path fill-opacity="1" d=" M93.52339935302734,44.74610137939453 C93.52339935302734,44.74610137939453 102.2844009399414,44.74610137939453 102.2844009399414,44.74610137939453 C102.2844009399414,44.74610137939453 102.2844009399414,53.50709915161133 102.2844009399414,53.50709915161133 C102.2844009399414,53.50709915161133 93.52339935302734,53.50709915161133 93.52339935302734,53.50709915161133 C93.52339935302734,53.50709915161133 93.52339935302734,44.74610137939453 93.52339935302734,44.74610137939453z"></path></g></g><g transform="matrix(1,0,0,1,0,0)" opacity="1" style="display: block;"><g opacity="1" transform="matrix(1,0,0,1,0,0)"><path fill-opacity="1" d=" M177.74200439453125,28 C177.74200439453125,28 186.5030059814453,28 186.5030059814453,28 C186.5030059814453,28 186.5030059814453,36.76100158691406 186.5030059814453,36.76100158691406 C186.5030059814453,36.76100158691406 177.74200439453125,36.76100158691406 177.74200439453125,36.76100158691406 C177.74200439453125,36.76100158691406 177.74200439453125,28 177.74200439453125,28z"></path></g></g><g transform="matrix(1,0,0,1,0,0)" opacity="1" style="display: block;"><g opacity="1" transform="matrix(1,0,0,1,0,0)"><path fill-opacity="1" d=" M161.00999450683594,28 C161.00999450683594,28 169.77099609375,28 169.77099609375,28 C169.77099609375,28 169.77099609375,36.76100158691406 169.77099609375,36.76100158691406 C169.77099609375,36.76100158691406 161.00999450683594,36.76100158691406 161.00999450683594,36.76100158691406 C161.00999450683594,36.76100158691406 161.00999450683594,28 161.00999450683594,28z"></path></g></g><g transform="matrix(1,0,0,1,0,0)" opacity="1" style="display: block;"><g opacity="1" transform="matrix(1,0,0,1,0,0)"><path fill-opacity="1" d=" M144.04299926757812,28 C144.04299926757812,28 152.8040008544922,28 152.8040008544922,28 C152.8040008544922,28 152.8040008544922,36.76100158691406 152.8040008544922,36.76100158691406 C152.8040008544922,36.76100158691406 144.04299926757812,36.76100158691406 144.04299926757812,36.76100158691406 C144.04299926757812,36.76100158691406 144.04299926757812,28 144.04299926757812,28z"></path></g></g><g transform="matrix(1,0,0,1,0,0)" opacity="1" style="display: block;"><g opacity="1" transform="matrix(1,0,0,1,0,0)"><path fill-opacity="1" d=" M127.0469970703125,28 C127.0469970703125,28 135.80799865722656,28 135.80799865722656,28 C135.80799865722656,28 135.80799865722656,36.76100158691406 135.80799865722656,36.76100158691406 C135.80799865722656,36.76100158691406 127.0469970703125,36.76100158691406 127.0469970703125,36.76100158691406 C127.0469970703125,36.76100158691406 127.0469970703125,28 127.0469970703125,28z"></path></g></g><g transform="matrix(1,0,0,1,0,0)" opacity="1" style="display: block;"><g opacity="1" transform="matrix(1,0,0,1,0,0)"><path fill-opacity="1" d=" M110.31400299072266,28 C110.31400299072266,28 119.07499694824219,28 119.07499694824219,28 C119.07499694824219,28 119.07499694824219,36.76100158691406 119.07499694824219,36.76100158691406 C119.07499694824219,36.76100158691406 110.31400299072266,36.76100158691406 110.31400299072266,36.76100158691406 C110.31400299072266,36.76100158691406 110.31400299072266,28 110.31400299072266,28z"></path></g></g></g></svg>