<svg xmlns="http://www.w3.org/2000/svg" xmlns:xlink="http://www.w3.org/1999/xlink" viewBox="0 0 298 302" width="298" height="302" preserveAspectRatio="xMidYMid meet" style="width: 100%; height: 100%; content-visibility: visible;"><defs><clipPath id="__lottie_element_5900"><rect width="298" height="302" x="0" y="0"></rect></clipPath></defs><g clip-path="url(#__lottie_element_5900)"><g transform="matrix(1,0,0,1,0,0)" opacity="1" style="display: block;"><g opacity="1" transform="matrix(1,0,0,1,0,0)"><path fill-opacity="1" d=" M136.5679931640625,256.6499938964844 C136.5679931640625,256.6499938964844 127.80690002441406,256.6499938964844 127.80690002441406,256.6499938964844 C127.80690002441406,256.6499938964844 127.80690002441406,247.88890075683594 127.80690002441406,247.88890075683594 C127.80690002441406,247.88890075683594 136.5679931640625,247.88890075683594 136.5679931640625,247.88890075683594 C136.5679931640625,247.88890075683594 136.5679931640625,256.6499938964844 136.5679931640625,256.6499938964844z"></path></g></g><g transform="matrix(1,0,0,1,0,0)" opacity="1" style="display: block;"><g opacity="1" transform="matrix(1,0,0,1,0,0)"><path fill-opacity="1" d=" M136.5679931640625,239.88999938964844 C136.5679931640625,239.88999938964844 127.80690002441406,239.88999938964844 127.80690002441406,239.88999938964844 C127.80690002441406,239.88999938964844 127.80690002441406,231.12899780273438 127.80690002441406,231.12899780273438 C127.80690002441406,231.12899780273438 136.5679931640625,231.12899780273438 136.5679931640625,231.12899780273438 C136.5679931640625,231.12899780273438 136.5679931640625,239.88999938964844 136.5679931640625,239.88999938964844z"></path></g></g><g transform="matrix(1,0,0,1,0,0)" opacity="1" style="display: block;"><g opacity="1" transform="matrix(1,0,0,1,0,0)"><path fill-opacity="1" d=" M144.68800354003906,231.12899780273438 C144.68800354003906,231.12899780273438 153.44900512695312,231.12899780273438 153.44900512695312,231.12899780273438 C153.44900512695312,231.12899780273438 153.44900512695312,239.88999938964844 153.44900512695312,239.88999938964844 C153.44900512695312,239.88999938964844 144.68800354003906,239.88999938964844 144.68800354003906,239.88999938964844 C144.68800354003906,239.88999938964844 144.68800354003906,231.12899780273438 144.68800354003906,231.12899780273438z"></path></g></g><g transform="matrix(1,0,0,1,0,0)" opacity="1" style="display: block;"><g opacity="1" transform="matrix(1,0,0,1,0,0)"><path fill-opacity="1" d=" M136.5679931640625,223.12899780273438 C136.5679931640625,223.12899780273438 127.80690002441406,223.12899780273438 127.80690002441406,223.12899780273438 C127.80690002441406,223.12899780273438 127.80690002441406,214.3679962158203 127.80690002441406,214.3679962158203 C127.80690002441406,214.3679962158203 136.5679931640625,214.3679962158203 136.5679931640625,214.3679962158203 C136.5679931640625,214.3679962158203 136.5679931640625,223.12899780273438 136.5679931640625,223.12899780273438z"></path></g></g><g transform="matrix(1,0,0,1,0,0)" opacity="1" style="display: block;"><g opacity="1" transform="matrix(1,0,0,1,0,0)"><path fill-opacity="1" d=" M161.5679931640625,214.3679962158203 C161.5679931640625,214.3679962158203 170.32899475097656,214.3679962158203 170.32899475097656,214.3679962158203 C170.32899475097656,214.3679962158203 170.32899475097656,223.12899780273438 170.32899475097656,223.12899780273438 C170.32899475097656,223.12899780273438 161.5679931640625,223.12899780273438 161.5679931640625,223.12899780273438 C161.5679931640625,223.12899780273438 161.5679931640625,214.3679962158203 161.5679931640625,214.3679962158203z"></path></g></g><g transform="matrix(1,0,0,1,0,0)" opacity="1" style="display: block;"><g opacity="1" transform="matrix(1,0,0,1,0,0)"><path fill-opacity="1" d=" M144.68800354003906,214.3679962158203 C144.68800354003906,214.3679962158203 153.44900512695312,214.3679962158203 153.44900512695312,214.3679962158203 C153.44900512695312,214.3679962158203 153.44900512695312,223.12899780273438 153.44900512695312,223.12899780273438 C153.44900512695312,223.12899780273438 144.68800354003906,223.12899780273438 144.68800354003906,223.12899780273438 C144.68800354003906,223.12899780273438 144.68800354003906,214.3679962158203 144.68800354003906,214.3679962158203z"></path></g></g><g transform="matrix(1,0,0,1,0,0)" opacity="1" style="display: block;"><g opacity="1" transform="matrix(1,0,0,1,0,0)"><path fill-opacity="1" d=" M136.5679931640625,206.3679962158203 C136.5679931640625,206.3679962158203 127.80690002441406,206.3679962158203 127.80690002441406,206.3679962158203 C127.80690002441406,206.3679962158203 127.80690002441406,197.60699462890625 127.80690002441406,197.60699462890625 C127.80690002441406,197.60699462890625 136.5679931640625,197.60699462890625 136.5679931640625,197.60699462890625 C136.5679931640625,197.60699462890625 136.5679931640625,206.3679962158203 136.5679931640625,206.3679962158203z"></path></g></g><g transform="matrix(1,0,0,1,0,0)" opacity="1" style="display: block;"><g opacity="1" transform="matrix(1,0,0,1,0,0)"><path fill-opacity="1" d=" M178.3300018310547,197.60699462890625 C178.3300018310547,197.60699462890625 187.09100341796875,197.60699462890625 187.09100341796875,197.60699462890625 C187.09100341796875,197.60699462890625 187.09100341796875,206.3679962158203 187.09100341796875,206.3679962158203 C187.09100341796875,206.3679962158203 178.3300018310547,206.3679962158203 178.3300018310547,206.3679962158203 C178.3300018310547,206.3679962158203 178.3300018310547,197.60699462890625 178.3300018310547,197.60699462890625z"></path></g></g><g transform="matrix(1,0,0,1,0,0)" opacity="1" style="display: block;"><g opacity="1" transform="matrix(1,0,0,1,0,0)"><path fill-opacity="1" d=" M161.5679931640625,197.60699462890625 C161.5679931640625,197.60699462890625 170.32899475097656,197.60699462890625 170.32899475097656,197.60699462890625 C170.32899475097656,197.60699462890625 170.32899475097656,206.3679962158203 170.32899475097656,206.3679962158203 C170.32899475097656,206.3679962158203 161.5679931640625,206.3679962158203 161.5679931640625,206.3679962158203 C161.5679931640625,206.3679962158203 161.5679931640625,197.60699462890625 161.5679931640625,197.60699462890625z"></path></g></g><g transform="matrix(1,0,0,1,0,0)" opacity="1" style="display: block;"><g opacity="1" transform="matrix(1,0,0,1,0,0)"><path fill-opacity="1" d=" M144.68800354003906,197.60699462890625 C144.68800354003906,197.60699462890625 153.44900512695312,197.60699462890625 153.44900512695312,197.60699462890625 C153.44900512695312,197.60699462890625 153.44900512695312,206.3679962158203 153.44900512695312,206.3679962158203 C153.44900512695312,206.3679962158203 144.68800354003906,206.3679962158203 144.68800354003906,206.3679962158203 C144.68800354003906,206.3679962158203 144.68800354003906,197.60699462890625 144.68800354003906,197.60699462890625z"></path></g></g><g transform="matrix(1,0,0,1,0,0)" opacity="1" style="display: block;"><g opacity="1" transform="matrix(1,0,0,1,0,0)"><path fill-opacity="1" d=" M136.5679931640625,189.60699462890625 C136.5679931640625,189.60699462890625 127.80690002441406,189.60699462890625 127.80690002441406,189.60699462890625 C127.80690002441406,189.60699462890625 127.80690002441406,180.8459014892578 127.80690002441406,180.8459014892578 C127.80690002441406,180.8459014892578 136.5679931640625,180.8459014892578 136.5679931640625,180.8459014892578 C136.5679931640625,180.8459014892578 136.5679931640625,189.60699462890625 136.5679931640625,189.60699462890625z"></path></g></g><g transform="matrix(1,0,0,1,0,0)" opacity="1" style="display: block;"><g opacity="1" transform="matrix(1,0,0,1,0,0)"><path fill-opacity="1" d=" M195.0919952392578,180.8470001220703 C195.0919952392578,180.8470001220703 203.85299682617188,180.8470001220703 203.85299682617188,180.8470001220703 C203.85299682617188,180.8470001220703 203.85299682617188,189.60800170898438 203.85299682617188,189.60800170898438 C203.85299682617188,189.60800170898438 195.0919952392578,189.60800170898438 195.0919952392578,189.60800170898438 C195.0919952392578,189.60800170898438 195.0919952392578,180.8470001220703 195.0919952392578,180.8470001220703z"></path></g></g><g transform="matrix(1,0,0,1,0,0)" opacity="1" style="display: block;"><g opacity="1" transform="matrix(1,0,0,1,0,0)"><path fill-opacity="1" d=" M178.3300018310547,180.8470001220703 C178.3300018310547,180.8470001220703 187.09100341796875,180.8470001220703 187.09100341796875,180.8470001220703 C187.09100341796875,180.8470001220703 187.09100341796875,189.60800170898438 187.09100341796875,189.60800170898438 C187.09100341796875,189.60800170898438 178.3300018310547,189.60800170898438 178.3300018310547,189.60800170898438 C178.3300018310547,189.60800170898438 178.3300018310547,180.8470001220703 178.3300018310547,180.8470001220703z"></path></g></g><g transform="matrix(1,0,0,1,0,0)" opacity="1" style="display: block;"><g opacity="1" transform="matrix(1,0,0,1,0,0)"><path fill-opacity="1" d=" M161.5679931640625,180.8470001220703 C161.5679931640625,180.8470001220703 170.32899475097656,180.8470001220703 170.32899475097656,180.8470001220703 C170.32899475097656,180.8470001220703 170.32899475097656,189.60800170898438 170.32899475097656,189.60800170898438 C170.32899475097656,189.60800170898438 161.5679931640625,189.60800170898438 161.5679931640625,189.60800170898438 C161.5679931640625,189.60800170898438 161.5679931640625,180.8470001220703 161.5679931640625,180.8470001220703z"></path></g></g><g transform="matrix(1,0,0,1,0,0)" opacity="1" style="display: block;"><g opacity="1" transform="matrix(1,0,0,1,0,0)"><path fill-opacity="1" d=" M144.68800354003906,180.8470001220703 C144.68800354003906,180.8470001220703 153.44900512695312,180.8470001220703 153.44900512695312,180.8470001220703 C153.44900512695312,180.8470001220703 153.44900512695312,189.60800170898438 153.44900512695312,189.60800170898438 C153.44900512695312,189.60800170898438 144.68800354003906,189.60800170898438 144.68800354003906,189.60800170898438 C144.68800354003906,189.60800170898438 144.68800354003906,180.8470001220703 144.68800354003906,180.8470001220703z"></path></g></g><g transform="matrix(1,0,0,1,0,0)" opacity="1" style="display: block;"><g opacity="1" transform="matrix(1,0,0,1,0,0)"><path fill-opacity="1" d=" M136.5679931640625,172.8470001220703 C136.5679931640625,172.8470001220703 127.80690002441406,172.8470001220703 127.80690002441406,172.8470001220703 C127.80690002441406,172.8470001220703 127.80690002441406,164.08599853515625 127.80690002441406,164.08599853515625 C127.80690002441406,164.08599853515625 136.5679931640625,164.08599853515625 136.5679931640625,164.08599853515625 C136.5679931640625,164.08599853515625 136.5679931640625,172.8470001220703 136.5679931640625,172.8470001220703z"></path></g></g><g transform="matrix(1,0,0,1,0,0)" opacity="1" style="display: block;"><g opacity="1" transform="matrix(1,0,0,1,0,0)"><path fill-opacity="1" d=" M119.80699920654297,172.8470001220703 C119.80699920654297,172.8470001220703 111.0459976196289,172.8470001220703 111.0459976196289,172.8470001220703 C111.0459976196289,172.8470001220703 111.0459976196289,164.08599853515625 111.0459976196289,164.08599853515625 C111.0459976196289,164.08599853515625 119.80699920654297,164.08599853515625 119.80699920654297,164.08599853515625 C119.80699920654297,164.08599853515625 119.80699920654297,172.8470001220703 119.80699920654297,172.8470001220703z"></path></g></g><g transform="matrix(1,0,0,1,0,0)" opacity="1" style="display: block;"><g opacity="1" transform="matrix(1,0,0,1,0,0)"><path fill-opacity="1" d=" M103.04299926757812,172.8470001220703 C103.04299926757812,172.8470001220703 94.28199768066406,172.8470001220703 94.28199768066406,172.8470001220703 C94.28199768066406,172.8470001220703 94.28199768066406,164.08599853515625 94.28199768066406,164.08599853515625 C94.28199768066406,164.08599853515625 103.04299926757812,164.08599853515625 103.04299926757812,164.08599853515625 C103.04299926757812,164.08599853515625 103.04299926757812,172.8470001220703 103.04299926757812,172.8470001220703z"></path></g></g><g transform="matrix(1,0,0,1,0,0)" opacity="1" style="display: block;"><g opacity="1" transform="matrix(1,0,0,1,0,0)"><path fill-opacity="1" d=" M86.28119659423828,172.8470001220703 C86.28119659423828,172.8470001220703 77.52020263671875,172.8470001220703 77.52020263671875,172.8470001220703 C77.52020263671875,172.8470001220703 77.52020263671875,164.08599853515625 77.52020263671875,164.08599853515625 C77.52020263671875,164.08599853515625 86.28119659423828,164.08599853515625 86.28119659423828,164.08599853515625 C86.28119659423828,164.08599853515625 86.28119659423828,172.8470001220703 86.28119659423828,172.8470001220703z"></path></g></g><g transform="matrix(1,0,0,1,0,0)" opacity="1" style="display: block;"><g opacity="1" transform="matrix(1,0,0,1,0,0)"><path fill-opacity="1" d=" M69.51950073242188,172.8470001220703 C69.51950073242188,172.8470001220703 60.75849914550781,172.8470001220703 60.75849914550781,172.8470001220703 C60.75849914550781,172.8470001220703 60.75849914550781,164.08599853515625 60.75849914550781,164.08599853515625 C60.75849914550781,164.08599853515625 69.51950073242188,164.08599853515625 69.51950073242188,164.08599853515625 C69.51950073242188,164.08599853515625 69.51950073242188,172.8470001220703 69.51950073242188,172.8470001220703z"></path></g></g><g transform="matrix(1,0,0,1,0,0)" opacity="1" style="display: block;"><g opacity="1" transform="matrix(1,0,0,1,0,0)"><path fill-opacity="1" d=" M52.75979995727539,172.8470001220703 C52.75979995727539,172.8470001220703 43.99879837036133,172.8470001220703 43.99879837036133,172.8470001220703 C43.99879837036133,172.8470001220703 43.99879837036133,164.08599853515625 43.99879837036133,164.08599853515625 C43.99879837036133,164.08599853515625 52.75979995727539,164.08599853515625 52.75979995727539,164.08599853515625 C52.75979995727539,164.08599853515625 52.75979995727539,172.8470001220703 52.75979995727539,172.8470001220703z"></path></g></g><g transform="matrix(1,0,0,1,0,0)" opacity="1" style="display: block;"><g opacity="1" transform="matrix(1,0,0,1,0,0)"><path fill-opacity="1" d=" M211.85400390625,164.08599853515625 C211.85400390625,164.08599853515625 220.61500549316406,164.08599853515625 220.61500549316406,164.08599853515625 C220.61500549316406,164.08599853515625 220.61500549316406,172.8470001220703 220.61500549316406,172.8470001220703 C220.61500549316406,172.8470001220703 211.85400390625,172.8470001220703 211.85400390625,172.8470001220703 C211.85400390625,172.8470001220703 211.85400390625,164.08599853515625 211.85400390625,164.08599853515625z"></path></g></g><g transform="matrix(1,0,0,1,0,0)" opacity="1" style="display: block;"><g opacity="1" transform="matrix(1,0,0,1,0,0)"><path fill-opacity="1" d=" M195.0919952392578,164.08599853515625 C195.0919952392578,164.08599853515625 203.85299682617188,164.08599853515625 203.85299682617188,164.08599853515625 C203.85299682617188,164.08599853515625 203.85299682617188,172.8470001220703 203.85299682617188,172.8470001220703 C203.85299682617188,172.8470001220703 195.0919952392578,172.8470001220703 195.0919952392578,172.8470001220703 C195.0919952392578,172.8470001220703 195.0919952392578,164.08599853515625 195.0919952392578,164.08599853515625z"></path></g></g><g transform="matrix(1,0,0,1,0,0)" opacity="1" style="display: block;"><g opacity="1" transform="matrix(1,0,0,1,0,0)"><path fill-opacity="1" d=" M178.3300018310547,164.08599853515625 C178.3300018310547,164.08599853515625 187.09100341796875,164.08599853515625 187.09100341796875,164.08599853515625 C187.09100341796875,164.08599853515625 187.09100341796875,172.8470001220703 187.09100341796875,172.8470001220703 C187.09100341796875,172.8470001220703 178.3300018310547,172.8470001220703 178.3300018310547,172.8470001220703 C178.3300018310547,172.8470001220703 178.3300018310547,164.08599853515625 178.3300018310547,164.08599853515625z"></path></g></g><g transform="matrix(1,0,0,1,0,0)" opacity="1" style="display: block;"><g opacity="1" transform="matrix(1,0,0,1,0,0)"><path fill-opacity="1" d=" M161.5679931640625,164.08599853515625 C161.5679931640625,164.08599853515625 170.32899475097656,164.08599853515625 170.32899475097656,164.08599853515625 C170.32899475097656,164.08599853515625 170.32899475097656,172.8470001220703 170.32899475097656,172.8470001220703 C170.32899475097656,172.8470001220703 161.5679931640625,172.8470001220703 161.5679931640625,172.8470001220703 C161.5679931640625,172.8470001220703 161.5679931640625,164.08599853515625 161.5679931640625,164.08599853515625z"></path></g></g><g transform="matrix(1,0,0,1,0,0)" opacity="1" style="display: block;"><g opacity="1" transform="matrix(1,0,0,1,0,0)"><path fill-opacity="1" d=" M144.68800354003906,164.08599853515625 C144.68800354003906,164.08599853515625 153.44900512695312,164.08599853515625 153.44900512695312,164.08599853515625 C153.44900512695312,164.08599853515625 153.44900512695312,172.8470001220703 153.44900512695312,172.8470001220703 C153.44900512695312,172.8470001220703 144.68800354003906,172.8470001220703 144.68800354003906,172.8470001220703 C144.68800354003906,172.8470001220703 144.68800354003906,164.08599853515625 144.68800354003906,164.08599853515625z"></path></g></g><g transform="matrix(1,0,0,1,0,0)" opacity="1" style="display: block;"><g opacity="1" transform="matrix(1,0,0,1,0,0)"><path fill-opacity="1" d=" M136.5679931640625,156.08599853515625 C136.5679931640625,156.08599853515625 127.80690002441406,156.08599853515625 127.80690002441406,156.08599853515625 C127.80690002441406,156.08599853515625 127.80690002441406,147.3249969482422 127.80690002441406,147.3249969482422 C127.80690002441406,147.3249969482422 136.5679931640625,147.3249969482422 136.5679931640625,147.3249969482422 C136.5679931640625,147.3249969482422 136.5679931640625,156.08599853515625 136.5679931640625,156.08599853515625z"></path></g></g><g transform="matrix(1,0,0,1,0,0)" opacity="1" style="display: block;"><g opacity="1" transform="matrix(1,0,0,1,0,0)"><path fill-opacity="1" d=" M119.80699920654297,156.08599853515625 C119.80699920654297,156.08599853515625 111.0459976196289,156.08599853515625 111.0459976196289,156.08599853515625 C111.0459976196289,156.08599853515625 111.0459976196289,147.3249969482422 111.0459976196289,147.3249969482422 C111.0459976196289,147.3249969482422 119.80699920654297,147.3249969482422 119.80699920654297,147.3249969482422 C119.80699920654297,147.3249969482422 119.80699920654297,156.08599853515625 119.80699920654297,156.08599853515625z"></path></g></g><g transform="matrix(1,0,0,1,0,0)" opacity="1" style="display: block;"><g opacity="1" transform="matrix(1,0,0,1,0,0)"><path fill-opacity="1" d=" M103.04299926757812,156.08599853515625 C103.04299926757812,156.08599853515625 94.28199768066406,156.08599853515625 94.28199768066406,156.08599853515625 C94.28199768066406,156.08599853515625 94.28199768066406,147.3249969482422 94.28199768066406,147.3249969482422 C94.28199768066406,147.3249969482422 103.04299926757812,147.3249969482422 103.04299926757812,147.3249969482422 C103.04299926757812,147.3249969482422 103.04299926757812,156.08599853515625 103.04299926757812,156.08599853515625z"></path></g></g><g transform="matrix(1,0,0,1,0,0)" opacity="1" style="display: block;"><g opacity="1" transform="matrix(1,0,0,1,0,0)"><path fill-opacity="1" d=" M86.28119659423828,156.08599853515625 C86.28119659423828,156.08599853515625 77.52020263671875,156.08599853515625 77.52020263671875,156.08599853515625 C77.52020263671875,156.08599853515625 77.52020263671875,147.3249969482422 77.52020263671875,147.3249969482422 C77.52020263671875,147.3249969482422 86.28119659423828,147.3249969482422 86.28119659423828,147.3249969482422 C86.28119659423828,147.3249969482422 86.28119659423828,156.08599853515625 86.28119659423828,156.08599853515625z"></path></g></g><g transform="matrix(1,0,0,1,0,0)" opacity="1" style="display: block;"><g opacity="1" transform="matrix(1,0,0,1,0,0)"><path fill-opacity="1" d=" M69.51950073242188,156.08599853515625 C69.51950073242188,156.08599853515625 60.75849914550781,156.08599853515625 60.75849914550781,156.08599853515625 C60.75849914550781,156.08599853515625 60.75849914550781,147.3249969482422 60.75849914550781,147.3249969482422 C60.75849914550781,147.3249969482422 69.51950073242188,147.3249969482422 69.51950073242188,147.3249969482422 C69.51950073242188,147.3249969482422 69.51950073242188,156.08599853515625 69.51950073242188,156.08599853515625z"></path></g></g><g transform="matrix(1,0,0,1,0,0)" opacity="1" style="display: block;"><g opacity="1" transform="matrix(1,0,0,1,0,0)"><path fill-opacity="1" d=" M52.75979995727539,156.08599853515625 C52.75979995727539,156.08599853515625 43.99879837036133,156.08599853515625 43.99879837036133,156.08599853515625 C43.99879837036133,156.08599853515625 43.99879837036133,147.3249969482422 43.99879837036133,147.3249969482422 C43.99879837036133,147.3249969482422 52.75979995727539,147.3249969482422 52.75979995727539,147.3249969482422 C52.75979995727539,147.3249969482422 52.75979995727539,156.08599853515625 52.75979995727539,156.08599853515625z"></path></g></g><g transform="matrix(1,0,0,1,0,0)" opacity="1" style="display: block;"><g opacity="1" transform="matrix(1,0,0,1,0,0)"><path fill-opacity="1" d=" M228.61500549316406,147.3249969482422 C228.61500549316406,147.3249969482422 237.37600708007812,147.3249969482422 237.37600708007812,147.3249969482422 C237.37600708007812,147.3249969482422 237.37600708007812,156.08599853515625 237.37600708007812,156.08599853515625 C237.37600708007812,156.08599853515625 228.61500549316406,156.08599853515625 228.61500549316406,156.08599853515625 C228.61500549316406,156.08599853515625 228.61500549316406,147.3249969482422 228.61500549316406,147.3249969482422z"></path></g></g><g transform="matrix(1,0,0,1,0,0)" opacity="1" style="display: block;"><g opacity="1" transform="matrix(1,0,0,1,0,0)"><path fill-opacity="1" d=" M211.85400390625,147.3249969482422 C211.85400390625,147.3249969482422 220.61500549316406,147.3249969482422 220.61500549316406,147.3249969482422 C220.61500549316406,147.3249969482422 220.61500549316406,156.08599853515625 220.61500549316406,156.08599853515625 C220.61500549316406,156.08599853515625 211.85400390625,156.08599853515625 211.85400390625,156.08599853515625 C211.85400390625,156.08599853515625 211.85400390625,147.3249969482422 211.85400390625,147.3249969482422z"></path></g></g><g transform="matrix(1,0,0,1,0,0)" opacity="1" style="display: block;"><g opacity="1" transform="matrix(1,0,0,1,0,0)"><path fill-opacity="1" d=" M195.0919952392578,147.3249969482422 C195.0919952392578,147.3249969482422 203.85299682617188,147.3249969482422 203.85299682617188,147.3249969482422 C203.85299682617188,147.3249969482422 203.85299682617188,156.08599853515625 203.85299682617188,156.08599853515625 C203.85299682617188,156.08599853515625 195.0919952392578,156.08599853515625 195.0919952392578,156.08599853515625 C195.0919952392578,156.08599853515625 195.0919952392578,147.3249969482422 195.0919952392578,147.3249969482422z"></path></g></g><g transform="matrix(1,0,0,1,0,0)" opacity="1" style="display: block;"><g opacity="1" transform="matrix(1,0,0,1,0,0)"><path fill-opacity="1" d=" M178.3300018310547,147.3249969482422 C178.3300018310547,147.3249969482422 187.09100341796875,147.3249969482422 187.09100341796875,147.3249969482422 C187.09100341796875,147.3249969482422 187.09100341796875,156.08599853515625 187.09100341796875,156.08599853515625 C187.09100341796875,156.08599853515625 178.3300018310547,156.08599853515625 178.3300018310547,156.08599853515625 C178.3300018310547,156.08599853515625 178.3300018310547,147.3249969482422 178.3300018310547,147.3249969482422z"></path></g></g><g transform="matrix(1,0,0,1,0,0)" opacity="1" style="display: block;"><g opacity="1" transform="matrix(1,0,0,1,0,0)"><path fill-opacity="1" d=" M161.5679931640625,147.3249969482422 C161.5679931640625,147.3249969482422 170.32899475097656,147.3249969482422 170.32899475097656,147.3249969482422 C170.32899475097656,147.3249969482422 170.32899475097656,156.08599853515625 170.32899475097656,156.08599853515625 C170.32899475097656,156.08599853515625 161.5679931640625,156.08599853515625 161.5679931640625,156.08599853515625 C161.5679931640625,156.08599853515625 161.5679931640625,147.3249969482422 161.5679931640625,147.3249969482422z"></path></g></g><g transform="matrix(1,0,0,1,0,0)" opacity="1" style="display: block;"><g opacity="1" transform="matrix(1,0,0,1,0,0)"><path fill-opacity="1" d=" M144.68800354003906,147.3249969482422 C144.68800354003906,147.3249969482422 153.44900512695312,147.3249969482422 153.44900512695312,147.3249969482422 C153.44900512695312,147.3249969482422 153.44900512695312,156.08599853515625 153.44900512695312,156.08599853515625 C153.44900512695312,156.08599853515625 144.68800354003906,156.08599853515625 144.68800354003906,156.08599853515625 C144.68800354003906,156.08599853515625 144.68800354003906,147.3249969482422 144.68800354003906,147.3249969482422z"></path></g></g><g transform="matrix(1,0,0,1,0,0)" opacity="1" style="display: block;"><g opacity="1" transform="matrix(1,0,0,1,0,0)"><path fill-opacity="1" d=" M136.5679931640625,139.3249969482422 C136.5679931640625,139.3249969482422 127.80690002441406,139.3249969482422 127.80690002441406,139.3249969482422 C127.80690002441406,139.3249969482422 127.80690002441406,130.56399536132812 127.80690002441406,130.56399536132812 C127.80690002441406,130.56399536132812 136.5679931640625,130.56399536132812 136.5679931640625,130.56399536132812 C136.5679931640625,130.56399536132812 136.5679931640625,139.3249969482422 136.5679931640625,139.3249969482422z"></path></g></g><g transform="matrix(1,0,0,1,0,0)" opacity="1" style="display: block;"><g opacity="1" transform="matrix(1,0,0,1,0,0)"><path fill-opacity="1" d=" M119.80699920654297,139.3249969482422 C119.80699920654297,139.3249969482422 111.0459976196289,139.3249969482422 111.0459976196289,139.3249969482422 C111.0459976196289,139.3249969482422 111.0459976196289,130.56399536132812 111.0459976196289,130.56399536132812 C111.0459976196289,130.56399536132812 119.80699920654297,130.56399536132812 119.80699920654297,130.56399536132812 C119.80699920654297,130.56399536132812 119.80699920654297,139.3249969482422 119.80699920654297,139.3249969482422z"></path></g></g><g transform="matrix(1,0,0,1,0,0)" opacity="1" style="display: block;"><g opacity="1" transform="matrix(1,0,0,1,0,0)"><path fill-opacity="1" d=" M103.04299926757812,139.3249969482422 C103.04299926757812,139.3249969482422 94.28199768066406,139.3249969482422 94.28199768066406,139.3249969482422 C94.28199768066406,139.3249969482422 94.28199768066406,130.56399536132812 94.28199768066406,130.56399536132812 C94.28199768066406,130.56399536132812 103.04299926757812,130.56399536132812 103.04299926757812,130.56399536132812 C103.04299926757812,130.56399536132812 103.04299926757812,139.3249969482422 103.04299926757812,139.3249969482422z"></path></g></g><g transform="matrix(1,0,0,1,0,0)" opacity="1" style="display: block;"><g opacity="1" transform="matrix(1,0,0,1,0,0)"><path fill-opacity="1" d=" M86.28119659423828,139.3249969482422 C86.28119659423828,139.3249969482422 77.52020263671875,139.3249969482422 77.52020263671875,139.3249969482422 C77.52020263671875,139.3249969482422 77.52020263671875,130.56399536132812 77.52020263671875,130.56399536132812 C77.52020263671875,130.56399536132812 86.28119659423828,130.56399536132812 86.28119659423828,130.56399536132812 C86.28119659423828,130.56399536132812 86.28119659423828,139.3249969482422 86.28119659423828,139.3249969482422z"></path></g></g><g transform="matrix(1,0,0,1,0,0)" opacity="1" style="display: block;"><g opacity="1" transform="matrix(1,0,0,1,0,0)"><path fill-opacity="1" d=" M69.51950073242188,139.3249969482422 C69.51950073242188,139.3249969482422 60.75849914550781,139.3249969482422 60.75849914550781,139.3249969482422 C60.75849914550781,139.3249969482422 60.75849914550781,130.56399536132812 60.75849914550781,130.56399536132812 C60.75849914550781,130.56399536132812 69.51950073242188,130.56399536132812 69.51950073242188,130.56399536132812 C69.51950073242188,130.56399536132812 69.51950073242188,139.3249969482422 69.51950073242188,139.3249969482422z"></path></g></g><g transform="matrix(1,0,0,1,0,0)" opacity="1" style="display: block;"><g opacity="1" transform="matrix(1,0,0,1,0,0)"><path fill-opacity="1" d=" M245.3769989013672,130.56399536132812 C245.3769989013672,130.56399536132812 254.13800048828125,130.56399536132812 254.13800048828125,130.56399536132812 C254.13800048828125,130.56399536132812 254.13800048828125,139.3249969482422 254.13800048828125,139.3249969482422 C254.13800048828125,139.3249969482422 245.3769989013672,139.3249969482422 245.3769989013672,139.3249969482422 C245.3769989013672,139.3249969482422 245.3769989013672,130.56399536132812 245.3769989013672,130.56399536132812z"></path></g></g><g transform="matrix(1,0,0,1,0,0)" opacity="1" style="display: block;"><g opacity="1" transform="matrix(1,0,0,1,0,0)"><path fill-opacity="1" d=" M228.61500549316406,130.56399536132812 C228.61500549316406,130.56399536132812 237.37600708007812,130.56399536132812 237.37600708007812,130.56399536132812 C237.37600708007812,130.56399536132812 237.37600708007812,139.3249969482422 237.37600708007812,139.3249969482422 C237.37600708007812,139.3249969482422 228.61500549316406,139.3249969482422 228.61500549316406,139.3249969482422 C228.61500549316406,139.3249969482422 228.61500549316406,130.56399536132812 228.61500549316406,130.56399536132812z"></path></g></g><g transform="matrix(1,0,0,1,0,0)" opacity="1" style="display: block;"><g opacity="1" transform="matrix(1,0,0,1,0,0)"><path fill-opacity="1" d=" M211.85400390625,130.56399536132812 C211.85400390625,130.56399536132812 220.61500549316406,130.56399536132812 220.61500549316406,130.56399536132812 C220.61500549316406,130.56399536132812 220.61500549316406,139.3249969482422 220.61500549316406,139.3249969482422 C220.61500549316406,139.3249969482422 211.85400390625,139.3249969482422 211.85400390625,139.3249969482422 C211.85400390625,139.3249969482422 211.85400390625,130.56399536132812 211.85400390625,130.56399536132812z"></path></g></g><g transform="matrix(1,0,0,1,0,0)" opacity="1" style="display: block;"><g opacity="1" transform="matrix(1,0,0,1,0,0)"><path fill-opacity="1" d=" M195.0919952392578,130.56399536132812 C195.0919952392578,130.56399536132812 203.85299682617188,130.56399536132812 203.85299682617188,130.56399536132812 C203.85299682617188,130.56399536132812 203.85299682617188,139.3249969482422 203.85299682617188,139.3249969482422 C203.85299682617188,139.3249969482422 195.0919952392578,139.3249969482422 195.0919952392578,139.3249969482422 C195.0919952392578,139.3249969482422 195.0919952392578,130.56399536132812 195.0919952392578,130.56399536132812z"></path></g></g><g transform="matrix(1,0,0,1,0,0)" opacity="1" style="display: block;"><g opacity="1" transform="matrix(1,0,0,1,0,0)"><path fill-opacity="1" d=" M178.3300018310547,130.56399536132812 C178.3300018310547,130.56399536132812 187.09100341796875,130.56399536132812 187.09100341796875,130.56399536132812 C187.09100341796875,130.56399536132812 187.09100341796875,139.3249969482422 187.09100341796875,139.3249969482422 C187.09100341796875,139.3249969482422 178.3300018310547,139.3249969482422 178.3300018310547,139.3249969482422 C178.3300018310547,139.3249969482422 178.3300018310547,130.56399536132812 178.3300018310547,130.56399536132812z"></path></g></g><g transform="matrix(1,0,0,1,0,0)" opacity="1" style="display: block;"><g opacity="1" transform="matrix(1,0,0,1,0,0)"><path fill-opacity="1" d=" M161.5679931640625,130.56399536132812 C161.5679931640625,130.56399536132812 170.32899475097656,130.56399536132812 170.32899475097656,130.56399536132812 C170.32899475097656,130.56399536132812 170.32899475097656,139.3249969482422 170.32899475097656,139.3249969482422 C170.32899475097656,139.3249969482422 161.5679931640625,139.3249969482422 161.5679931640625,139.3249969482422 C161.5679931640625,139.3249969482422 161.5679931640625,130.56399536132812 161.5679931640625,130.56399536132812z"></path></g></g><g transform="matrix(1,0,0,1,0,0)" opacity="1" style="display: block;"><g opacity="1" transform="matrix(1,0,0,1,0,0)"><path fill-opacity="1" d=" M144.68800354003906,130.56399536132812 C144.68800354003906,130.56399536132812 153.44900512695312,130.56399536132812 153.44900512695312,130.56399536132812 C153.44900512695312,130.56399536132812 153.44900512695312,139.3249969482422 153.44900512695312,139.3249969482422 C153.44900512695312,139.3249969482422 144.68800354003906,139.3249969482422 144.68800354003906,139.3249969482422 C144.68800354003906,139.3249969482422 144.68800354003906,130.56399536132812 144.68800354003906,130.56399536132812z"></path></g></g><g transform="matrix(1,0,0,1,0,0)" opacity="1" style="display: block;"><g opacity="1" transform="matrix(1,0,0,1,0,0)"><path fill-opacity="1" d=" M136.5679931640625,122.56400299072266 C136.5679931640625,122.56400299072266 127.80690002441406,122.56400299072266 127.80690002441406,122.56400299072266 C127.80690002441406,122.56400299072266 127.80690002441406,113.8030014038086 127.80690002441406,113.8030014038086 C127.80690002441406,113.8030014038086 136.5679931640625,113.8030014038086 136.5679931640625,113.8030014038086 C136.5679931640625,113.8030014038086 136.5679931640625,122.56400299072266 136.5679931640625,122.56400299072266z"></path></g></g><g transform="matrix(1,0,0,1,0,0)" opacity="1" style="display: block;"><g opacity="1" transform="matrix(1,0,0,1,0,0)"><path fill-opacity="1" d=" M119.80699920654297,122.56400299072266 C119.80699920654297,122.56400299072266 111.0459976196289,122.56400299072266 111.0459976196289,122.56400299072266 C111.0459976196289,122.56400299072266 111.0459976196289,113.8030014038086 111.0459976196289,113.8030014038086 C111.0459976196289,113.8030014038086 119.80699920654297,113.8030014038086 119.80699920654297,113.8030014038086 C119.80699920654297,113.8030014038086 119.80699920654297,122.56400299072266 119.80699920654297,122.56400299072266z"></path></g></g><g transform="matrix(1,0,0,1,0,0)" opacity="1" style="display: block;"><g opacity="1" transform="matrix(1,0,0,1,0,0)"><path fill-opacity="1" d=" M103.04299926757812,122.56400299072266 C103.04299926757812,122.56400299072266 94.28199768066406,122.56400299072266 94.28199768066406,122.56400299072266 C94.28199768066406,122.56400299072266 94.28199768066406,113.8030014038086 94.28199768066406,113.8030014038086 C94.28199768066406,113.8030014038086 103.04299926757812,113.8030014038086 103.04299926757812,113.8030014038086 C103.04299926757812,113.8030014038086 103.04299926757812,122.56400299072266 103.04299926757812,122.56400299072266z"></path></g></g><g transform="matrix(1,0,0,1,0,0)" opacity="1" style="display: block;"><g opacity="1" transform="matrix(1,0,0,1,0,0)"><path fill-opacity="1" d=" M86.28119659423828,122.56400299072266 C86.28119659423828,122.56400299072266 77.52020263671875,122.56400299072266 77.52020263671875,122.56400299072266 C77.52020263671875,122.56400299072266 77.52020263671875,113.8030014038086 77.52020263671875,113.8030014038086 C77.52020263671875,113.8030014038086 86.28119659423828,113.8030014038086 86.28119659423828,113.8030014038086 C86.28119659423828,113.8030014038086 86.28119659423828,122.56400299072266 86.28119659423828,122.56400299072266z"></path></g></g><g transform="matrix(1,0,0,1,0,0)" opacity="1" style="display: block;"><g opacity="1" transform="matrix(1,0,0,1,0,0)"><path fill-opacity="1" d=" M245.3769989013672,113.80400085449219 C245.3769989013672,113.80400085449219 254.13800048828125,113.80400085449219 254.13800048828125,113.80400085449219 C254.13800048828125,113.80400085449219 254.13800048828125,122.56500244140625 254.13800048828125,122.56500244140625 C254.13800048828125,122.56500244140625 245.3769989013672,122.56500244140625 245.3769989013672,122.56500244140625 C245.3769989013672,122.56500244140625 245.3769989013672,113.80400085449219 245.3769989013672,113.80400085449219z"></path></g></g><g transform="matrix(1,0,0,1,0,0)" opacity="1" style="display: block;"><g opacity="1" transform="matrix(1,0,0,1,0,0)"><path fill-opacity="1" d=" M228.61500549316406,113.80400085449219 C228.61500549316406,113.80400085449219 237.37600708007812,113.80400085449219 237.37600708007812,113.80400085449219 C237.37600708007812,113.80400085449219 237.37600708007812,122.56500244140625 237.37600708007812,122.56500244140625 C237.37600708007812,122.56500244140625 228.61500549316406,122.56500244140625 228.61500549316406,122.56500244140625 C228.61500549316406,122.56500244140625 228.61500549316406,113.80400085449219 228.61500549316406,113.80400085449219z"></path></g></g><g transform="matrix(1,0,0,1,0,0)" opacity="1" style="display: block;"><g opacity="1" transform="matrix(1,0,0,1,0,0)"><path fill-opacity="1" d=" M211.85400390625,113.80400085449219 C211.85400390625,113.80400085449219 220.61500549316406,113.80400085449219 220.61500549316406,113.80400085449219 C220.61500549316406,113.80400085449219 220.61500549316406,122.56500244140625 220.61500549316406,122.56500244140625 C220.61500549316406,122.56500244140625 211.85400390625,122.56500244140625 211.85400390625,122.56500244140625 C211.85400390625,122.56500244140625 211.85400390625,113.80400085449219 211.85400390625,113.80400085449219z"></path></g></g><g transform="matrix(1,0,0,1,0,0)" opacity="1" style="display: block;"><g opacity="1" transform="matrix(1,0,0,1,0,0)"><path fill-opacity="1" d=" M195.0919952392578,113.80400085449219 C195.0919952392578,113.80400085449219 203.85299682617188,113.80400085449219 203.85299682617188,113.80400085449219 C203.85299682617188,113.80400085449219 203.85299682617188,122.56500244140625 203.85299682617188,122.56500244140625 C203.85299682617188,122.56500244140625 195.0919952392578,122.56500244140625 195.0919952392578,122.56500244140625 C195.0919952392578,122.56500244140625 195.0919952392578,113.80400085449219 195.0919952392578,113.80400085449219z"></path></g></g><g transform="matrix(1,0,0,1,0,0)" opacity="1" style="display: block;"><g opacity="1" transform="matrix(1,0,0,1,0,0)"><path fill-opacity="1" d=" M178.3300018310547,113.80400085449219 C178.3300018310547,113.80400085449219 187.09100341796875,113.80400085449219 187.09100341796875,113.80400085449219 C187.09100341796875,113.80400085449219 187.09100341796875,122.56500244140625 187.09100341796875,122.56500244140625 C187.09100341796875,122.56500244140625 178.3300018310547,122.56500244140625 178.3300018310547,122.56500244140625 C178.3300018310547,122.56500244140625 178.3300018310547,113.80400085449219 178.3300018310547,113.80400085449219z"></path></g></g><g transform="matrix(1,0,0,1,0,0)" opacity="1" style="display: block;"><g opacity="1" transform="matrix(1,0,0,1,0,0)"><path fill-opacity="1" d=" M161.5679931640625,113.80400085449219 C161.5679931640625,113.80400085449219 170.32899475097656,113.80400085449219 170.32899475097656,113.80400085449219 C170.32899475097656,113.80400085449219 170.32899475097656,122.56500244140625 170.32899475097656,122.56500244140625 C170.32899475097656,122.56500244140625 161.5679931640625,122.56500244140625 161.5679931640625,122.56500244140625 C161.5679931640625,122.56500244140625 161.5679931640625,113.80400085449219 161.5679931640625,113.80400085449219z"></path></g></g><g transform="matrix(1,0,0,1,0,0)" opacity="1" style="display: block;"><g opacity="1" transform="matrix(1,0,0,1,0,0)"><path fill-opacity="1" d=" M144.68800354003906,113.80400085449219 C144.68800354003906,113.80400085449219 153.44900512695312,113.80400085449219 153.44900512695312,113.80400085449219 C153.44900512695312,113.80400085449219 153.44900512695312,122.56500244140625 153.44900512695312,122.56500244140625 C153.44900512695312,122.56500244140625 144.68800354003906,122.56500244140625 144.68800354003906,122.56500244140625 C144.68800354003906,122.56500244140625 144.68800354003906,113.80400085449219 144.68800354003906,113.80400085449219z"></path></g></g><g transform="matrix(1,0,0,1,0,0)" opacity="1" style="display: block;"><g opacity="1" transform="matrix(1,0,0,1,0,0)"><path fill-opacity="1" d=" M136.5679931640625,105.80400085449219 C136.5679931640625,105.80400085449219 127.80690002441406,105.80400085449219 127.80690002441406,105.80400085449219 C127.80690002441406,105.80400085449219 127.80690002441406,97.04299926757812 127.80690002441406,97.04299926757812 C127.80690002441406,97.04299926757812 136.5679931640625,97.04299926757812 136.5679931640625,97.04299926757812 C136.5679931640625,97.04299926757812 136.5679931640625,105.80400085449219 136.5679931640625,105.80400085449219z"></path></g></g><g transform="matrix(1,0,0,1,0,0)" opacity="1" style="display: block;"><g opacity="1" transform="matrix(1,0,0,1,0,0)"><path fill-opacity="1" d=" M119.80699920654297,105.80400085449219 C119.80699920654297,105.80400085449219 111.0459976196289,105.80400085449219 111.0459976196289,105.80400085449219 C111.0459976196289,105.80400085449219 111.0459976196289,97.04299926757812 111.0459976196289,97.04299926757812 C111.0459976196289,97.04299926757812 119.80699920654297,97.04299926757812 119.80699920654297,97.04299926757812 C119.80699920654297,97.04299926757812 119.80699920654297,105.80400085449219 119.80699920654297,105.80400085449219z"></path></g></g><g transform="matrix(1,0,0,1,0,0)" opacity="1" style="display: block;"><g opacity="1" transform="matrix(1,0,0,1,0,0)"><path fill-opacity="1" d=" M103.04299926757812,105.80400085449219 C103.04299926757812,105.80400085449219 94.28199768066406,105.80400085449219 94.28199768066406,105.80400085449219 C94.28199768066406,105.80400085449219 94.28199768066406,97.04299926757812 94.28199768066406,97.04299926757812 C94.28199768066406,97.04299926757812 103.04299926757812,97.04299926757812 103.04299926757812,97.04299926757812 C103.04299926757812,97.04299926757812 103.04299926757812,105.80400085449219 103.04299926757812,105.80400085449219z"></path></g></g><g transform="matrix(1,0,0,1,0,0)" opacity="1" style="display: block;"><g opacity="1" transform="matrix(1,0,0,1,0,0)"><path fill-opacity="1" d=" M161.5679931640625,97.04299926757812 C161.5679931640625,97.04299926757812 170.32899475097656,97.04299926757812 170.32899475097656,97.04299926757812 C170.32899475097656,97.04299926757812 170.32899475097656,105.80400085449219 170.32899475097656,105.80400085449219 C170.32899475097656,105.80400085449219 161.5679931640625,105.80400085449219 161.5679931640625,105.80400085449219 C161.5679931640625,105.80400085449219 161.5679931640625,97.04299926757812 161.5679931640625,97.04299926757812z"></path></g></g><g transform="matrix(1,0,0,1,0,0)" opacity="1" style="display: block;"><g opacity="1" transform="matrix(1,0,0,1,0,0)"><path fill-opacity="1" d=" M144.68800354003906,97.04299926757812 C144.68800354003906,97.04299926757812 153.44900512695312,97.04299926757812 153.44900512695312,97.04299926757812 C153.44900512695312,97.04299926757812 153.44900512695312,105.80400085449219 153.44900512695312,105.80400085449219 C153.44900512695312,105.80400085449219 144.68800354003906,105.80400085449219 144.68800354003906,105.80400085449219 C144.68800354003906,105.80400085449219 144.68800354003906,97.04299926757812 144.68800354003906,97.04299926757812z"></path></g></g><g transform="matrix(1,0,0,1,0,0)" opacity="1" style="display: block;"><g opacity="1" transform="matrix(1,0,0,1,0,0)"><path fill-opacity="1" d=" M136.5679931640625,89.04299926757812 C136.5679931640625,89.04299926757812 127.80690002441406,89.04299926757812 127.80690002441406,89.04299926757812 C127.80690002441406,89.04299926757812 127.80690002441406,80.28199768066406 127.80690002441406,80.28199768066406 C127.80690002441406,80.28199768066406 136.5679931640625,80.28199768066406 136.5679931640625,80.28199768066406 C136.5679931640625,80.28199768066406 136.5679931640625,89.04299926757812 136.5679931640625,89.04299926757812z"></path></g></g><g transform="matrix(1,0,0,1,0,0)" opacity="1" style="display: block;"><g opacity="1" transform="matrix(1,0,0,1,0,0)"><path fill-opacity="1" d=" M119.80699920654297,89.04299926757812 C119.80699920654297,89.04299926757812 111.0459976196289,89.04299926757812 111.0459976196289,89.04299926757812 C111.0459976196289,89.04299926757812 111.0459976196289,80.28199768066406 111.0459976196289,80.28199768066406 C111.0459976196289,80.28199768066406 119.80699920654297,80.28199768066406 119.80699920654297,80.28199768066406 C119.80699920654297,80.28199768066406 119.80699920654297,89.04299926757812 119.80699920654297,89.04299926757812z"></path></g></g><g transform="matrix(1,0,0,1,0,0)" opacity="1" style="display: block;"><g opacity="1" transform="matrix(1,0,0,1,0,0)"><path fill-opacity="1" d=" M161.5679931640625,80.2822036743164 C161.5679931640625,80.2822036743164 170.32899475097656,80.2822036743164 170.32899475097656,80.2822036743164 C170.32899475097656,80.2822036743164 170.32899475097656,89.04319763183594 170.32899475097656,89.04319763183594 C170.32899475097656,89.04319763183594 161.5679931640625,89.04319763183594 161.5679931640625,89.04319763183594 C161.5679931640625,89.04319763183594 161.5679931640625,80.2822036743164 161.5679931640625,80.2822036743164z"></path></g></g><g transform="matrix(1,0,0,1,0,0)" opacity="1" style="display: block;"><g opacity="1" transform="matrix(1,0,0,1,0,0)"><path fill-opacity="1" d=" M144.68800354003906,80.2822036743164 C144.68800354003906,80.2822036743164 153.44900512695312,80.2822036743164 153.44900512695312,80.2822036743164 C153.44900512695312,80.2822036743164 153.44900512695312,89.04319763183594 153.44900512695312,89.04319763183594 C153.44900512695312,89.04319763183594 144.68800354003906,89.04319763183594 144.68800354003906,89.04319763183594 C144.68800354003906,89.04319763183594 144.68800354003906,80.2822036743164 144.68800354003906,80.2822036743164z"></path></g></g><g transform="matrix(1,0,0,1,0,0)" opacity="1" style="display: block;"><g opacity="1" transform="matrix(1,0,0,1,0,0)"><path fill-opacity="1" d=" M136.5679931640625,72.2822036743164 C136.5679931640625,72.2822036743164 127.80690002441406,72.2822036743164 127.80690002441406,72.2822036743164 C127.80690002441406,72.2822036743164 127.80690002441406,63.52119827270508 127.80690002441406,63.52119827270508 C127.80690002441406,63.52119827270508 136.5679931640625,63.52119827270508 136.5679931640625,63.52119827270508 C136.5679931640625,63.52119827270508 136.5679931640625,72.2822036743164 136.5679931640625,72.2822036743164z"></path></g></g><g transform="matrix(1,0,0,1,0,0)" opacity="1" style="display: block;"><g opacity="1" transform="matrix(1,0,0,1,0,0)"><path fill-opacity="1" d=" M161.5679931640625,63.52149963378906 C161.5679931640625,63.52149963378906 170.32899475097656,63.52149963378906 170.32899475097656,63.52149963378906 C170.32899475097656,63.52149963378906 170.32899475097656,72.28250122070312 170.32899475097656,72.28250122070312 C170.32899475097656,72.28250122070312 161.5679931640625,72.28250122070312 161.5679931640625,72.28250122070312 C161.5679931640625,72.28250122070312 161.5679931640625,63.52149963378906 161.5679931640625,63.52149963378906z"></path></g></g><g transform="matrix(1,0,0,1,0,0)" opacity="1" style="display: block;"><g opacity="1" transform="matrix(1,0,0,1,0,0)"><path fill-opacity="1" d=" M144.68800354003906,63.52149963378906 C144.68800354003906,63.52149963378906 153.44900512695312,63.52149963378906 153.44900512695312,63.52149963378906 C153.44900512695312,63.52149963378906 153.44900512695312,72.28250122070312 153.44900512695312,72.28250122070312 C153.44900512695312,72.28250122070312 144.68800354003906,72.28250122070312 144.68800354003906,72.28250122070312 C144.68800354003906,72.28250122070312 144.68800354003906,63.52149963378906 144.68800354003906,63.52149963378906z"></path></g></g><g transform="matrix(1,0,0,1,0,0)" opacity="1" style="display: block;"><g opacity="1" transform="matrix(1,0,0,1,0,0)"><path fill-opacity="1" d=" M161.5679931640625,46.76070022583008 C161.5679931640625,46.76070022583008 170.32899475097656,46.76070022583008 170.32899475097656,46.76070022583008 C170.32899475097656,46.76070022583008 170.32899475097656,55.52170181274414 170.32899475097656,55.52170181274414 C170.32899475097656,55.52170181274414 161.5679931640625,55.52170181274414 161.5679931640625,55.52170181274414 C161.5679931640625,55.52170181274414 161.5679931640625,46.76070022583008 161.5679931640625,46.76070022583008z"></path></g></g><g transform="matrix(1,0,0,1,0,0)" opacity="1" style="display: block;"><g opacity="1" transform="matrix(1,0,0,1,0,0)"><path fill-opacity="1" d=" M144.68800354003906,46.76070022583008 C144.68800354003906,46.76070022583008 153.44900512695312,46.76070022583008 153.44900512695312,46.76070022583008 C153.44900512695312,46.76070022583008 153.44900512695312,55.52170181274414 153.44900512695312,55.52170181274414 C153.44900512695312,55.52170181274414 144.68800354003906,55.52170181274414 144.68800354003906,55.52170181274414 C144.68800354003906,55.52170181274414 144.68800354003906,46.76070022583008 144.68800354003906,46.76070022583008z"></path></g></g><g transform="matrix(1,0,0,1,0,0)" opacity="1" style="display: block;"><g opacity="1" transform="matrix(1,0,0,1,0,0)"><path fill-opacity="1" d=" M161.5679931640625,30 C161.5679931640625,30 170.32899475097656,30 170.32899475097656,30 C170.32899475097656,30 170.32899475097656,38.76100158691406 170.32899475097656,38.76100158691406 C170.32899475097656,38.76100158691406 161.5679931640625,38.76100158691406 161.5679931640625,38.76100158691406 C161.5679931640625,38.76100158691406 161.5679931640625,30 161.5679931640625,30z"></path></g></g></g></svg>